<svg width="35" height="20" viewBox="0 0 35 20" fill="none" xmlns="http://www.w3.org/2000/svg">
<mask id="mask0_94_171" style="mask-type:alpha" maskUnits="userSpaceOnUse" x="1" y="0" width="33" height="11">
<path d="M9.86344 7.26362C9.86344 7.67519 9.91 8.00889 9.99149 8.25361C10.0846 8.49833 10.201 8.76529 10.364 9.0545C10.4222 9.14349 10.4455 9.23248 10.4455 9.31034C10.4455 9.42157 10.3756 9.53281 10.2243 9.64404L9.49094 10.1112C9.38618 10.178 9.28141 10.2113 9.18828 10.2113C9.07188 10.2113 8.95547 10.1557 8.83907 10.0556C8.6761 9.88876 8.53641 9.71078 8.42 9.53281C8.3036 9.34371 8.18719 9.13236 8.05914 8.87652C7.15118 9.89988 6.01039 10.4116 4.6368 10.4116C3.65899 10.4116 2.87906 10.1446 2.30867 9.61067C1.73828 9.07675 1.44727 8.36485 1.44727 7.47497C1.44727 6.52947 1.79648 5.76195 2.50656 5.18353C3.21664 4.60511 4.15953 4.3159 5.35852 4.3159C5.7543 4.3159 6.16172 4.34927 6.59242 4.40489C7.02313 4.46051 7.46547 4.5495 7.9311 4.64961V3.8376C7.9311 2.99221 7.74485 2.40267 7.38399 2.05784C7.01149 1.71301 6.38289 1.54616 5.48656 1.54616C5.07914 1.54616 4.66008 1.59066 4.22938 1.69077C3.79867 1.79088 3.37961 1.91324 2.97219 2.06896C2.78594 2.14683 2.64625 2.19132 2.56477 2.21357C2.48328 2.23582 2.42508 2.24694 2.37852 2.24694C2.21555 2.24694 2.13406 2.13571 2.13406 1.90211V1.35706C2.13406 1.17909 2.15734 1.04561 2.21555 0.967741C2.27375 0.889877 2.37852 0.812013 2.54148 0.734149C2.94891 0.533926 3.43781 0.367074 4.0082 0.233593C4.5786 0.0889877 5.18391 0.0222469 5.82414 0.0222469C7.20938 0.0222469 8.22211 0.32258 8.87399 0.923247C9.51422 1.52391 9.84016 2.43604 9.84016 3.65962V7.26362H9.86344ZM5.13735 8.95439C5.52149 8.95439 5.91727 8.88765 6.33633 8.75417C6.75539 8.62069 7.12789 8.37597 7.44219 8.04226C7.62844 7.83092 7.76813 7.59733 7.83797 7.33036C7.90782 7.0634 7.95438 6.74082 7.95438 6.36262V5.89544C7.6168 5.81757 7.25594 5.75083 6.88344 5.70634C6.51094 5.66184 6.15008 5.6396 5.78922 5.6396C5.0093 5.6396 4.43891 5.7842 4.05477 6.08454C3.67063 6.38487 3.48438 6.80756 3.48438 7.36373C3.48438 7.88654 3.62406 8.27586 3.91508 8.54282C4.19445 8.82091 4.60188 8.95439 5.13735 8.95439ZM14.4848 10.1557C14.2752 10.1557 14.1356 10.1224 14.0424 10.0445C13.9493 9.97775 13.8678 9.82202 13.798 9.61067L11.0624 1.01224C10.9926 0.789766 10.9577 0.645161 10.9577 0.567297C10.9577 0.389321 11.0508 0.28921 11.237 0.28921H12.3778C12.599 0.28921 12.7503 0.32258 12.8318 0.400445C12.9249 0.467185 12.9948 0.622914 13.0646 0.83426L15.0202 8.19799L16.8362 0.83426C16.8944 0.611791 16.9642 0.467185 17.0574 0.400445C17.1505 0.333704 17.3134 0.28921 17.523 0.28921H18.4542C18.6754 0.28921 18.8267 0.32258 18.9199 0.400445C19.013 0.467185 19.0945 0.622914 19.141 0.83426L20.9802 8.28698L22.9941 0.83426C23.0639 0.611791 23.1454 0.467185 23.2269 0.400445C23.32 0.333704 23.4713 0.28921 23.6809 0.28921H24.7634C24.9497 0.28921 25.0545 0.378198 25.0545 0.567297C25.0545 0.622914 25.0428 0.678531 25.0312 0.745272C25.0195 0.812013 24.9963 0.901001 24.9497 1.02336L22.1443 9.6218C22.0745 9.84427 21.993 9.98887 21.8999 10.0556C21.8067 10.1224 21.6554 10.1668 21.4575 10.1668H20.4564C20.2352 10.1668 20.0839 10.1335 19.9908 10.0556C19.8977 9.97775 19.8162 9.83314 19.7696 9.61067L17.9653 2.43604L16.1727 9.59955C16.1145 9.82202 16.0446 9.96662 15.9515 10.0445C15.8584 10.1224 15.6954 10.1557 15.4859 10.1557H14.4848ZM29.443 10.4561C28.8377 10.4561 28.2324 10.3893 27.6503 10.2558C27.0683 10.1224 26.6143 9.97775 26.3117 9.8109C26.1254 9.71078 25.9974 9.59955 25.9508 9.49944C25.9042 9.39933 25.8809 9.28809 25.8809 9.18798V8.62068C25.8809 8.38709 25.9741 8.27586 26.1487 8.27586C26.2185 8.27586 26.2884 8.28698 26.3582 8.30923C26.4281 8.33148 26.5328 8.37597 26.6492 8.42046C27.045 8.58731 27.4757 8.7208 27.9297 8.80978C28.3953 8.89877 28.8493 8.94326 29.3149 8.94326C30.0483 8.94326 30.6187 8.82091 31.0145 8.57619C31.4102 8.33147 31.6198 7.97552 31.6198 7.51946C31.6198 7.208 31.515 6.95217 31.3055 6.74082C31.096 6.52947 30.7002 6.34037 30.1298 6.1624L28.4419 5.66184C27.5921 5.406 26.9635 5.02781 26.5794 4.52725C26.1952 4.03782 25.9974 3.49277 25.9974 2.91435C25.9974 2.44716 26.1021 2.03559 26.3117 1.67964C26.5212 1.32369 26.8006 1.01224 27.1498 0.767519C27.499 0.511679 27.8948 0.32258 28.3604 0.189099C28.826 0.0556173 29.3149 0 29.8271 0C30.0832 0 30.351 0.0111235 30.607 0.0444939C30.8748 0.0778643 31.1192 0.122358 31.3637 0.166852C31.5965 0.222469 31.8177 0.278087 32.0272 0.344827C32.2367 0.411568 32.3997 0.478309 32.5161 0.54505C32.6791 0.634037 32.7955 0.723025 32.8653 0.823136C32.9352 0.912124 32.9701 1.03448 32.9701 1.19021V1.71301C32.9701 1.94661 32.877 2.06896 32.7024 2.06896C32.6092 2.06896 32.4579 2.02447 32.26 1.93548C31.5965 1.64627 30.8515 1.50167 30.025 1.50167C29.3615 1.50167 28.8377 1.60178 28.4768 1.81312C28.1159 2.02447 27.9297 2.34705 27.9297 2.80311C27.9297 3.11457 28.0461 3.38153 28.2789 3.59288C28.5117 3.80423 28.9424 4.01557 29.5594 4.20467L31.2124 4.70523C32.0505 4.96107 32.6558 5.31702 33.0167 5.77308C33.3775 6.22914 33.5521 6.75194 33.5521 7.33036C33.5521 7.80867 33.4474 8.24249 33.2495 8.62068C33.0399 8.99888 32.7606 9.33259 32.3997 9.59955C32.0388 9.87764 31.6081 10.0779 31.1076 10.2225C30.5838 10.3782 30.0367 10.4561 29.443 10.4561Z" fill="white"/>
</mask>
<g mask="url(#mask0_94_171)">
<path d="M9.86344 7.26362C9.86344 7.67519 9.91 8.00889 9.99149 8.25361C10.0846 8.49833 10.201 8.76529 10.364 9.0545C10.4222 9.14349 10.4455 9.23248 10.4455 9.31034C10.4455 9.42157 10.3756 9.53281 10.2243 9.64404L9.49094 10.1112C9.38618 10.178 9.28141 10.2113 9.18828 10.2113C9.07188 10.2113 8.95547 10.1557 8.83907 10.0556C8.6761 9.88876 8.53641 9.71078 8.42 9.53281C8.3036 9.34371 8.18719 9.13236 8.05914 8.87652C7.15118 9.89988 6.01039 10.4116 4.6368 10.4116C3.65899 10.4116 2.87906 10.1446 2.30867 9.61067C1.73828 9.07675 1.44727 8.36485 1.44727 7.47497C1.44727 6.52947 1.79648 5.76195 2.50656 5.18353C3.21664 4.60511 4.15953 4.3159 5.35852 4.3159C5.7543 4.3159 6.16172 4.34927 6.59242 4.40489C7.02313 4.46051 7.46547 4.5495 7.9311 4.64961V3.8376C7.9311 2.99221 7.74485 2.40267 7.38399 2.05784C7.01149 1.71301 6.38289 1.54616 5.48656 1.54616C5.07914 1.54616 4.66008 1.59066 4.22938 1.69077C3.79867 1.79088 3.37961 1.91324 2.97219 2.06896C2.78594 2.14683 2.64625 2.19132 2.56477 2.21357C2.48328 2.23582 2.42508 2.24694 2.37852 2.24694C2.21555 2.24694 2.13406 2.13571 2.13406 1.90211V1.35706C2.13406 1.17909 2.15734 1.04561 2.21555 0.967741C2.27375 0.889877 2.37852 0.812013 2.54148 0.734149C2.94891 0.533926 3.43781 0.367074 4.0082 0.233593C4.5786 0.0889877 5.18391 0.0222469 5.82414 0.0222469C7.20938 0.0222469 8.22211 0.32258 8.87399 0.923247C9.51422 1.52391 9.84016 2.43604 9.84016 3.65962V7.26362H9.86344ZM5.13735 8.95439C5.52149 8.95439 5.91727 8.88765 6.33633 8.75417C6.75539 8.62069 7.12789 8.37597 7.44219 8.04226C7.62844 7.83092 7.76813 7.59733 7.83797 7.33036C7.90782 7.0634 7.95438 6.74082 7.95438 6.36262V5.89544C7.6168 5.81757 7.25594 5.75083 6.88344 5.70634C6.51094 5.66184 6.15008 5.6396 5.78922 5.6396C5.0093 5.6396 4.43891 5.7842 4.05477 6.08454C3.67063 6.38487 3.48438 6.80756 3.48438 7.36373C3.48438 7.88654 3.62406 8.27586 3.91508 8.54282C4.19445 8.82091 4.60188 8.95439 5.13735 8.95439ZM14.4848 10.1557C14.2752 10.1557 14.1356 10.1224 14.0424 10.0445C13.9493 9.97775 13.8678 9.82202 13.798 9.61067L11.0624 1.01224C10.9926 0.789766 10.9577 0.645161 10.9577 0.567297C10.9577 0.389321 11.0508 0.28921 11.237 0.28921H12.3778C12.599 0.28921 12.7503 0.32258 12.8318 0.400445C12.9249 0.467185 12.9948 0.622914 13.0646 0.83426L15.0202 8.19799L16.8362 0.83426C16.8944 0.611791 16.9642 0.467185 17.0574 0.400445C17.1505 0.333704 17.3134 0.28921 17.523 0.28921H18.4542C18.6754 0.28921 18.8267 0.32258 18.9199 0.400445C19.013 0.467185 19.0945 0.622914 19.141 0.83426L20.9802 8.28698L22.9941 0.83426C23.0639 0.611791 23.1454 0.467185 23.2269 0.400445C23.32 0.333704 23.4713 0.28921 23.6809 0.28921H24.7634C24.9497 0.28921 25.0545 0.378198 25.0545 0.567297C25.0545 0.622914 25.0428 0.678531 25.0312 0.745272C25.0195 0.812013 24.9963 0.901001 24.9497 1.02336L22.1443 9.6218C22.0745 9.84427 21.993 9.98887 21.8999 10.0556C21.8067 10.1224 21.6554 10.1668 21.4575 10.1668H20.4564C20.2352 10.1668 20.0839 10.1335 19.9908 10.0556C19.8977 9.97775 19.8162 9.83314 19.7696 9.61067L17.9653 2.43604L16.1727 9.59955C16.1145 9.82202 16.0446 9.96662 15.9515 10.0445C15.8584 10.1224 15.6954 10.1557 15.4859 10.1557H14.4848ZM29.443 10.4561C28.8377 10.4561 28.2324 10.3893 27.6503 10.2558C27.0683 10.1224 26.6143 9.97775 26.3117 9.8109C26.1254 9.71078 25.9974 9.59955 25.9508 9.49944C25.9042 9.39933 25.8809 9.28809 25.8809 9.18798V8.62068C25.8809 8.38709 25.9741 8.27586 26.1487 8.27586C26.2185 8.27586 26.2884 8.28698 26.3582 8.30923C26.4281 8.33148 26.5328 8.37597 26.6492 8.42046C27.045 8.58731 27.4757 8.7208 27.9297 8.80978C28.3953 8.89877 28.8493 8.94326 29.3149 8.94326C30.0483 8.94326 30.6187 8.82091 31.0145 8.57619C31.4102 8.33147 31.6198 7.97552 31.6198 7.51946C31.6198 7.208 31.515 6.95217 31.3055 6.74082C31.096 6.52947 30.7002 6.34037 30.1298 6.1624L28.4419 5.66184C27.5921 5.406 26.9635 5.02781 26.5794 4.52725C26.1952 4.03782 25.9974 3.49277 25.9974 2.91435C25.9974 2.44716 26.1021 2.03559 26.3117 1.67964C26.5212 1.32369 26.8006 1.01224 27.1498 0.767519C27.499 0.511679 27.8948 0.32258 28.3604 0.189099C28.826 0.0556173 29.3149 0 29.8271 0C30.0832 0 30.351 0.0111235 30.607 0.0444939C30.8748 0.0778643 31.1192 0.122358 31.3637 0.166852C31.5965 0.222469 31.8177 0.278087 32.0272 0.344827C32.2367 0.411568 32.3997 0.478309 32.5161 0.54505C32.6791 0.634037 32.7955 0.723025 32.8653 0.823136C32.9352 0.912124 32.9701 1.03448 32.9701 1.19021V1.71301C32.9701 1.94661 32.877 2.06896 32.7024 2.06896C32.6092 2.06896 32.4579 2.02447 32.26 1.93548C31.5965 1.64627 30.8515 1.50167 30.025 1.50167C29.3615 1.50167 28.8377 1.60178 28.4768 1.81312C28.1159 2.02447 27.9297 2.34705 27.9297 2.80311C27.9297 3.11457 28.0461 3.38153 28.2789 3.59288C28.5117 3.80423 28.9424 4.01557 29.5594 4.20467L31.2124 4.70523C32.0505 4.96107 32.6558 5.31702 33.0167 5.77308C33.3775 6.22914 33.5521 6.75194 33.5521 7.33036C33.5521 7.80867 33.4474 8.24249 33.2495 8.62068C33.0399 8.99888 32.7606 9.33259 32.3997 9.59955C32.0388 9.87764 31.6081 10.0779 31.1076 10.2225C30.5838 10.3782 30.0367 10.4561 29.443 10.4561Z" fill="white"/>
</g>
<mask id="mask1_94_171" style="mask-type:alpha" maskUnits="userSpaceOnUse" x="0" y="12" width="36" height="8">
<path fill-rule="evenodd" clip-rule="evenodd" d="M31.643 15.8621C27.8132 18.5651 22.249 20 17.4647 20C10.7597 20 4.71818 17.6307 0.155055 13.693C-0.205804 13.3816 0.120133 12.9589 0.550837 13.2036C5.48646 15.94 11.5745 17.5973 17.8721 17.5973C22.1209 17.5973 26.7888 16.752 31.0842 15.0167C31.7245 14.7386 32.2716 15.4171 31.643 15.8621Z" fill="white"/>
<path fill-rule="evenodd" clip-rule="evenodd" d="M33.2378 14.1268C32.7489 13.5261 30.0017 13.8376 28.7562 13.9822C28.3837 14.0267 28.3255 13.7152 28.663 13.4816C30.8515 12.0133 34.4484 12.436 34.8675 12.9255C35.2866 13.426 34.7511 16.8632 32.7023 18.5094C32.388 18.7653 32.0854 18.6318 32.2251 18.2981C32.6907 17.1969 33.7267 14.7163 33.2378 14.1268Z" fill="white"/>
</mask>
<g mask="url(#mask1_94_171)">
<path fill-rule="evenodd" clip-rule="evenodd" d="M31.643 15.8621C27.8132 18.5651 22.249 20 17.4647 20C10.7597 20 4.71818 17.6307 0.155055 13.693C-0.205804 13.3816 0.120133 12.9589 0.550837 13.2036C5.48646 15.94 11.5745 17.5973 17.8721 17.5973C22.1209 17.5973 26.7888 16.752 31.0842 15.0167C31.7245 14.7386 32.2716 15.4171 31.643 15.8621Z" fill="white"/>
<path fill-rule="evenodd" clip-rule="evenodd" d="M33.2378 14.1268C32.7489 13.5261 30.0017 13.8376 28.7562 13.9822C28.3837 14.0267 28.3255 13.7152 28.663 13.4816C30.8515 12.0133 34.4484 12.436 34.8675 12.9255C35.2866 13.426 34.7511 16.8632 32.7023 18.5094C32.388 18.7653 32.0854 18.6318 32.2251 18.2981C32.6907 17.1969 33.7267 14.7163 33.2378 14.1268Z" fill="white"/>
<rect x="-1.88464" y="12.0739" width="39.7909" height="8.40044" fill="#FF9900"/>
</g>
</svg>
