<svg width="25" height="20" viewBox="0 0 25 20" fill="none" xmlns="http://www.w3.org/2000/svg">
<mask id="mask0_94_141" style="mask-type:alpha" maskUnits="userSpaceOnUse" x="3" y="0" width="16" height="8">
<path d="M15.8193 5.49594L16.617 5.50979L18.7843 3.35821L18.8889 2.44649C17.1665 0.925567 14.9002 0 12.4199 0C7.92916 0 4.13855 3.03353 3.01587 7.14286C3.25296 6.97879 3.75851 7.10132 3.75851 7.10132L8.09024 6.39382C8.09024 6.39382 8.31338 6.02692 8.42495 6.04976C9.35477 5.03993 10.6377 4.42035 12.0119 4.31743C13.3861 4.21452 14.7474 4.63602 15.8193 5.49594Z" fill="white"/>
</mask>
<g mask="url(#mask0_94_141)">
<path d="M15.8193 5.49594L16.617 5.50979L18.7843 3.35821L18.8889 2.44649C17.1665 0.925567 14.9002 0 12.4199 0C7.92916 0 4.13855 3.03353 3.01587 7.14286C3.25296 6.97879 3.75851 7.10132 3.75851 7.10132L8.09024 6.39382C8.09024 6.39382 8.31338 6.02692 8.42495 6.04976C9.35477 5.03993 10.6377 4.42035 12.0119 4.31743C13.3861 4.21452 14.7474 4.63602 15.8193 5.49594Z" fill="white"/>
<ellipse cx="10.5961" cy="4.36507" rx="10.5556" ry="4.84127" fill="#EA4335"/>
</g>
<mask id="mask1_94_141" style="mask-type:alpha" maskUnits="userSpaceOnUse" x="11" y="2" width="14" height="18">
<path d="M21.8732 7.13458C21.3741 5.29684 20.35 3.64478 18.9264 2.38095L15.8497 5.46003C16.4811 5.9679 16.9907 6.61103 17.3409 7.34207C17.6911 8.07312 17.8729 8.87346 17.8731 9.68416V10.2276C19.3703 10.2276 20.5851 11.4468 20.5851 12.9416C20.5851 14.4364 19.3668 15.6556 17.8731 15.6556H12.4479L11.9048 16.2012V19.4593L12.4479 20H17.8731C19.7416 19.995 21.532 19.2497 22.8527 17.927C24.1734 16.6044 24.917 14.8121 24.9207 12.9423C24.9179 10.5389 23.7073 8.40972 21.8662 7.13458H21.8732Z" fill="white"/>
</mask>
<g mask="url(#mask1_94_141)">
<path d="M21.8732 7.13458C21.3741 5.29684 20.35 3.64478 18.9264 2.38095L15.8497 5.46003C16.4811 5.9679 16.9907 6.61103 17.3409 7.34207C17.6911 8.07312 17.8729 8.87346 17.8731 9.68416V10.2276C19.3703 10.2276 20.5851 11.4468 20.5851 12.9416C20.5851 14.4364 19.3668 15.6556 17.8731 15.6556H12.4479L11.9048 16.2012V19.4593L12.4479 20H17.8731C19.7416 19.995 21.532 19.2497 22.8527 17.927C24.1734 16.6044 24.917 14.8121 24.9207 12.9423C24.9179 10.5389 23.7073 8.40972 21.8662 7.13458H21.8732Z" fill="white" fill-opacity="0.5"/>
<ellipse cx="18.5325" cy="12.619" rx="8.65079" ry="10.873" fill="#4285F4"/>
</g>
<mask id="mask2_94_141" style="mask-type:alpha" maskUnits="userSpaceOnUse" x="2" y="15" width="11" height="5">
<path d="M7.11744 19.9986H12.5397V15.6403H7.11744C6.73238 15.6405 6.3518 15.5574 6.00154 15.3968L5.21894 15.6375L3.04724 17.818L2.85718 18.5547C4.07905 19.4967 5.57765 20.005 7.11814 20L7.11744 19.9986Z" fill="white"/>
</mask>
<g mask="url(#mask2_94_141)">
<path d="M7.11744 19.9986H12.5397V15.6403H7.11744C6.73238 15.6405 6.3518 15.5574 6.00154 15.3968L5.21894 15.6375L3.04724 17.818L2.85718 18.5547C4.07905 19.4967 5.57765 20.005 7.11814 20L7.11744 19.9986Z" fill="white"/>
<ellipse cx="7.89773" cy="16.9841" rx="6.11111" ry="5.39683" fill="#34A853"/>
</g>
<mask id="mask3_94_141" style="mask-type:alpha" maskUnits="userSpaceOnUse" x="0" y="5" width="13" height="14">
<path d="M7.06993 5.87302C5.19578 5.87598 3.39924 6.62163 2.07401 7.94657C0.748782 9.2715 0.00296368 11.0676 3.44035e-10 12.9414C-1.07724e-05 14.0325 0.252973 15.1087 0.739081 16.0856C1.22519 17.0624 1.93119 17.9133 2.80164 18.5714L5.95348 15.4203C5.47605 15.2055 5.07083 14.8575 4.78654 14.418C4.50225 13.9784 4.35099 13.4662 4.35094 12.9428C4.35094 11.4428 5.57175 10.2258 7.06853 10.2258C7.59186 10.2267 8.10385 10.3783 8.5433 10.6624C8.98275 10.9465 9.33105 11.3512 9.54657 11.828L12.6984 8.67684C11.4055 6.97522 9.36447 5.87582 7.06713 5.87582L7.06993 5.87302Z" fill="white"/>
</mask>
<g mask="url(#mask3_94_141)">
<path d="M7.06993 5.87302C5.19578 5.87598 3.39924 6.62163 2.07401 7.94657C0.748782 9.2715 0.00296368 11.0676 3.44035e-10 12.9414C-1.07724e-05 14.0325 0.252973 15.1087 0.739081 16.0856C1.22519 17.0624 1.93119 17.9133 2.80164 18.5714L5.95348 15.4203C5.47605 15.2055 5.07083 14.8575 4.78654 14.418C4.50225 13.9784 4.35099 13.4662 4.35094 12.9428C4.35094 11.4428 5.57175 10.2258 7.06853 10.2258C7.59186 10.2267 8.10385 10.3783 8.5433 10.6624C8.98275 10.9465 9.33105 11.3512 9.54657 11.828L12.6984 8.67684C11.4055 6.97522 9.36447 5.87582 7.06713 5.87582L7.06993 5.87302Z" fill="white" fill-opacity="0.5"/>
<ellipse cx="6.38968" cy="12.3016" rx="7.61905" ry="7.38095" fill="#FBBC05"/>
</g>
</svg>
