<svg width="27" height="20" viewBox="0 0 27 20" fill="none" xmlns="http://www.w3.org/2000/svg">
<mask id="mask0_94_110" style="mask-type:alpha" maskUnits="userSpaceOnUse" x="0" y="0" width="27" height="20">
<path d="M12.4845 18.9319C15.9515 18.3459 18.8152 17.861 18.8481 17.8543L18.9079 17.8421L15.6346 14.1168C13.8343 12.0678 12.3613 10.3834 12.3613 10.3737C12.3613 10.3553 15.7412 1.44951 15.7602 1.41783C15.7666 1.40724 18.0667 5.20695 21.3359 10.6286C24.3966 15.7044 26.92 19.8895 26.9435 19.9287L26.9861 20L16.5834 19.9987L6.18065 19.9974L12.4845 18.9319ZM0 17.7959C0 17.7906 1.54235 15.2288 3.42745 12.1029L6.8549 6.41951L10.8492 3.21219C13.0461 1.44816 14.8494 0.00270861 14.8566 7.246e-05C14.8639 -0.00256317 14.835 0.0670328 14.7924 0.154731C14.7499 0.242429 12.7981 4.24803 10.4552 9.05607L6.19529 17.798L3.09765 17.8017C1.39394 17.8037 0 17.8011 0 17.7959Z" fill="white"/>
</mask>
<g mask="url(#mask0_94_110)">
<path d="M12.4845 18.9319C15.9515 18.3459 18.8152 17.861 18.8481 17.8543L18.9079 17.8421L15.6346 14.1168C13.8343 12.0678 12.3613 10.3834 12.3613 10.3737C12.3613 10.3553 15.7412 1.44951 15.7602 1.41783C15.7666 1.40724 18.0667 5.20695 21.3359 10.6286C24.3966 15.7044 26.92 19.8895 26.9435 19.9287L26.9861 20L16.5834 19.9987L6.18065 19.9974L12.4845 18.9319ZM0 17.7959C0 17.7906 1.54235 15.2288 3.42745 12.1029L6.8549 6.41951L10.8492 3.21219C13.0461 1.44816 14.8494 0.00270861 14.8566 7.246e-05C14.8639 -0.00256317 14.835 0.0670328 14.7924 0.154731C14.7499 0.242429 12.7981 4.24803 10.4552 9.05607L6.19529 17.798L3.09765 17.8017C1.39394 17.8037 0 17.8011 0 17.7959Z" fill="white"/>
<ellipse cx="13.7198" cy="13.2977" rx="15.6941" ry="13.9634" fill="#0089D6"/>
</g>
</svg>
