<svg width="330" height="200" viewBox="0 0 330 200" fill="none" xmlns="http://www.w3.org/2000/svg">
<g id="anime aws">
<g id="ative">
<mask id="mask0_45_73" style="mask-type:alpha" maskUnits="userSpaceOnUse" x="19" y="6" width="289" height="100">
<path id="Vector" d="M95.4017 75.1907C95.4017 79.1102 95.8195 82.2882 96.5505 84.6187C97.386 86.9492 98.4304 89.4915 99.8926 92.2458C100.415 93.0932 100.624 93.9407 100.624 94.6822C100.624 95.7415 99.997 96.8009 98.6393 97.8602L92.0597 102.309C91.1197 102.945 90.1798 103.263 89.3443 103.263C88.2999 103.263 87.2555 102.733 86.2111 101.78C84.749 100.191 83.4957 98.4958 82.4513 96.8009C81.4069 95 80.3626 92.9873 79.2137 90.5509C71.0675 100.297 60.8325 105.17 48.5088 105.17C39.7359 105.17 32.7385 102.627 27.621 97.5424C22.5035 92.4576 19.8926 85.678 19.8926 77.2034C19.8926 68.1992 23.0257 60.8899 29.3965 55.3814C35.7673 49.8729 44.2268 47.1187 54.984 47.1187C58.5349 47.1187 62.1902 47.4365 66.0545 47.9661C69.9187 48.4958 73.8874 49.3432 78.0649 50.2966V42.5636C78.0649 34.5127 76.3939 28.8983 73.1563 25.6144C69.8142 22.3305 64.1746 20.7415 56.1328 20.7415C52.4774 20.7415 48.7176 21.1653 44.8534 22.1187C40.9892 23.0721 37.2294 24.2373 33.574 25.7204C31.903 26.4619 30.6498 26.8856 29.9187 27.0975C29.1876 27.3093 28.6654 27.4153 28.2477 27.4153C26.7855 27.4153 26.0545 26.356 26.0545 24.1314V18.9407C26.0545 17.2458 26.2633 15.9746 26.7855 15.2331C27.3077 14.4915 28.2477 13.75 29.7098 13.0085C33.3652 11.1017 37.7516 9.51273 42.8691 8.24154C47.9866 6.86443 53.4174 6.22883 59.1615 6.22883C71.5897 6.22883 80.6759 9.089 86.5244 14.8093C92.2686 20.5297 95.1928 29.2161 95.1928 40.8687V75.1907H95.4017ZM52.9996 91.2924C56.4461 91.2924 59.997 90.6568 63.7568 89.3856C67.5166 88.1144 70.8586 85.7839 73.6785 82.6059C75.3495 80.5932 76.6028 78.3687 77.2294 75.8263C77.856 73.2839 78.2738 70.2119 78.2738 66.6102V62.161C75.2451 61.4195 72.0075 60.7839 68.6654 60.3602C65.3234 59.9365 62.0858 59.7246 58.8482 59.7246C51.8508 59.7246 46.7333 61.1017 43.2868 63.9619C39.8404 66.8221 38.1693 70.8475 38.1693 76.1441C38.1693 81.1229 39.4226 84.8305 42.0336 87.3729C44.5401 90.0212 48.1954 91.2924 52.9996 91.2924ZM136.864 102.733C134.984 102.733 133.731 102.415 132.895 101.674C132.06 101.038 131.329 99.5551 130.702 97.5424L106.159 15.6568C105.532 13.5382 105.219 12.161 105.219 11.4195C105.219 9.72459 106.054 8.7712 107.725 8.7712H117.96C119.945 8.7712 121.302 9.089 122.034 9.83053C122.869 10.4661 123.496 11.9492 124.122 13.9619L141.668 84.089L157.96 13.9619C158.483 11.8432 159.109 10.4661 159.945 9.83053C160.78 9.19493 162.242 8.7712 164.122 8.7712H172.477C174.462 8.7712 175.819 9.089 176.655 9.83053C177.49 10.4661 178.222 11.9492 178.639 13.9619L195.141 84.9365L213.208 13.9619C213.835 11.8432 214.566 10.4661 215.297 9.83053C216.133 9.19493 217.49 8.7712 219.37 8.7712H229.083C230.754 8.7712 231.694 9.61866 231.694 11.4195C231.694 11.9492 231.59 12.4788 231.485 13.1144C231.381 13.75 231.172 14.5975 230.754 15.7627L205.584 97.6483C204.958 99.767 204.227 101.144 203.391 101.78C202.556 102.415 201.198 102.839 199.423 102.839H190.441C188.457 102.839 187.099 102.521 186.263 101.78C185.428 101.038 184.697 99.661 184.279 97.5424L168.091 29.2161L152.007 97.4365C151.485 99.5551 150.859 100.932 150.023 101.674C149.188 102.415 147.725 102.733 145.846 102.733H136.864ZM271.068 105.593C265.637 105.593 260.206 104.958 254.984 103.686C249.762 102.415 245.689 101.038 242.973 99.4492C241.302 98.4958 240.154 97.4365 239.736 96.4831C239.318 95.5297 239.109 94.4704 239.109 93.517V88.1144C239.109 85.8898 239.945 84.8305 241.511 84.8305C242.138 84.8305 242.765 84.9365 243.391 85.1483C244.018 85.3602 244.958 85.7839 246.002 86.2076C249.553 87.7966 253.417 89.0678 257.49 89.9153C261.668 90.7627 265.741 91.1865 269.919 91.1865C276.498 91.1865 281.616 90.0212 285.167 87.6907C288.718 85.3602 290.598 81.9704 290.598 77.6271C290.598 74.661 289.658 72.2246 287.778 70.2119C285.898 68.1992 282.347 66.3983 277.229 64.7034L262.086 59.9365C254.462 57.5 248.822 53.8983 245.376 49.1314C241.929 44.4704 240.154 39.2797 240.154 33.7712C240.154 29.3221 241.094 25.4026 242.973 22.0127C244.853 18.6229 247.36 15.6568 250.493 13.3263C253.626 10.8898 257.177 9.089 261.355 7.81782C265.532 6.54663 269.919 6.01697 274.514 6.01697C276.812 6.01697 279.214 6.1229 281.511 6.4407C283.913 6.75849 286.107 7.18222 288.3 7.60595C290.389 8.13561 292.373 8.66527 294.253 9.30087C296.133 9.93646 297.595 10.5721 298.639 11.2076C300.101 12.0551 301.146 12.9026 301.772 13.856C302.399 14.7034 302.712 15.8687 302.712 17.3517V22.3305C302.712 24.5551 301.877 25.7204 300.31 25.7204C299.475 25.7204 298.117 25.2966 296.342 24.4492C290.389 21.6949 283.705 20.3178 276.289 20.3178C270.336 20.3178 265.637 21.2712 262.399 23.2839C259.161 25.2966 257.49 28.3687 257.49 32.7119C257.49 35.678 258.535 38.2204 260.624 40.2331C262.712 42.2458 266.577 44.2585 272.112 46.0593L286.942 50.8263C294.462 53.2627 299.893 56.6526 303.13 60.9958C306.368 65.339 307.934 70.3178 307.934 75.8263C307.934 80.3814 306.994 84.5127 305.219 88.1144C303.339 91.7161 300.833 94.8941 297.595 97.4365C294.357 100.085 290.493 101.992 286.002 103.369C281.302 104.852 276.394 105.593 271.068 105.593Z" fill="white"/>
</mask>
<g mask="url(#mask0_45_73)">
<path id="Vector_2" d="M95.4017 75.1907C95.4017 79.1102 95.8195 82.2882 96.5505 84.6187C97.386 86.9492 98.4304 89.4915 99.8926 92.2458C100.415 93.0932 100.624 93.9407 100.624 94.6822C100.624 95.7415 99.997 96.8009 98.6393 97.8602L92.0597 102.309C91.1197 102.945 90.1798 103.263 89.3443 103.263C88.2999 103.263 87.2555 102.733 86.2111 101.78C84.749 100.191 83.4957 98.4958 82.4513 96.8009C81.4069 95 80.3626 92.9873 79.2137 90.5509C71.0675 100.297 60.8325 105.17 48.5088 105.17C39.7359 105.17 32.7385 102.627 27.621 97.5424C22.5035 92.4576 19.8926 85.678 19.8926 77.2034C19.8926 68.1992 23.0257 60.8899 29.3965 55.3814C35.7673 49.8729 44.2268 47.1187 54.984 47.1187C58.5349 47.1187 62.1902 47.4365 66.0545 47.9661C69.9187 48.4958 73.8874 49.3432 78.0649 50.2966V42.5636C78.0649 34.5127 76.3939 28.8983 73.1563 25.6144C69.8142 22.3305 64.1746 20.7415 56.1328 20.7415C52.4774 20.7415 48.7176 21.1653 44.8534 22.1187C40.9892 23.0721 37.2294 24.2373 33.574 25.7204C31.903 26.4619 30.6498 26.8856 29.9187 27.0975C29.1876 27.3093 28.6654 27.4153 28.2477 27.4153C26.7855 27.4153 26.0545 26.356 26.0545 24.1314V18.9407C26.0545 17.2458 26.2633 15.9746 26.7855 15.2331C27.3077 14.4915 28.2477 13.75 29.7098 13.0085C33.3652 11.1017 37.7516 9.51273 42.8691 8.24154C47.9866 6.86443 53.4174 6.22883 59.1615 6.22883C71.5897 6.22883 80.6759 9.089 86.5244 14.8093C92.2686 20.5297 95.1928 29.2161 95.1928 40.8687V75.1907H95.4017ZM52.9996 91.2924C56.4461 91.2924 59.997 90.6568 63.7568 89.3856C67.5166 88.1144 70.8586 85.7839 73.6785 82.6059C75.3495 80.5932 76.6028 78.3687 77.2294 75.8263C77.856 73.2839 78.2738 70.2119 78.2738 66.6102V62.161C75.2451 61.4195 72.0075 60.7839 68.6654 60.3602C65.3234 59.9365 62.0858 59.7246 58.8482 59.7246C51.8508 59.7246 46.7333 61.1017 43.2868 63.9619C39.8404 66.8221 38.1693 70.8475 38.1693 76.1441C38.1693 81.1229 39.4226 84.8305 42.0336 87.3729C44.5401 90.0212 48.1954 91.2924 52.9996 91.2924ZM136.864 102.733C134.984 102.733 133.731 102.415 132.895 101.674C132.06 101.038 131.329 99.5551 130.702 97.5424L106.159 15.6568C105.532 13.5382 105.219 12.161 105.219 11.4195C105.219 9.72459 106.054 8.7712 107.725 8.7712H117.96C119.945 8.7712 121.302 9.089 122.034 9.83053C122.869 10.4661 123.496 11.9492 124.122 13.9619L141.668 84.089L157.96 13.9619C158.483 11.8432 159.109 10.4661 159.945 9.83053C160.78 9.19493 162.242 8.7712 164.122 8.7712H172.477C174.462 8.7712 175.819 9.089 176.655 9.83053C177.49 10.4661 178.222 11.9492 178.639 13.9619L195.141 84.9365L213.208 13.9619C213.835 11.8432 214.566 10.4661 215.297 9.83053C216.133 9.19493 217.49 8.7712 219.37 8.7712H229.083C230.754 8.7712 231.694 9.61866 231.694 11.4195C231.694 11.9492 231.59 12.4788 231.485 13.1144C231.381 13.75 231.172 14.5975 230.754 15.7627L205.584 97.6483C204.958 99.767 204.227 101.144 203.391 101.78C202.556 102.415 201.198 102.839 199.423 102.839H190.441C188.457 102.839 187.099 102.521 186.263 101.78C185.428 101.038 184.697 99.661 184.279 97.5424L168.091 29.2161L152.007 97.4365C151.485 99.5551 150.859 100.932 150.023 101.674C149.188 102.415 147.725 102.733 145.846 102.733H136.864ZM271.068 105.593C265.637 105.593 260.206 104.958 254.984 103.686C249.762 102.415 245.689 101.038 242.973 99.4492C241.302 98.4958 240.154 97.4365 239.736 96.4831C239.318 95.5297 239.109 94.4704 239.109 93.517V88.1144C239.109 85.8898 239.945 84.8305 241.511 84.8305C242.138 84.8305 242.765 84.9365 243.391 85.1483C244.018 85.3602 244.958 85.7839 246.002 86.2076C249.553 87.7966 253.417 89.0678 257.49 89.9153C261.668 90.7627 265.741 91.1865 269.919 91.1865C276.498 91.1865 281.616 90.0212 285.167 87.6907C288.718 85.3602 290.598 81.9704 290.598 77.6271C290.598 74.661 289.658 72.2246 287.778 70.2119C285.898 68.1992 282.347 66.3983 277.229 64.7034L262.086 59.9365C254.462 57.5 248.822 53.8983 245.376 49.1314C241.929 44.4704 240.154 39.2797 240.154 33.7712C240.154 29.3221 241.094 25.4026 242.973 22.0127C244.853 18.6229 247.36 15.6568 250.493 13.3263C253.626 10.8898 257.177 9.089 261.355 7.81782C265.532 6.54663 269.919 6.01697 274.514 6.01697C276.812 6.01697 279.214 6.1229 281.511 6.4407C283.913 6.75849 286.107 7.18222 288.3 7.60595C290.389 8.13561 292.373 8.66527 294.253 9.30087C296.133 9.93646 297.595 10.5721 298.639 11.2076C300.101 12.0551 301.146 12.9026 301.772 13.856C302.399 14.7034 302.712 15.8687 302.712 17.3517V22.3305C302.712 24.5551 301.877 25.7204 300.31 25.7204C299.475 25.7204 298.117 25.2966 296.342 24.4492C290.389 21.6949 283.705 20.3178 276.289 20.3178C270.336 20.3178 265.637 21.2712 262.399 23.2839C259.161 25.2966 257.49 28.3687 257.49 32.7119C257.49 35.678 258.535 38.2204 260.624 40.2331C262.712 42.2458 266.577 44.2585 272.112 46.0593L286.942 50.8263C294.462 53.2627 299.893 56.6526 303.13 60.9958C306.368 65.339 307.934 70.3178 307.934 75.8263C307.934 80.3814 306.994 84.5127 305.219 88.1144C303.339 91.7161 300.833 94.8941 297.595 97.4365C294.357 100.085 290.493 101.992 286.002 103.369C281.302 104.852 276.394 105.593 271.068 105.593Z" fill="white"/>
<ellipse id="Ellipse 12" cx="164" cy="157.5" rx="164" ry="157.5" transform="matrix(-1 0 0 1 335 -109)" fill="#252F3E"/>
</g>
<mask id="mask1_45_73" style="mask-type:alpha" maskUnits="userSpaceOnUse" x="6" y="124" width="315" height="73">
<g id="seta">
<path id="Vector_3" fill-rule="evenodd" clip-rule="evenodd" d="M290.806 157.076C256.446 182.818 206.524 196.483 163.6 196.483C103.443 196.483 49.2398 173.92 8.29983 136.42C5.06223 133.453 7.98652 129.428 11.8507 131.759C56.1327 157.818 110.754 173.602 167.255 173.602C205.376 173.602 247.255 165.551 285.793 149.025C291.537 146.377 296.446 152.839 290.806 157.076Z" fill="white"/>
<path id="Vector_4" fill-rule="evenodd" clip-rule="evenodd" d="M305.114 140.551C300.728 134.831 276.081 137.797 264.906 139.174C261.564 139.598 261.041 136.631 264.07 134.407C283.705 120.424 315.976 124.449 319.736 129.11C323.496 133.877 318.691 166.61 300.31 182.288C297.49 184.725 294.775 183.453 296.028 180.275C300.206 169.788 309.501 146.165 305.114 140.551Z" fill="white"/>
</g>
</mask>
<g mask="url(#mask1_45_73)">
<g id="seta_2">
<path id="Vector_5" fill-rule="evenodd" clip-rule="evenodd" d="M290.806 157.076C256.446 182.818 206.524 196.483 163.6 196.483C103.443 196.483 49.2398 173.92 8.29983 136.42C5.06223 133.453 7.98652 129.428 11.8507 131.759C56.1327 157.818 110.754 173.602 167.255 173.602C205.376 173.602 247.255 165.551 285.793 149.025C291.537 146.377 296.446 152.839 290.806 157.076Z" fill="white"/>
<path id="Vector_6" fill-rule="evenodd" clip-rule="evenodd" d="M305.114 140.551C300.728 134.831 276.081 137.797 264.906 139.174C261.564 139.598 261.041 136.631 264.07 134.407C283.705 120.424 315.976 124.449 319.736 129.11C323.496 133.877 318.691 166.61 300.31 182.288C297.49 184.725 294.775 183.453 296.028 180.275C300.206 169.788 309.501 146.165 305.114 140.551Z" fill="white"/>
</g>
<rect id="Rectangle 5" x="-10" y="121" width="357" height="80" fill="#FF9900"/>
</g>
</g>
</g>
</svg>
