<svg width="330" height="200" viewBox="0 0 330 200" fill="none" xmlns="http://www.w3.org/2000/svg">
<mask id="mask0_6_218" style="mask-type:alpha" maskUnits="userSpaceOnUse" x="17" y="4" width="289" height="100">
<path d="M93.4015 73.1907C93.4015 77.1102 93.8193 80.2881 94.5504 82.6186C95.3859 84.9491 96.4303 87.4915 97.8924 90.2458C98.4146 91.0932 98.6235 91.9407 98.6235 92.6822C98.6235 93.7415 97.9968 94.8008 96.6391 95.8602L90.0595 100.309C89.1195 100.945 88.1796 101.263 87.3441 101.263C86.2997 101.263 85.2553 100.733 84.2109 99.7796C82.7488 98.1907 81.4955 96.4958 80.4511 94.8008C79.4068 93 78.3624 90.9873 77.2135 88.5508C69.0673 98.2966 58.8323 103.169 46.5086 103.169C37.7357 103.169 30.7383 100.627 25.6209 95.5424C20.5034 90.4576 17.8924 83.678 17.8924 75.2034C17.8924 66.1991 21.0256 58.8898 27.3963 53.3813C33.7671 47.8729 42.2266 45.1186 52.9838 45.1186C56.5347 45.1186 60.19 45.4364 64.0543 45.9661C67.9185 46.4958 71.8872 47.3432 76.0647 48.2966V40.5635C76.0647 32.5127 74.3937 26.8983 71.1561 23.6144C67.8141 20.3305 62.1744 18.7415 54.1326 18.7415C50.4772 18.7415 46.7175 19.1652 42.8532 20.1186C38.989 21.072 35.2292 22.2373 31.5739 23.7203C29.9028 24.4619 28.6496 24.8856 27.9185 25.0974C27.1874 25.3093 26.6652 25.4152 26.2475 25.4152C24.7853 25.4152 24.0543 24.3559 24.0543 22.1313V16.9407C24.0543 15.2458 24.2632 13.9746 24.7853 13.233C25.3075 12.4915 26.2475 11.75 27.7096 11.0085C31.365 9.10168 35.7514 7.5127 40.8689 6.24151C45.9864 4.86439 51.4172 4.2288 57.1613 4.2288C69.5895 4.2288 78.6757 7.08897 84.5242 12.8093C90.2684 18.5296 93.1926 27.2161 93.1926 38.8686V73.1907H93.4015ZM50.9994 89.2924C54.4459 89.2924 57.9968 88.6568 61.7566 87.3856C65.5164 86.1144 68.8585 83.7839 71.6783 80.6059C73.3493 78.5932 74.6026 76.3686 75.2292 73.8263C75.8558 71.2839 76.2736 68.2119 76.2736 64.6102V60.161C73.2449 59.4195 70.0073 58.7839 66.6652 58.3602C63.3232 57.9364 60.0856 57.7246 56.848 57.7246C49.8506 57.7246 44.7331 59.1017 41.2866 61.9619C37.8402 64.822 36.1692 68.8475 36.1692 74.1441C36.1692 79.1229 37.4224 82.8305 40.0334 85.3729C42.5399 88.0212 46.1953 89.2924 50.9994 89.2924ZM134.864 100.733C132.984 100.733 131.731 100.415 130.895 99.6737C130.059 99.0381 129.328 97.5551 128.702 95.5424L104.159 13.6568C103.532 11.5381 103.219 10.161 103.219 9.41948C103.219 7.72456 104.054 6.77117 105.725 6.77117H115.96C117.945 6.77117 119.302 7.08897 120.033 7.8305C120.869 8.46609 121.496 9.94914 122.122 11.9619L139.668 82.089L155.96 11.9619C156.482 9.84321 157.109 8.46609 157.945 7.8305C158.78 7.1949 160.242 6.77117 162.122 6.77117H170.477C172.462 6.77117 173.819 7.08897 174.655 7.8305C175.49 8.46609 176.221 9.94914 176.639 11.9619L193.14 82.9364L211.208 11.9619C211.835 9.84321 212.566 8.46609 213.297 7.8305C214.133 7.1949 215.49 6.77117 217.37 6.77117H227.083C228.754 6.77117 229.694 7.61863 229.694 9.41948C229.694 9.94914 229.59 10.4788 229.485 11.1144C229.381 11.75 229.172 12.5974 228.754 13.7627L203.584 95.6483C202.958 97.7669 202.227 99.1441 201.391 99.7796C200.556 100.415 199.198 100.839 197.422 100.839H188.441C186.456 100.839 185.099 100.521 184.263 99.7796C183.428 99.0381 182.697 97.661 182.279 95.5424L166.091 27.2161L150.007 95.4364C149.485 97.5551 148.858 98.9322 148.023 99.6737C147.187 100.415 145.725 100.733 143.845 100.733H134.864ZM269.067 103.593C263.637 103.593 258.206 102.958 252.984 101.686C247.762 100.415 243.689 99.0381 240.973 97.4491C239.302 96.4958 238.153 95.4364 237.736 94.483C237.318 93.5296 237.109 92.4703 237.109 91.5169V86.1144C237.109 83.8898 237.945 82.8305 239.511 82.8305C240.138 82.8305 240.764 82.9364 241.391 83.1483C242.018 83.3602 242.958 83.7839 244.002 84.2076C247.553 85.7966 251.417 87.0678 255.49 87.9152C259.668 88.7627 263.741 89.1864 267.918 89.1864C274.498 89.1864 279.616 88.0212 283.167 85.6907C286.717 83.3602 288.597 79.9703 288.597 75.6271C288.597 72.661 287.657 70.2246 285.777 68.2119C283.898 66.1991 280.347 64.3983 275.229 62.7034L260.086 57.9364C252.462 55.5 246.822 51.8983 243.375 47.1313C239.929 42.4703 238.153 37.2796 238.153 31.7712C238.153 27.322 239.093 23.4025 240.973 20.0127C242.853 16.6229 245.36 13.6568 248.493 11.3263C251.626 8.88982 255.177 7.08897 259.355 5.81778C263.532 4.5466 267.918 4.01694 272.514 4.01694C274.811 4.01694 277.214 4.12287 279.511 4.44067C281.913 4.75846 284.106 5.18219 286.3 5.60592C288.388 6.13558 290.373 6.66524 292.253 7.30084C294.133 7.93643 295.595 8.57202 296.639 9.20762C298.101 10.0551 299.146 10.9025 299.772 11.8559C300.399 12.7034 300.712 13.8686 300.712 15.3517V20.3305C300.712 22.5551 299.877 23.7203 298.31 23.7203C297.475 23.7203 296.117 23.2966 294.341 22.4491C288.388 19.6949 281.704 18.3178 274.289 18.3178C268.336 18.3178 263.637 19.2712 260.399 21.2839C257.161 23.2966 255.49 26.3686 255.49 30.7119C255.49 33.678 256.535 36.2203 258.623 38.233C260.712 40.2458 264.576 42.2585 270.112 44.0593L284.942 48.8263C292.462 51.2627 297.892 54.6525 301.13 58.9958C304.368 63.339 305.934 68.3178 305.934 73.8263C305.934 78.3813 304.994 82.5127 303.219 86.1144C301.339 89.7161 298.832 92.8941 295.595 95.4364C292.357 98.0847 288.493 99.9915 284.002 101.369C279.302 102.852 274.394 103.593 269.067 103.593Z" fill="white"/>
</mask>
<g mask="url(#mask0_6_218)">
<path d="M93.4015 73.1907C93.4015 77.1102 93.8193 80.2881 94.5504 82.6186C95.3859 84.9491 96.4303 87.4915 97.8924 90.2458C98.4146 91.0932 98.6235 91.9407 98.6235 92.6822C98.6235 93.7415 97.9968 94.8008 96.6391 95.8602L90.0595 100.309C89.1195 100.945 88.1796 101.263 87.3441 101.263C86.2997 101.263 85.2553 100.733 84.2109 99.7796C82.7488 98.1907 81.4955 96.4958 80.4511 94.8008C79.4068 93 78.3624 90.9873 77.2135 88.5508C69.0673 98.2966 58.8323 103.169 46.5086 103.169C37.7357 103.169 30.7383 100.627 25.6209 95.5424C20.5034 90.4576 17.8924 83.678 17.8924 75.2034C17.8924 66.1991 21.0256 58.8898 27.3963 53.3813C33.7671 47.8729 42.2266 45.1186 52.9838 45.1186C56.5347 45.1186 60.19 45.4364 64.0543 45.9661C67.9185 46.4958 71.8872 47.3432 76.0647 48.2966V40.5635C76.0647 32.5127 74.3937 26.8983 71.1561 23.6144C67.8141 20.3305 62.1744 18.7415 54.1326 18.7415C50.4772 18.7415 46.7175 19.1652 42.8532 20.1186C38.989 21.072 35.2292 22.2373 31.5739 23.7203C29.9028 24.4619 28.6496 24.8856 27.9185 25.0974C27.1874 25.3093 26.6652 25.4152 26.2475 25.4152C24.7853 25.4152 24.0543 24.3559 24.0543 22.1313V16.9407C24.0543 15.2458 24.2632 13.9746 24.7853 13.233C25.3075 12.4915 26.2475 11.75 27.7096 11.0085C31.365 9.10168 35.7514 7.5127 40.8689 6.24151C45.9864 4.86439 51.4172 4.2288 57.1613 4.2288C69.5895 4.2288 78.6757 7.08897 84.5242 12.8093C90.2684 18.5296 93.1926 27.2161 93.1926 38.8686V73.1907H93.4015ZM50.9994 89.2924C54.4459 89.2924 57.9968 88.6568 61.7566 87.3856C65.5164 86.1144 68.8585 83.7839 71.6783 80.6059C73.3493 78.5932 74.6026 76.3686 75.2292 73.8263C75.8558 71.2839 76.2736 68.2119 76.2736 64.6102V60.161C73.2449 59.4195 70.0073 58.7839 66.6652 58.3602C63.3232 57.9364 60.0856 57.7246 56.848 57.7246C49.8506 57.7246 44.7331 59.1017 41.2866 61.9619C37.8402 64.822 36.1692 68.8475 36.1692 74.1441C36.1692 79.1229 37.4224 82.8305 40.0334 85.3729C42.5399 88.0212 46.1953 89.2924 50.9994 89.2924ZM134.864 100.733C132.984 100.733 131.731 100.415 130.895 99.6737C130.059 99.0381 129.328 97.5551 128.702 95.5424L104.159 13.6568C103.532 11.5381 103.219 10.161 103.219 9.41948C103.219 7.72456 104.054 6.77117 105.725 6.77117H115.96C117.945 6.77117 119.302 7.08897 120.033 7.8305C120.869 8.46609 121.496 9.94914 122.122 11.9619L139.668 82.089L155.96 11.9619C156.482 9.84321 157.109 8.46609 157.945 7.8305C158.78 7.1949 160.242 6.77117 162.122 6.77117H170.477C172.462 6.77117 173.819 7.08897 174.655 7.8305C175.49 8.46609 176.221 9.94914 176.639 11.9619L193.14 82.9364L211.208 11.9619C211.835 9.84321 212.566 8.46609 213.297 7.8305C214.133 7.1949 215.49 6.77117 217.37 6.77117H227.083C228.754 6.77117 229.694 7.61863 229.694 9.41948C229.694 9.94914 229.59 10.4788 229.485 11.1144C229.381 11.75 229.172 12.5974 228.754 13.7627L203.584 95.6483C202.958 97.7669 202.227 99.1441 201.391 99.7796C200.556 100.415 199.198 100.839 197.422 100.839H188.441C186.456 100.839 185.099 100.521 184.263 99.7796C183.428 99.0381 182.697 97.661 182.279 95.5424L166.091 27.2161L150.007 95.4364C149.485 97.5551 148.858 98.9322 148.023 99.6737C147.187 100.415 145.725 100.733 143.845 100.733H134.864ZM269.067 103.593C263.637 103.593 258.206 102.958 252.984 101.686C247.762 100.415 243.689 99.0381 240.973 97.4491C239.302 96.4958 238.153 95.4364 237.736 94.483C237.318 93.5296 237.109 92.4703 237.109 91.5169V86.1144C237.109 83.8898 237.945 82.8305 239.511 82.8305C240.138 82.8305 240.764 82.9364 241.391 83.1483C242.018 83.3602 242.958 83.7839 244.002 84.2076C247.553 85.7966 251.417 87.0678 255.49 87.9152C259.668 88.7627 263.741 89.1864 267.918 89.1864C274.498 89.1864 279.616 88.0212 283.167 85.6907C286.717 83.3602 288.597 79.9703 288.597 75.6271C288.597 72.661 287.657 70.2246 285.777 68.2119C283.898 66.1991 280.347 64.3983 275.229 62.7034L260.086 57.9364C252.462 55.5 246.822 51.8983 243.375 47.1313C239.929 42.4703 238.153 37.2796 238.153 31.7712C238.153 27.322 239.093 23.4025 240.973 20.0127C242.853 16.6229 245.36 13.6568 248.493 11.3263C251.626 8.88982 255.177 7.08897 259.355 5.81778C263.532 4.5466 267.918 4.01694 272.514 4.01694C274.811 4.01694 277.214 4.12287 279.511 4.44067C281.913 4.75846 284.106 5.18219 286.3 5.60592C288.388 6.13558 290.373 6.66524 292.253 7.30084C294.133 7.93643 295.595 8.57202 296.639 9.20762C298.101 10.0551 299.146 10.9025 299.772 11.8559C300.399 12.7034 300.712 13.8686 300.712 15.3517V20.3305C300.712 22.5551 299.877 23.7203 298.31 23.7203C297.475 23.7203 296.117 23.2966 294.341 22.4491C288.388 19.6949 281.704 18.3178 274.289 18.3178C268.336 18.3178 263.637 19.2712 260.399 21.2839C257.161 23.2966 255.49 26.3686 255.49 30.7119C255.49 33.678 256.535 36.2203 258.623 38.233C260.712 40.2458 264.576 42.2585 270.112 44.0593L284.942 48.8263C292.462 51.2627 297.892 54.6525 301.13 58.9958C304.368 63.339 305.934 68.3178 305.934 73.8263C305.934 78.3813 304.994 82.5127 303.219 86.1144C301.339 89.7161 298.832 92.8941 295.595 95.4364C292.357 98.0847 288.493 99.9915 284.002 101.369C279.302 102.852 274.394 103.593 269.067 103.593Z" fill="white"/>
</g>
<mask id="mask1_6_218" style="mask-type:alpha" maskUnits="userSpaceOnUse" x="4" y="122" width="315" height="73">
<path fill-rule="evenodd" clip-rule="evenodd" d="M288.806 155.076C254.446 180.818 204.524 194.483 161.6 194.483C101.443 194.483 47.2397 171.919 6.29971 134.419C3.06211 131.453 5.98639 127.428 9.85062 129.758C54.1326 155.818 108.754 171.602 165.255 171.602C203.375 171.602 245.255 163.551 283.793 147.025C289.537 144.377 294.446 150.839 288.806 155.076Z" fill="white"/>
<path fill-rule="evenodd" clip-rule="evenodd" d="M303.114 138.551C298.728 132.831 274.08 135.797 262.905 137.174C259.563 137.597 259.041 134.631 262.07 132.407C281.704 118.424 313.976 122.449 317.736 127.11C321.496 131.877 316.691 164.61 298.31 180.288C295.49 182.725 292.775 181.453 294.028 178.275C298.206 167.788 307.501 144.165 303.114 138.551Z" fill="white"/>
</mask>
<g mask="url(#mask1_6_218)">
<path fill-rule="evenodd" clip-rule="evenodd" d="M288.806 155.076C254.446 180.818 204.524 194.483 161.6 194.483C101.443 194.483 47.2397 171.919 6.29971 134.419C3.06211 131.453 5.98639 127.428 9.85062 129.758C54.1326 155.818 108.754 171.602 165.255 171.602C203.375 171.602 245.255 163.551 283.793 147.025C289.537 144.377 294.446 150.839 288.806 155.076Z" fill="white"/>
<path fill-rule="evenodd" clip-rule="evenodd" d="M303.114 138.551C298.728 132.831 274.08 135.797 262.905 137.174C259.563 137.597 259.041 134.631 262.07 132.407C281.704 118.424 313.976 122.449 317.736 127.11C321.496 131.877 316.691 164.61 298.31 180.288C295.49 182.725 292.775 181.453 294.028 178.275C298.206 167.788 307.501 144.165 303.114 138.551Z" fill="white"/>
</g>
</svg>
