<svg viewBox="0 0 278 181" fill="none" xmlns="http://www.w3.org/2000/svg">
<g id="Frame 1" clip-path="url(#clip0_50_62)">
<g id="Group 5">
<g id="letra">
<path id="Path" d="M192.85 173.419C192.85 173.292 192.715 173.165 192.444 173.292C190.008 175.956 186.083 177.986 181.482 177.986C174.445 177.986 169.843 173.419 169.843 166.315C169.843 159.084 174.174 154.643 181.211 154.643C185.271 154.643 189.467 156.419 192.038 158.957C192.173 159.084 192.444 158.957 192.444 158.83V155.151C189.602 152.74 185.407 151.218 181.211 151.218C176.881 151.218 172.956 152.74 170.385 155.405C167.813 158.069 166.325 161.874 166.325 166.315C166.325 175.322 172.415 181.411 181.347 181.411C185.677 181.411 189.873 179.889 192.715 177.351V173.419H192.85Z" fill="white"/>
<path id="Vector" d="M0 151.979V155.151H10.556V180.65H14.21V155.151H24.9013V151.979H0Z" fill="white"/>
<path id="Shape" d="M274.05 161.748C272.155 159.845 268.907 159.083 266.742 159.083C263.629 159.083 260.923 160.098 259.028 162.128C256.998 164.031 256.051 166.949 256.051 170.12C256.051 177.732 261.464 181.157 266.877 181.157C269.99 181.157 272.561 180.142 274.185 178.239V180.65H277.839V151.852H274.05V161.748ZM274.05 170.12C274.05 174.053 271.614 177.986 267.013 177.986C263.494 177.986 259.705 175.575 259.705 170.247C259.705 166.315 261.87 162.128 266.742 162.128C272.155 162.255 274.05 166.441 274.05 170.12Z" fill="white"/>
<path id="Rectangle" d="M201.376 152.106H197.722V180.777H201.376V152.106Z" fill="white"/>
<path id="Vector_2" d="M90.8087 175.322C90.8087 175.195 90.6733 175.068 90.4027 175.195C87.9667 177.225 84.448 177.986 82.9593 177.986C78.0873 177.986 74.8393 174.941 74.8393 170.12C74.8393 165.3 78.0873 162.255 82.9593 162.255C84.448 162.255 87.8313 162.636 90.4027 164.665C90.538 164.792 90.6733 164.665 90.6733 164.539V161.367C89.1847 160.479 85.9367 159.083 82.6887 159.083C75.922 159.083 71.3207 163.524 71.3207 170.12C71.3207 176.717 75.922 181.157 82.6887 181.157C85.5307 181.157 88.2373 180.396 90.6733 178.874L90.8087 175.322Z" fill="white"/>
<path id="Vector_3" d="M42.7653 174.687C42.7653 174.561 42.4947 174.434 42.3593 174.561C40.7353 176.463 36.8107 178.239 34.51 178.239C32.2093 178.239 30.044 177.605 28.9613 176.337C27.608 174.941 26.796 173.038 26.796 171.135H43.9833V170.882C43.9833 166.315 43.1713 163.777 41.006 161.748C39.2467 160.098 36.8107 159.083 33.8333 159.083C27.4727 159.083 23.2773 163.397 23.2773 169.994C23.4127 176.844 27.7433 181.03 34.51 181.03C37.758 181.03 40.4647 180.016 43.036 177.986L42.7653 174.687ZM40.3293 168.217H26.6607V168.091C26.796 166.315 27.608 164.792 29.0967 163.524C30.3147 162.636 31.9387 162.128 33.4273 162.128C37.6227 162.128 40.194 164.412 40.3293 168.217Z" fill="white"/>
<path id="Vector_4" d="M248.201 170.374C248.201 176.083 244.683 178.113 241.57 178.113C238.728 178.113 235.48 176.21 235.48 172.658V159.718H232.097V172.658C232.097 177.732 235.886 181.284 241.435 181.284C244.547 181.284 246.848 180.396 248.472 178.493V180.777H251.72V159.718H248.337L248.201 170.374Z" fill="white"/>
<path id="Vector_5" d="M58.3287 159.083C55.4867 159.083 53.186 159.972 51.562 161.621V159.718H48.0433V180.65H51.562V168.598C51.562 166.695 52.2387 164.919 53.3213 163.777C54.6747 162.636 56.1633 162.128 58.058 162.128C60.9 162.255 63.6067 163.904 63.6067 167.583V180.396H67.2607V167.583C67.2607 164.919 66.3133 162.762 64.6893 161.367C63.2007 159.845 60.9 159.083 58.3287 159.083Z" fill="white"/>
<path id="Vector_6" d="M113.951 174.687C113.951 174.561 113.68 174.434 113.545 174.561C111.921 176.463 107.996 178.239 105.695 178.239C103.395 178.239 101.229 177.605 100.147 176.337C98.7933 174.941 97.9813 173.038 97.9813 171.135H115.169V170.882C115.169 166.315 114.357 163.777 112.191 161.748C110.297 160.098 107.861 159.083 104.883 159.083C98.5226 159.083 94.3273 163.397 94.3273 169.994C94.4626 176.844 98.7933 181.03 105.56 181.03C108.808 181.03 111.515 180.016 114.086 177.986L113.951 174.687ZM111.515 168.217H97.8459V168.091C97.9813 166.315 98.7933 164.792 100.282 163.524C101.5 162.636 103.124 162.128 104.613 162.128C108.673 162.128 111.244 164.412 111.515 168.217Z" fill="white"/>
<path id="Vector_7" d="M129.379 159.083C126.537 159.083 124.236 159.972 122.612 161.621V159.718H119.093V180.65H122.477V168.598C122.477 166.695 123.153 164.919 124.236 163.777C125.589 162.636 127.078 162.128 128.973 162.128C131.815 162.255 134.521 163.904 134.521 167.583V180.396H138.04V167.583C138.04 164.919 137.093 162.762 135.469 161.367C134.251 159.845 132.085 159.083 129.379 159.083Z" fill="white"/>
<path id="Vector_8" d="M149.949 180.904C152.115 180.777 154.551 180.016 154.551 180.016V176.844C154.551 176.717 154.415 176.59 154.28 176.717C153.333 176.971 151.438 177.605 150.491 177.605C150.085 177.732 149.814 177.732 149.543 177.478C149.408 177.351 149.408 177.225 149.408 176.844V162.762H155.904V159.718H149.408V154.009H145.754V159.591H142.1V162.636H145.754V177.098C145.754 178.366 146.16 179.381 146.972 180.016C147.649 180.65 148.731 180.904 149.949 180.904Z" fill="white"/>
<path id="Vector_9" d="M217.21 159.083C210.714 159.083 206.383 163.524 206.383 170.12C206.383 176.59 210.714 181.157 217.21 181.157C223.706 181.157 228.037 176.717 228.037 170.12C228.172 163.65 223.706 159.083 217.21 159.083ZM209.631 170.12C209.631 165.427 212.609 162.382 217.075 162.382C221.541 162.382 224.518 165.553 224.518 170.247C224.518 174.941 221.541 178.113 217.075 178.113C212.744 177.986 209.631 174.814 209.631 170.12Z" fill="white"/>
</g>
<g id="logo">
<mask id="mask0_50_62" style="mask-type:alpha" maskUnits="userSpaceOnUse" x="42" y="47" width="91" height="84">
<path id="Vector_10" d="M113.95 55.8188C105.966 50.237 97.0338 47.0654 87.0191 47.0654C74.4331 47.0654 63.2005 51.8861 55.0805 59.7515C37.7578 76.3703 37.8931 103.011 55.7571 119.376C62.9298 125.973 71.5911 129.525 80.7938 130.794L98.1165 114.936C95.2745 114.936 91.3498 114.809 87.6958 114.809C77.5458 114.555 71.4558 110.876 68.0725 107.578C57.2458 97.6829 56.9751 81.4447 67.5311 71.4227C72.4031 66.7289 79.4405 63.8111 87.0191 63.8111C91.7558 63.8111 98.2518 65.0797 105.56 70.7884C109.078 73.4525 116.792 79.9224 120.176 82.7133C120.311 82.8402 120.582 82.8402 120.717 82.7133L132.762 71.6764C132.897 71.5496 132.897 71.169 132.762 71.169C126.942 65.9677 118.822 59.2441 113.95 55.8188Z" fill="white"/>
</mask>
<g mask="url(#mask0_50_62)">
<path id="Vector_11" d="M113.95 55.8188C105.966 50.237 97.0338 47.0654 87.0191 47.0654C74.4331 47.0654 63.2005 51.8861 55.0805 59.7515C37.7578 76.3703 37.8931 103.011 55.7571 119.376C62.9298 125.973 71.5911 129.525 80.7938 130.794L98.1165 114.936C95.2745 114.936 91.3498 114.809 87.6958 114.809C77.5458 114.555 71.4558 110.876 68.0725 107.578C57.2458 97.6829 56.9751 81.4447 67.5311 71.4227C72.4031 66.7289 79.4405 63.8111 87.0191 63.8111C91.7558 63.8111 98.2518 65.0797 105.56 70.7884C109.078 73.4525 116.792 79.9224 120.176 82.7133C120.311 82.8402 120.582 82.8402 120.717 82.7133L132.762 71.6764C132.897 71.5496 132.897 71.169 132.762 71.169C126.942 65.9677 118.822 59.2441 113.95 55.8188Z" fill="white"/>
<g id="Ellipse 8">
<ellipse cx="75.9999" cy="90" rx="64" ry="47" fill="#00C4D6"/>
<ellipse cx="75.9999" cy="90" rx="64" ry="47" fill="#00C4D6"/>
</g>
</g>
<mask id="mask1_50_62" style="mask-type:alpha" maskUnits="userSpaceOnUse" x="79" y="0" width="117" height="49">
<path id="Vector_12" d="M195.827 37.6777C187.437 15.7307 165.107 0 138.987 0C108.808 0 83.9066 20.6783 79.4406 47.5728C81.8766 47.1922 84.3126 47.0654 86.8839 47.0654C90.5379 47.0654 93.9212 47.446 97.0339 48.2071C97.1692 48.2071 97.1692 48.2071 97.1692 48.2071C101.229 30.066 118.417 16.4919 138.852 16.4919C155.904 16.4919 170.791 26.1333 177.557 39.7074C177.693 39.8343 177.828 39.9612 178.099 39.9612C183.241 38.6926 189.196 37.9314 195.151 38.312C195.692 38.4388 195.827 38.1851 195.827 37.6777Z" fill="white"/>
</mask>
<g mask="url(#mask1_50_62)">
<path id="Vector_13" d="M195.827 37.6777C187.437 15.7307 165.107 0 138.987 0C108.808 0 83.9066 20.6783 79.4406 47.5728C81.8766 47.1922 84.3126 47.0654 86.8839 47.0654C90.5379 47.0654 93.9212 47.446 97.0339 48.2071C97.1692 48.2071 97.1692 48.2071 97.1692 48.2071C101.229 30.066 118.417 16.4919 138.852 16.4919C155.904 16.4919 170.791 26.1333 177.557 39.7074C177.693 39.8343 177.828 39.9612 178.099 39.9612C183.241 38.6926 189.196 37.9314 195.151 38.312C195.692 38.4388 195.827 38.1851 195.827 37.6777Z" fill="white" fill-opacity="0.6"/>
<ellipse id="Ellipse 9" cx="133" cy="29" rx="80" ry="36" fill="#006EFF"/>
</g>
<mask id="mask2_50_62" style="mask-type:alpha" maskUnits="userSpaceOnUse" x="80" y="47" width="156" height="85">
<path id="Vector_14" d="M223.029 59.7515C214.909 52.013 203.677 47.0654 191.091 47.0654C180.264 47.0654 170.926 50.6175 162.671 56.8337C159.017 59.4978 155.363 62.6693 150.626 66.9826C148.19 69.0124 80.6586 130.667 80.6586 130.667C84.3126 131.174 89.0492 131.174 93.5152 131.301C97.5752 131.301 175.392 131.301 178.64 131.301C185.136 131.301 189.467 131.301 194.068 131.047C204.624 130.286 214.503 126.734 222.488 119.376C240.217 103.011 240.487 76.3703 223.029 59.7515ZM210.037 107.578C206.519 110.75 200.429 114.429 190.414 114.809C185.677 114.936 180.264 114.936 177.693 114.936H123.424C143.047 97.0486 160.37 81.3179 162.265 79.5418C164.024 77.8926 168.084 74.3405 171.603 71.4227C179.317 65.0797 186.083 63.6842 190.955 63.8111C198.534 63.9379 205.436 66.8557 210.443 71.4227C220.999 81.4447 220.864 97.6829 210.037 107.578Z" fill="white"/>
</mask>
<g mask="url(#mask2_50_62)">
<path id="Vector_15" d="M223.029 59.7515C214.909 52.013 203.677 47.0654 191.091 47.0654C180.264 47.0654 170.926 50.6175 162.671 56.8337C159.017 59.4978 155.363 62.6693 150.626 66.9826C148.19 69.0124 80.6586 130.667 80.6586 130.667C84.3126 131.174 89.0492 131.174 93.5152 131.301C97.5752 131.301 175.392 131.301 178.64 131.301C185.136 131.301 189.467 131.301 194.068 131.047C204.624 130.286 214.503 126.734 222.488 119.376C240.217 103.011 240.487 76.3703 223.029 59.7515ZM210.037 107.578C206.519 110.75 200.429 114.429 190.414 114.809C185.677 114.936 180.264 114.936 177.693 114.936H123.424C143.047 97.0486 160.37 81.3179 162.265 79.5418C164.024 77.8926 168.084 74.3405 171.603 71.4227C179.317 65.0797 186.083 63.6842 190.955 63.8111C198.534 63.9379 205.436 66.8557 210.443 71.4227C220.999 81.4447 220.864 97.6829 210.037 107.578Z" fill="white" fill-opacity="0.6"/>
<ellipse id="Ellipse 10" cx="157" cy="97" rx="93" ry="62" fill="#00A1FF"/>
</g>
</g>
</g>
</g>
<defs>
<clipPath id="clip0_50_62">
<rect width="278" height="181" fill="white"/>
</clipPath>
</defs>
</svg>
