<svg width="809" height="618" viewBox="0 0 809 618" fill="none" xmlns="http://www.w3.org/2000/svg">
<g clip-path="url(#clip0_12_152)">
<path d="M726.755 57.658H314.755C312.546 57.658 310.755 59.4489 310.755 61.658V613.658C310.755 615.867 312.546 617.658 314.755 617.658H726.755C728.964 617.658 730.755 615.867 730.755 613.658V61.658C730.755 59.4489 728.964 57.658 726.755 57.658Z" fill="white"/>
<path d="M726.755 617.658H314.755C313.694 617.657 312.678 617.235 311.928 616.485C311.178 615.735 310.756 614.718 310.755 613.658V61.6578C310.756 60.5973 311.178 59.5806 311.928 58.8307C312.678 58.0809 313.694 57.659 314.755 57.6578H726.755C727.815 57.659 728.832 58.0809 729.582 58.8307C730.332 59.5806 730.754 60.5973 730.755 61.6578V613.658C730.754 614.718 730.332 615.735 729.582 616.485C728.832 617.235 727.815 617.657 726.755 617.658ZM314.755 59.6578C314.225 59.6584 313.716 59.8693 313.341 60.2442C312.966 60.6192 312.755 61.1276 312.755 61.6578V613.658C312.755 614.188 312.966 614.696 313.341 615.071C313.716 615.446 314.225 615.657 314.755 615.658H726.755C727.285 615.657 727.794 615.446 728.168 615.071C728.543 614.696 728.754 614.188 728.755 613.658V61.6578C728.754 61.1276 728.543 60.6192 728.168 60.2442C727.794 59.8693 727.285 59.6584 726.755 59.6578H314.755Z" fill="#CACACA"/>
<path d="M667.752 183.03H373.752C371.763 183.03 369.855 182.24 368.449 180.833C367.042 179.427 366.252 177.519 366.252 175.53C366.252 173.541 367.042 171.633 368.449 170.227C369.855 168.82 371.763 168.03 373.752 168.03H667.752C669.741 168.03 671.649 168.82 673.055 170.227C674.462 171.633 675.252 173.541 675.252 175.53C675.252 177.519 674.462 179.427 673.055 180.833C671.649 182.24 669.741 183.03 667.752 183.03Z" fill="#E6E6E6"/>
<path d="M667.752 231.53H373.752C371.763 231.53 369.855 230.74 368.449 229.333C367.042 227.927 366.252 226.019 366.252 224.03C366.252 222.041 367.042 220.133 368.449 218.727C369.855 217.32 371.763 216.53 373.752 216.53H667.752C669.741 216.53 671.649 217.32 673.055 218.727C674.462 220.133 675.252 222.041 675.252 224.03C675.252 226.019 674.462 227.927 673.055 229.333C671.649 230.74 669.741 231.53 667.752 231.53Z" fill="#E6E6E6"/>
<path d="M667.752 280.03H373.752C371.763 280.03 369.855 279.24 368.449 277.833C367.042 276.427 366.252 274.519 366.252 272.53C366.252 270.541 367.042 268.633 368.449 267.227C369.855 265.82 371.763 265.03 373.752 265.03H667.752C669.741 265.03 671.649 265.82 673.055 267.227C674.462 268.633 675.252 270.541 675.252 272.53C675.252 274.519 674.462 276.427 673.055 277.833C671.649 279.24 669.741 280.03 667.752 280.03Z" fill="#E6E6E6"/>
<path d="M667.752 328.53H373.752C371.763 328.53 369.855 327.74 368.449 326.333C367.042 324.927 366.252 323.019 366.252 321.03C366.252 319.041 367.042 317.133 368.449 315.727C369.855 314.32 371.763 313.53 373.752 313.53H667.752C669.741 313.53 671.649 314.32 673.055 315.727C674.462 317.133 675.252 319.041 675.252 321.03C675.252 323.019 674.462 324.927 673.055 326.333C671.649 327.74 669.741 328.53 667.752 328.53Z" fill="#E6E6E6"/>
<path d="M667.752 377.03H373.752C371.763 377.03 369.855 376.24 368.449 374.833C367.042 373.427 366.252 371.519 366.252 369.53C366.252 367.541 367.042 365.633 368.449 364.227C369.855 362.82 371.763 362.03 373.752 362.03H667.752C669.741 362.03 671.649 362.82 673.055 364.227C674.462 365.633 675.252 367.541 675.252 369.53C675.252 371.519 674.462 373.427 673.055 374.833C671.649 376.24 669.741 377.03 667.752 377.03Z" fill="#E6E6E6"/>
<path d="M373.351 276.505C373.171 277.131 373.041 277.77 372.962 278.416L320.851 304.719L308.975 296.969L294.937 313.363L314.628 329.126C316.218 330.399 318.179 331.122 320.216 331.186C322.253 331.25 324.255 330.652 325.923 329.481L380.274 291.322C382.575 292.323 385.126 292.6 387.588 292.116C390.05 291.631 392.306 290.409 394.056 288.611C395.806 286.814 396.968 284.526 397.386 282.052C397.804 279.578 397.459 277.035 396.397 274.762C395.335 272.489 393.606 270.593 391.44 269.327C389.274 268.06 386.774 267.483 384.272 267.673C381.77 267.862 379.385 268.808 377.434 270.386C375.483 271.963 374.059 274.098 373.351 276.505Z" fill="#B68282"/>
<path d="M319.143 305.712L301.868 326.138C301.376 326.719 300.765 327.187 300.076 327.511C299.388 327.835 298.637 328.006 297.876 328.014C297.115 328.021 296.361 327.864 295.666 327.554C294.971 327.244 294.351 326.788 293.848 326.217L276.228 306.196C273.268 303.665 271.432 300.063 271.124 296.18C270.816 292.297 272.06 288.451 274.584 285.484C277.108 282.517 280.705 280.673 284.587 280.355C288.47 280.037 292.319 281.272 295.292 283.789L317.889 297.79C318.536 298.192 319.089 298.727 319.51 299.361C319.931 299.995 320.211 300.713 320.33 301.464C320.449 302.216 320.404 302.985 320.199 303.718C319.995 304.451 319.634 305.131 319.143 305.712Z" fill="#6C63FF"/>
<path d="M254.098 605.118H266.358L272.19 557.83H254.096L254.098 605.118Z" fill="#B68282"/>
<path d="M250.97 601.115L275.115 601.114C279.195 601.115 283.11 602.736 285.995 605.621C288.881 608.507 290.502 612.42 290.502 616.501V617.001L250.971 617.002L250.97 601.115Z" fill="#2F2E41"/>
<path d="M251.336 473.432L254.822 485.185L301.817 477.332L296.671 459.985L251.336 473.432Z" fill="#B68282"/>
<path d="M254.284 469.295L261.15 492.443C262.31 496.355 261.869 500.569 259.923 504.156C257.977 507.742 254.686 510.409 250.774 511.57L250.294 511.712L239.053 473.813L254.284 469.295Z" fill="#2F2E41"/>
<path d="M670.276 486.087H475.227C472.479 486.087 470.251 482.729 470.251 478.587C470.251 474.445 472.479 471.087 475.227 471.087H670.276C673.024 471.087 675.252 474.445 675.252 478.587C675.252 482.729 673.024 486.087 670.276 486.087Z" fill="#E6E6E6"/>
<path d="M670.276 529.087H475.227C472.479 529.087 470.251 525.729 470.251 521.587C470.251 517.445 472.479 514.087 475.227 514.087H670.276C673.024 514.087 675.252 517.445 675.252 521.587C675.252 525.729 673.024 529.087 670.276 529.087Z" fill="#E6E6E6"/>
<path d="M730.755 115.318C762.599 115.318 788.414 89.5032 788.414 57.659C788.414 25.8148 762.599 0 730.755 0C698.911 0 673.096 25.8148 673.096 57.659C673.096 89.5032 698.911 115.318 730.755 115.318Z" fill="#E0435D"/>
<path d="M706.731 53.853C705.722 53.853 704.754 54.2539 704.04 54.9675C703.327 55.681 702.926 56.6488 702.926 57.658C702.926 58.6671 703.327 59.635 704.04 60.3485C704.754 61.0621 705.722 61.463 706.731 61.463H726.951V81.682C726.953 82.6895 727.355 83.6549 728.068 84.3665C728.782 85.0781 729.748 85.4778 730.755 85.4778C731.763 85.4778 732.729 85.0781 733.443 84.3665C734.156 83.6549 734.558 82.6895 734.56 81.682V61.463H754.78C755.789 61.463 756.757 61.0621 757.471 60.3485C758.184 59.635 758.585 58.6671 758.585 57.658C758.585 56.6488 758.184 55.681 757.471 54.9675C756.757 54.2539 755.789 53.853 754.78 53.853H734.56V33.633C734.56 32.624 734.159 31.6563 733.446 30.9428C732.732 30.2293 731.765 29.8285 730.755 29.8285C729.746 29.8285 728.779 30.2293 728.065 30.9428C727.352 31.6563 726.951 32.624 726.951 33.633V53.853H706.731Z" fill="white"/>
<path d="M377.99 449.249C376.221 452.198 373.723 454.643 370.736 456.349C367.75 458.055 364.375 458.964 360.936 458.99L287.252 482.579L283.883 463.038L328.5 438.829L285.273 407.696L316.943 370.636L374.465 424.249C377.826 427.382 380.01 431.575 380.652 436.125C381.294 440.676 380.354 445.308 377.99 449.249Z" fill="#2F2E41"/>
<path d="M271.122 582.888H252.929C236.594 470.919 219.967 358.638 269.101 316.728L327.05 326.162L319.638 375.351L287.295 412.411L271.122 582.888Z" fill="#2F2E41"/>
<path d="M323.507 346.449C298.981 363.162 267.299 359.232 254.075 334.329C273.075 302.329 277.075 279.329 261.78 268.829C259.329 260.089 260.243 250.748 264.343 242.65C268.443 234.552 275.43 228.285 283.925 225.087L312.899 237.216C337.499 257.27 342.344 278.992 333.114 301.903L323.507 346.449Z" fill="#6C63FF"/>
<path d="M809 615.658H0V617.658H809V615.658Z" fill="#CACACA"/>
<path d="M153.341 570.056C157.062 571.364 161.056 571.692 164.94 571.007C168.824 570.323 172.466 568.65 175.516 566.15C183.283 559.631 185.716 548.891 187.699 538.95L193.559 509.536L181.291 517.981C172.468 524.057 163.445 530.327 157.336 539.127C151.227 547.927 148.56 559.94 153.469 569.462" fill="#E0D716"/>
<path d="M155.236 607.713C153.688 596.462 152.103 585.068 153.188 573.695C154.15 563.595 157.231 553.732 163.504 545.644C166.833 541.359 170.885 537.688 175.476 534.795C176.676 534.039 177.776 535.937 176.583 536.689C168.639 541.71 162.495 549.123 159.036 557.861C155.216 567.578 154.602 578.17 155.261 588.493C155.661 594.735 156.503 600.937 157.353 607.13C157.42 607.41 157.378 607.705 157.236 607.956C157.094 608.206 156.862 608.393 156.587 608.479C156.307 608.555 156.007 608.518 155.754 608.374C155.502 608.231 155.316 607.993 155.238 607.713H155.236Z" fill="#2F2E41"/>
<path d="M56.823 590.907C58.7179 593.145 61.1574 594.858 63.9063 595.88C66.6553 596.902 69.6211 597.198 72.518 596.741C79.952 595.48 85.554 589.506 90.565 583.872L105.39 567.207L94.341 568.012C86.396 568.591 78.249 569.22 71.02 572.568C63.791 575.916 57.562 582.619 57.13 590.574" fill="#E0D716"/>
<path d="M44.103 614.147C46.708 607.877 49.335 601.519 53.332 595.982C56.7606 590.965 61.5473 587.028 67.1319 584.633C70.1448 583.43 73.3444 582.762 76.587 582.658C77.433 582.63 77.428 583.942 76.587 583.97C70.9713 584.157 65.5603 586.123 61.134 589.584C56.225 593.441 52.706 598.718 49.924 604.241C48.242 607.581 46.802 611.035 45.368 614.486C45.3179 614.65 45.2076 614.789 45.0592 614.875C44.9107 614.961 44.7352 614.988 44.5679 614.95C44.4004 614.904 44.2576 614.794 44.1705 614.644C44.0835 614.494 44.0592 614.315 44.103 614.147Z" fill="#2F2E41"/>
<path d="M166.351 589.661C167.947 592.086 170.14 594.059 172.72 595.391C175.3 596.722 178.179 597.366 181.08 597.261C188.536 596.907 194.752 591.703 200.347 586.761L216.897 572.149L205.944 571.625C198.067 571.248 189.987 570.896 182.484 573.325C174.981 575.754 168.062 581.6 166.69 589.366" fill="#E0D716"/>
<path d="M150.87 614.181C158.304 601.026 166.928 586.406 182.336 581.733C186.62 580.438 191.113 579.974 195.571 580.366C196.976 580.487 196.625 582.653 195.223 582.532C187.75 581.912 180.291 583.885 174.102 588.12C168.147 592.174 163.51 597.809 159.585 603.786C157.185 607.447 155.028 611.263 152.874 615.074C152.186 616.292 150.174 615.413 150.87 614.181Z" fill="#2F2E41"/>
<path d="M789.622 593.679C786.751 594.688 783.668 594.941 780.671 594.413C777.674 593.885 774.863 592.594 772.51 590.665C766.516 585.634 764.637 577.346 763.11 569.672L758.587 546.972L768.056 553.492C774.865 558.181 781.828 563.019 786.542 569.81C791.256 576.601 793.315 585.872 789.527 593.22" fill="#E0D716"/>
<path d="M787.008 615.225C787.841 609.158 788.697 603.013 788.113 596.882C787.733 591.414 785.804 586.167 782.55 581.756C780.755 579.445 778.57 577.466 776.094 575.906C775.448 575.499 774.854 576.522 775.494 576.927C779.778 579.634 783.091 583.632 784.956 588.344C787.016 593.584 787.347 599.295 786.992 604.861C786.777 608.227 786.322 611.571 785.864 614.91C785.828 615.061 785.851 615.22 785.927 615.355C786.004 615.49 786.129 615.591 786.277 615.637C786.428 615.677 786.589 615.655 786.725 615.578C786.861 615.501 786.961 615.374 787.005 615.224L787.008 615.225Z" fill="#2F2E41"/>
<path d="M232.97 366.196C234.5 365.841 235.933 365.154 237.169 364.185C238.405 363.216 239.413 361.988 240.123 360.587C240.833 359.186 241.227 357.646 241.277 356.076C241.327 354.507 241.033 352.945 240.415 351.501L280.017 262.029L257.362 256.323L225.558 346.066C223.202 347.265 221.367 349.288 220.403 351.749C219.438 354.211 219.409 356.941 220.323 359.423C221.237 361.904 223.029 363.964 225.36 365.212C227.69 366.461 230.398 366.811 232.97 366.196Z" fill="#B68282"/>
<path d="M274.656 278.031L252.622 267.717C251.995 267.424 251.439 266.999 250.991 266.471C250.544 265.943 250.215 265.325 250.027 264.658C249.84 263.992 249.799 263.293 249.906 262.609C250.013 261.926 250.266 261.273 250.648 260.696L264.039 240.473C265.56 237.276 268.286 234.813 271.619 233.622C274.953 232.432 278.623 232.611 281.825 234.121C285.027 235.631 287.5 238.349 288.701 241.679C289.903 245.009 289.736 248.679 288.237 251.886L281.312 275.049C281.114 275.712 280.775 276.325 280.318 276.845C279.862 277.366 279.299 277.781 278.667 278.064C278.035 278.347 277.35 278.491 276.658 278.485C275.965 278.479 275.283 278.324 274.656 278.031Z" fill="#6C63FF"/>
<path d="M323.53 218.499H265.53C264.336 218.498 263.193 218.023 262.349 217.18C261.505 216.336 261.031 215.192 261.03 213.999V188.999C261.03 180.115 264.559 171.594 270.841 165.311C277.124 159.029 285.645 155.499 294.53 155.499C303.414 155.499 311.935 159.029 318.218 165.311C324.5 171.594 328.03 180.115 328.03 188.999V213.999C328.028 215.192 327.554 216.336 326.71 217.18C325.866 218.023 324.723 218.498 323.53 218.499Z" fill="#2F2E41"/>
<path d="M302.797 218.119C316.362 218.119 327.358 207.123 327.358 193.558C327.358 179.994 316.362 168.997 302.797 168.997C289.233 168.997 278.236 179.994 278.236 193.558C278.236 207.123 289.233 218.119 302.797 218.119Z" fill="#B68282"/>
<path d="M335.955 191.499H300.489L300.125 186.407L298.307 191.499H292.846L292.125 181.407L288.521 191.499H277.955V190.999C277.963 183.973 280.757 177.238 285.725 172.27C290.693 167.302 297.429 164.507 304.455 164.499H309.455C316.481 164.507 323.216 167.302 328.184 172.27C333.152 177.238 335.947 183.973 335.955 190.999V191.499Z" fill="#2F2E41"/>
</g>
<defs>
<clipPath id="clip0_12_152">
<rect width="809" height="617.658" fill="white"/>
</clipPath>
</defs>
</svg>
