<svg width="460" height="364" viewBox="0 0 460 364" fill="none" xmlns="http://www.w3.org/2000/svg">
<g clip-path="url(#clip0_7_104)">
<path d="M371.455 296H90.5449C86.9538 295.992 83.511 293.203 80.9717 288.246C78.4324 283.288 77.004 276.566 77 269.555V61.4449C77.0041 54.4337 78.4324 47.712 80.9717 42.7543C83.511 37.7967 86.9538 35.008 90.5449 35H371.455C375.046 35.008 378.489 37.7967 381.028 42.7543C383.568 47.712 384.996 54.4337 385 61.4449V269.555C384.996 276.566 383.568 283.288 381.028 288.246C378.489 293.203 375.046 295.992 371.455 296Z" fill="white"/>
<path d="M371.455 296H90.5449C86.9538 295.992 83.511 293.203 80.9717 288.246C78.4324 283.288 77.004 276.566 77 269.555V61.4449C77.0041 54.4337 78.4324 47.712 80.9717 42.7543C83.511 37.7967 86.9538 35.008 90.5449 35H371.455C375.046 35.008 378.489 37.7967 381.028 42.7543C383.568 47.712 384.996 54.4337 385 61.4449V269.555C384.996 276.566 383.568 283.288 381.028 288.246C378.489 293.203 375.046 295.992 371.455 296ZM90.5449 37.2995C87.265 37.2995 84.1193 39.8434 81.8001 44.3716C79.4808 48.8997 78.1778 55.0412 78.1778 61.4449V269.555C78.1778 272.726 78.4977 275.866 79.1192 278.795C79.7407 281.725 80.6517 284.386 81.8001 286.628C82.9484 288.871 84.3118 290.649 85.8122 291.862C87.3127 293.076 88.9209 293.7 90.5449 293.7H371.455C373.079 293.7 374.687 293.076 376.188 291.862C377.688 290.649 379.052 288.871 380.2 286.628C381.348 284.386 382.259 281.725 382.881 278.795C383.502 275.866 383.822 272.726 383.822 269.555V191.086C383.822 150.3 375.523 111.183 360.751 82.3427C345.979 53.5021 325.944 37.2996 305.054 37.2995H90.5449Z" fill="#E6E6E6"/>
<path d="M73.203 331.073C73.4276 329.529 71.8105 328.015 69.591 327.692C67.3715 327.369 65.3901 328.359 65.1654 329.903C64.9408 331.447 66.5579 332.961 68.7774 333.284C70.997 333.606 72.9783 332.617 73.203 331.073Z" fill="white"/>
<path d="M99.6288 328.494C99.8534 326.95 98.2363 325.437 96.0168 325.114C93.7972 324.791 91.8159 325.781 91.5912 327.325C91.3666 328.869 92.9837 330.382 95.2032 330.705C97.4227 331.028 99.4041 330.038 99.6288 328.494Z" fill="#3F3D56"/>
<path d="M65.9669 309.679C66.1916 308.135 64.5744 306.621 62.3549 306.299C60.1354 305.976 58.154 306.966 57.9293 308.51C57.7047 310.054 59.3219 311.567 61.5414 311.89C63.7609 312.213 65.7423 311.223 65.9669 309.679Z" fill="#FF6584"/>
<path d="M54.4843 300.916C54.495 299.498 53.7043 298.343 52.7183 298.336C51.7322 298.328 50.9242 299.471 50.9135 300.889C50.9027 302.306 51.6934 303.461 52.6795 303.469C53.6655 303.476 54.4736 302.333 54.4843 300.916Z" fill="#E6E6E6"/>
<path d="M50.5902 284.594C50.6009 283.176 49.8103 282.021 48.8242 282.013C47.8382 282.006 47.0301 283.149 47.0194 284.567C47.0087 285.984 47.7994 287.139 48.7854 287.147C49.7715 287.154 50.5795 286.011 50.5902 284.594Z" fill="#3F3D56"/>
<path d="M80.8712 313.32C80.882 311.902 80.0913 310.747 79.1052 310.74C78.1192 310.732 77.3111 311.875 77.3004 313.293C77.2897 314.71 78.0804 315.865 79.0664 315.873C80.0525 315.88 80.8605 314.737 80.8712 313.32Z" fill="#E6E6E6"/>
<path d="M68.1011 319.696C68.1118 318.278 67.3211 317.123 66.3351 317.115C65.349 317.108 64.541 318.251 64.5303 319.668C64.5196 321.086 65.3102 322.241 66.2963 322.249C67.2823 322.256 68.0904 321.113 68.1011 319.696Z" fill="#FF6584"/>
<path d="M85.8775 331.48C85.8882 330.062 85.0975 328.907 84.1115 328.9C83.1254 328.892 82.3174 330.035 82.3066 331.453C82.2959 332.87 83.0866 334.025 84.0726 334.033C85.0587 334.04 85.8668 332.897 85.8775 331.48Z" fill="#3F3D56"/>
<path d="M405.764 13.9837C406.253 12.0558 404.402 9.92364 401.631 9.22131C398.859 8.51899 396.217 9.51247 395.728 11.4404C395.24 13.3683 397.09 15.5005 399.861 16.2028C402.633 16.9051 405.276 15.9116 405.764 13.9837Z" fill="white"/>
<path d="M371.921 13.7656C372.409 11.8377 370.559 9.7055 367.787 9.00317C365.016 8.30085 362.373 9.29439 361.885 11.2223C361.396 13.1502 363.247 15.2824 366.018 15.9847C368.789 16.687 371.432 15.6935 371.921 13.7656Z" fill="#3F3D56"/>
<path d="M412.115 42.0622C412.604 40.1343 410.753 38.0021 407.982 37.2998C405.21 36.5975 402.568 37.591 402.079 39.5189C401.591 41.4468 403.441 43.579 406.213 44.2813C408.984 44.9837 411.627 43.9901 412.115 42.0622Z" fill="#FF6584"/>
<path d="M420.004 52.6499C420.205 50.8542 419.355 49.2854 418.106 49.1458C416.857 49.0062 415.681 50.3487 415.481 52.1444C415.28 53.9401 416.13 55.509 417.379 55.6485C418.628 55.7881 419.804 54.4456 420.004 52.6499Z" fill="#E6E6E6"/>
<path d="M422.792 73.8541C422.993 72.0584 422.143 70.4895 420.893 70.35C419.644 70.2104 418.469 71.5529 418.268 73.3486C418.068 75.1443 418.918 76.7131 420.167 76.8527C421.416 76.9923 422.591 75.6498 422.792 73.8541Z" fill="#3F3D56"/>
<path d="M388.187 33.4417C388.388 31.646 387.538 30.0772 386.288 29.9376C385.039 29.798 383.864 31.1406 383.663 32.9363C383.463 34.732 384.313 36.3008 385.562 36.4404C386.811 36.5799 387.986 35.2374 388.187 33.4417Z" fill="#E6E6E6"/>
<path d="M405.219 27.0433C405.419 25.2476 404.569 23.6788 403.32 23.5392C402.071 23.3996 400.896 24.7422 400.695 26.5379C400.494 28.3335 401.344 29.9024 402.594 30.042C403.843 30.1815 405.018 28.839 405.219 27.0433Z" fill="#FF6584"/>
<path d="M384.237 9.75684C384.437 7.96115 383.587 6.39231 382.338 6.25274C381.089 6.11316 379.914 7.45569 379.713 9.25137C379.512 11.0471 380.362 12.6159 381.611 12.7555C382.861 12.8951 384.036 11.5525 384.237 9.75684Z" fill="#3F3D56"/>
<path d="M296.601 161.284C296.631 182.143 288.925 202.273 274.974 217.781V217.792C273.001 219.985 270.918 222.076 268.732 224.057C266.495 226.083 264.15 227.986 261.707 229.757C260.003 231.001 258.253 232.176 256.456 233.281C254.326 234.605 252.134 235.83 249.881 236.955C248.211 237.795 246.506 238.579 244.768 239.304C234.388 243.666 223.241 245.91 211.982 245.903C205.623 245.91 199.284 245.199 193.084 243.784C190.217 243.132 187.388 242.324 184.608 241.365C183.537 241.008 182.467 240.617 181.407 240.202C174.983 237.719 168.891 234.451 163.269 230.471C151.388 222.106 141.86 210.821 135.606 197.705C129.351 184.589 126.579 170.083 127.558 155.584C128.536 141.086 133.232 127.084 141.193 114.927C149.153 102.77 160.111 92.8681 173.009 86.175C185.907 79.4819 200.311 76.2233 214.835 76.713C229.358 77.2026 243.51 81.4241 255.928 88.9708C268.346 96.5175 278.611 107.135 285.735 119.8C292.859 132.466 296.601 146.752 296.601 161.284Z" fill="#E6E6E6"/>
<path d="M184.221 360.175C167.71 338.213 158.167 313.655 157.854 285.657C157.322 284.148 157.41 282.49 158.1 281.046C158.789 279.602 160.022 278.49 161.53 277.955L217.808 258.043C219.316 257.511 220.975 257.599 222.418 258.288C223.862 258.977 224.974 260.211 225.509 261.719L251.876 336.236C252.408 337.745 252.319 339.404 251.63 340.847C250.941 342.291 249.707 343.403 248.2 343.938L191.922 363.851C190.413 364.382 188.755 364.294 187.311 363.605C185.867 362.916 184.756 361.682 184.221 360.175Z" fill="#E6E6E6"/>
<path d="M180.574 336.14C170.643 326.099 166.393 308.192 163.623 288.233C163.125 286.82 163.207 285.267 163.853 283.915C164.498 282.562 165.654 281.521 167.066 281.02L215.431 263.907C216.844 263.409 218.397 263.491 219.75 264.137C221.102 264.782 222.143 265.937 222.644 267.349L246.107 333.66C246.605 335.073 246.522 336.626 245.877 337.978C245.231 339.331 244.076 340.372 242.664 340.873L212.702 351.474C206.408 353.693 199.49 353.325 193.467 350.45C187.444 347.576 182.807 342.429 180.574 336.14Z" fill="white"/>
<path d="M223.292 303.071L185.616 316.52C185.319 316.626 185.005 316.672 184.69 316.656C184.375 316.641 184.066 316.563 183.781 316.428C183.497 316.293 183.241 316.103 183.03 315.87C182.818 315.636 182.655 315.363 182.549 315.066C182.443 314.769 182.396 314.454 182.412 314.139C182.428 313.825 182.505 313.516 182.64 313.231C182.775 312.946 182.965 312.691 183.199 312.479C183.432 312.268 183.706 312.105 184.002 311.999L221.678 298.55C222.278 298.336 222.937 298.369 223.513 298.642C224.088 298.914 224.531 299.404 224.745 300.004C224.959 300.603 224.927 301.263 224.654 301.839C224.381 302.414 223.891 302.857 223.292 303.071Z" fill="#E0435D"/>
<path d="M189.48 301.164L181.191 304.123C180.894 304.229 180.579 304.276 180.264 304.26C179.949 304.245 179.64 304.167 179.355 304.033C179.07 303.898 178.814 303.708 178.603 303.474C178.391 303.24 178.227 302.967 178.121 302.67C178.015 302.373 177.969 302.058 177.985 301.743C178 301.428 178.078 301.119 178.213 300.834C178.349 300.549 178.539 300.294 178.773 300.082C179.007 299.871 179.28 299.707 179.577 299.602L187.866 296.643C188.163 296.537 188.478 296.49 188.793 296.505C189.108 296.521 189.417 296.598 189.702 296.733C189.987 296.868 190.243 297.058 190.454 297.292C190.666 297.525 190.83 297.799 190.936 298.096C191.042 298.393 191.088 298.708 191.072 299.023C191.057 299.338 190.979 299.647 190.844 299.932C190.708 300.217 190.518 300.472 190.284 300.684C190.05 300.895 189.777 301.058 189.48 301.164Z" fill="#E0435D"/>
<path d="M230.386 322.947L192.711 336.395C192.111 336.609 191.452 336.575 190.877 336.303C190.302 336.03 189.86 335.54 189.646 334.941C189.432 334.342 189.465 333.682 189.737 333.107C190.009 332.532 190.498 332.089 191.097 331.874L228.773 318.426C229.372 318.213 230.031 318.246 230.606 318.519C231.181 318.792 231.624 319.281 231.838 319.881C232.052 320.48 232.019 321.139 231.747 321.714C231.475 322.289 230.985 322.733 230.386 322.947Z" fill="#E0435D"/>
<path d="M226.839 313.009L189.164 326.458C188.564 326.672 187.904 326.639 187.329 326.366C186.754 326.093 186.31 325.603 186.096 325.004C185.882 324.404 185.915 323.744 186.188 323.169C186.46 322.594 186.95 322.15 187.55 321.936L225.225 308.488C225.522 308.382 225.837 308.335 226.152 308.351C226.467 308.366 226.776 308.443 227.061 308.578C227.346 308.713 227.602 308.903 227.814 309.137C228.026 309.371 228.189 309.644 228.295 309.941C228.401 310.238 228.448 310.553 228.432 310.868C228.416 311.183 228.338 311.492 228.203 311.777C228.068 312.062 227.878 312.317 227.644 312.529C227.41 312.74 227.136 312.904 226.839 313.009Z" fill="#E0435D"/>
<path d="M192.628 123.001C193.854 132.899 200.714 141.061 210.688 141.061C215.478 141.061 220.072 139.158 223.459 135.771C226.846 132.384 228.749 127.79 228.749 123.001C228.749 113.026 220.62 105.862 210.688 104.94C200.15 103.961 191.052 110.292 192.628 123.001Z" fill="#2F2E41"/>
<path d="M226.411 244.671C215.352 246.572 204.027 246.27 193.084 243.784C198.278 240.916 214.032 242.678 226.411 244.671Z" fill="#2F2E41"/>
<path d="M156.117 276.438L164.793 255.472L171.628 259.27L167.5 280.597C167.913 281.948 167.942 283.388 167.582 284.754C167.222 286.121 166.488 287.36 165.462 288.332C164.437 289.304 163.161 289.971 161.777 290.257C160.393 290.544 158.957 290.439 157.63 289.954C156.303 289.469 155.137 288.623 154.264 287.512C153.391 286.401 152.846 285.069 152.688 283.664C152.531 282.26 152.769 280.84 153.375 279.563C153.98 278.287 154.93 277.205 156.117 276.438Z" fill="#82625B"/>
<path d="M245.862 219.704V219.715C245.551 227.017 245.125 233.961 244.768 239.304C234.388 243.666 223.241 245.91 211.982 245.903C205.623 245.91 199.284 245.199 193.084 243.784C190.217 243.132 187.388 242.325 184.608 241.365C184.995 241.116 185.414 240.918 185.852 240.778C189.998 239.373 185.898 238.095 185.933 236.759C186.059 231.876 187.407 226.015 189.146 220.395L181.407 240.202L177.376 250.498C177.376 250.498 177.515 259.388 174.958 256.67C172.39 253.952 172.574 262.75 172.574 262.75C171.776 263.319 171.089 264.03 170.547 264.846C170.32 265.214 170.234 265.652 170.306 266.079V266.09C170.421 266.425 170.649 266.71 170.951 266.896C172.689 268.071 170.19 271.18 169.085 272.412C168.786 272.746 168.59 272.942 168.59 272.942L157.961 272.182V271.975C158.007 270.719 158.295 264.109 159.941 262.532C161.749 260.793 160.863 258.04 160.863 258.04C160.863 258.04 165.584 253.86 162.417 250.463C161.151 249.093 161.715 240.974 163.269 230.471C166.667 207.301 174.808 172.523 178.332 173.018C179.058 169.491 180.745 166.233 183.206 163.603C185.667 160.974 188.806 159.075 192.278 158.117L203.759 154.962L205.809 146.866H221.978L224.787 152.186L236.568 157.507L236.718 157.576L237.086 157.737L237.225 158.174C237.225 158.174 237.213 158.186 237.225 158.186L243.777 178.765C246.725 182.151 246.61 201.935 245.862 219.704Z" fill="#0F6C94"/>
<path d="M273.394 261.171L262.445 241.298L269.681 238.334L283.753 254.883C285.066 255.405 286.208 256.282 287.05 257.417C287.892 258.552 288.401 259.899 288.519 261.307C288.637 262.715 288.36 264.128 287.719 265.387C287.079 266.647 286.099 267.702 284.891 268.435C283.683 269.169 282.295 269.55 280.882 269.538C279.469 269.525 278.088 269.118 276.893 268.364C275.698 267.609 274.738 266.536 274.12 265.266C273.502 263.995 273.25 262.577 273.394 261.171Z" fill="#82625B"/>
<path d="M236.57 157.348C238.518 160.847 256.328 169.847 253.241 178.882C253.241 178.882 269.974 231.23 272.149 230.888C274.325 230.546 276.449 235.954 276.449 235.954C276.449 235.954 275.987 239.483 277.344 238.016C278.702 236.55 278.377 240.394 278.377 240.394C278.377 240.394 277.726 243.787 279.45 242.864C281.173 241.942 278.907 248.435 278.907 248.435L268.552 253.311L266.584 250.382C266.584 250.382 262.379 249.582 264.358 248.947C266.336 248.313 262.497 246.178 262.497 246.178C262.497 246.178 258.481 243.448 259.04 238.928C259.6 234.407 248.618 225.52 248.618 225.52C241.068 210.614 236.938 195.31 236.952 179.523L236.57 157.348Z" fill="#0F6C94"/>
<path d="M212.685 142.134C221.53 142.134 228.7 134.963 228.7 126.118C228.7 117.273 221.53 110.103 212.685 110.103C203.84 110.103 196.669 117.273 196.669 126.118C196.669 134.963 203.84 142.134 212.685 142.134Z" fill="#82625B"/>
<path d="M196.101 127.863C196.608 131.343 199.574 136.199 198.879 136.199C198.185 136.199 193.246 121.852 198.185 120.917C201.767 120.238 202.568 120.833 205.916 119.381L205.444 119.826C207.66 121.438 210.744 120.444 213.272 119.395C215.808 118.353 218.885 117.36 221.108 118.965C222.504 119.972 223.094 121.722 223.963 123.209C224.831 124.702 226.436 126.113 228.089 125.654C228.733 125.405 229.282 124.958 229.656 124.378C230.031 123.798 230.212 123.114 230.173 122.424C230.166 121.049 228.375 119.74 228.978 118.506C230.765 114.849 229.158 112.357 225.262 110.636C223.845 110.421 222.428 110.201 221.01 109.976C221.753 108.948 222.653 108.043 223.678 107.295C223.245 106.185 222.496 105.226 221.525 104.537C220.324 103.979 218.986 103.786 217.676 103.981C214.745 104.134 211.816 104.287 208.889 104.44C206.709 104.401 204.546 104.822 202.54 105.676C200.123 106.92 198.539 109.344 197.386 111.81C194.802 117.353 195.212 121.813 196.101 127.863Z" fill="#2F2E41"/>
<path d="M369.797 237.394C360.98 237.394 352.452 234.245 345.751 228.514C343.516 226.601 341.134 223.274 338.672 218.628C337.101 215.634 336.221 212.327 336.097 208.949C335.973 205.571 336.608 202.208 337.955 199.108C336.656 200.429 335.22 201.607 333.67 202.622L332.887 203.143L332.842 202.204C332.812 201.593 332.797 200.984 332.797 200.394C332.797 196.918 335.426 193.391 334.214 190.178C329.103 176.635 312.894 163.177 336.386 142.218C338.559 140.279 335.656 136.403 335.656 133.47C335.656 104.722 376.287 54.987 387.802 81.3337C402.004 113.826 426.471 110.35 437.31 117.062L437.467 117.536L437.004 117.724C434.632 118.721 432.133 119.385 429.579 119.699C432.302 120.254 435.081 120.487 437.858 120.392L438.289 120.377L438.394 120.796C439.427 124.941 439.949 129.197 439.948 133.47L439.946 133.931C439.937 137.176 440.611 140.387 441.926 143.354C443.24 146.32 445.165 148.977 447.575 151.15C451.382 154.621 454.423 158.846 456.506 163.558C458.589 168.269 459.668 173.363 459.673 178.514C459.673 184.609 455.531 192.609 452.056 198.247C451.176 199.683 449.981 200.901 448.563 201.81C447.144 202.718 445.538 203.294 443.865 203.493C442.281 203.693 440.672 203.542 439.152 203.051C437.632 202.56 436.239 201.741 435.071 200.652C436.716 203.959 438.859 206.994 441.426 209.65L441.9 210.138L441.311 210.481C435.654 213.78 429.222 215.517 422.674 215.514L422.29 215.513C417.489 215.464 412.725 216.373 408.28 218.188C403.834 220.002 399.795 222.686 396.399 226.081C392.941 229.643 388.807 232.478 384.239 234.421C379.671 236.364 374.761 237.374 369.797 237.394Z" fill="#E0D716"/>
<path d="M357.068 295.988C356.908 295.988 356.753 295.93 356.632 295.825C356.511 295.72 356.432 295.575 356.41 295.417C354.67 279.9 354.566 264.244 356.099 248.706C358.396 224.194 365.771 188.889 387.865 159.893C387.918 159.824 387.985 159.765 388.06 159.721C388.136 159.677 388.219 159.649 388.306 159.637C388.392 159.625 388.48 159.631 388.565 159.653C388.649 159.675 388.728 159.714 388.798 159.767C388.867 159.82 388.926 159.886 388.97 159.962C389.014 160.037 389.042 160.121 389.054 160.207C389.066 160.294 389.06 160.382 389.038 160.466C389.016 160.551 388.977 160.63 388.924 160.7C367.021 189.445 359.705 224.492 357.424 248.83C355.899 264.264 356.001 279.816 357.727 295.229C357.741 295.324 357.734 295.42 357.706 295.511C357.679 295.603 357.633 295.687 357.571 295.759C357.508 295.831 357.431 295.889 357.344 295.928C357.257 295.968 357.163 295.988 357.068 295.988Z" fill="#3F3D56"/>
<path d="M375.098 200.793C374.957 200.793 374.82 200.749 374.706 200.666C374.593 200.584 374.508 200.467 374.464 200.334C374.421 200.2 374.421 200.056 374.464 199.922C374.508 199.789 374.592 199.672 374.706 199.589C381.001 195.328 387.802 191.866 394.952 189.283C406.122 185.193 423.108 181.486 440.595 187.051C440.678 187.078 440.755 187.121 440.822 187.177C440.889 187.233 440.944 187.302 440.984 187.38C441.024 187.457 441.049 187.542 441.056 187.629C441.063 187.716 441.054 187.804 441.027 187.887C441.001 187.97 440.958 188.048 440.902 188.115C440.845 188.181 440.776 188.236 440.699 188.276C440.621 188.317 440.536 188.341 440.449 188.348C440.362 188.356 440.275 188.346 440.191 188.319C423.063 182.868 406.385 186.514 395.41 190.533C388.375 193.072 381.683 196.475 375.488 200.666C375.375 200.749 375.238 200.793 375.098 200.793Z" fill="#3F3D56"/>
<path d="M344.643 124.943C344.633 124.803 344.667 124.663 344.742 124.543C344.816 124.424 344.926 124.331 345.056 124.278C345.186 124.225 345.33 124.215 345.466 124.248C345.603 124.282 345.725 124.358 345.816 124.465C350.519 130.438 354.462 136.972 357.553 143.917C362.437 154.763 367.358 171.438 363.066 189.28C363.046 189.366 363.009 189.446 362.958 189.517C362.906 189.588 362.841 189.648 362.767 189.694C362.692 189.739 362.609 189.77 362.523 189.784C362.436 189.798 362.348 189.794 362.263 189.774C362.178 189.753 362.098 189.716 362.027 189.665C361.956 189.613 361.896 189.548 361.851 189.473C361.805 189.399 361.775 189.316 361.761 189.229C361.748 189.143 361.751 189.054 361.772 188.969C365.976 171.493 361.138 155.121 356.34 144.463C353.301 137.629 349.424 131.2 344.798 125.323C344.708 125.216 344.653 125.083 344.643 124.943Z" fill="#3F3D56"/>
<path d="M63.2744 224.082C59.8788 220.687 55.8397 218.003 51.3938 216.189C46.948 214.374 42.1847 213.465 37.383 213.514L36.9995 213.515C30.4509 213.518 24.0191 211.781 18.362 208.482L17.7733 208.139L18.2475 207.651C20.8143 204.995 22.9577 201.96 24.6024 198.653C23.4343 199.743 22.0411 200.561 20.5214 201.052C19.0017 201.543 17.3926 201.694 15.8081 201.494C14.1353 201.295 12.5294 200.719 11.1107 199.811C9.69213 198.902 8.49767 197.684 7.61699 196.248C4.14211 190.61 0 182.61 0 176.515C0.00540779 171.364 1.084 166.27 3.16704 161.559C5.25008 156.847 8.29187 152.622 12.0985 149.151C14.5084 146.978 16.4334 144.321 17.7478 141.355C19.0622 138.388 19.7365 135.177 19.7269 131.932L19.725 131.471C19.7244 127.198 20.2464 122.942 21.2796 118.797L21.3845 118.378L21.8152 118.393C24.5925 118.488 27.3713 118.255 30.0942 117.7C27.5401 117.386 25.0416 116.722 22.6693 115.725L22.206 115.537L22.3632 115.063C33.2024 108.351 57.6696 111.827 71.8711 79.3348C83.3866 52.9881 124.017 102.723 124.017 131.471C124.017 134.404 121.114 138.28 123.287 140.219C146.78 161.178 130.57 174.636 125.46 188.179C124.247 191.392 126.876 194.919 126.876 198.395C126.876 198.985 126.861 199.594 126.832 200.205L126.786 201.144L126.003 200.623C124.453 199.608 123.017 198.43 121.718 197.109C123.066 200.209 123.701 203.572 123.576 206.95C123.452 210.328 122.572 213.635 121.001 216.629C118.539 221.275 116.157 224.602 113.922 226.515C106.761 232.644 97.5295 235.805 88.1152 235.352C78.7008 234.9 69.8149 230.868 63.2744 224.082Z" fill="#E0D716"/>
<path d="M102.606 293.989C102.766 293.989 102.92 293.931 103.041 293.826C103.162 293.721 103.241 293.576 103.264 293.418C105.004 277.901 105.108 262.245 103.574 246.707C101.277 222.195 93.902 186.89 71.808 157.894C71.755 157.825 71.6889 157.766 71.6133 157.722C71.5378 157.678 71.4544 157.65 71.3678 157.638C71.2812 157.626 71.1931 157.632 71.1086 157.654C71.0241 157.676 70.9449 157.715 70.8754 157.768C70.8059 157.821 70.7475 157.887 70.7035 157.963C70.6596 158.038 70.631 158.122 70.6193 158.208C70.6076 158.295 70.613 158.383 70.6354 158.467C70.6577 158.552 70.6965 158.631 70.7494 158.701C92.6526 187.446 99.9686 222.493 102.249 246.831C103.774 262.265 103.673 277.817 101.946 293.23C101.933 293.325 101.94 293.421 101.967 293.512C101.994 293.604 102.04 293.688 102.103 293.76C102.165 293.832 102.243 293.89 102.329 293.929C102.416 293.969 102.51 293.989 102.606 293.989Z" fill="#3F3D56"/>
<path d="M84.5758 198.794C84.7164 198.794 84.8533 198.75 84.9671 198.667C85.0809 198.585 85.1656 198.468 85.2091 198.335C85.2526 198.201 85.2526 198.057 85.2092 197.923C85.1658 197.79 85.0812 197.673 84.9675 197.59C78.672 193.329 71.8711 189.867 64.7213 187.284C53.5511 183.194 36.5652 179.487 19.0784 185.053C18.9952 185.079 18.9179 185.122 18.8512 185.178C18.7844 185.234 18.7294 185.303 18.6892 185.381C18.6491 185.458 18.6246 185.543 18.6172 185.63C18.6099 185.717 18.6197 185.805 18.6462 185.888C18.6727 185.972 18.7153 186.049 18.7717 186.116C18.828 186.182 18.897 186.237 18.9746 186.277C19.0522 186.318 19.1369 186.342 19.224 186.349C19.3111 186.357 19.3987 186.347 19.482 186.321C36.6104 180.87 53.2885 184.516 64.2637 188.534C71.2986 191.073 77.9904 194.476 84.1852 198.667C84.2986 198.75 84.4354 198.794 84.5758 198.794Z" fill="#3F3D56"/>
<path d="M115.03 122.944C115.04 122.804 115.006 122.664 114.932 122.544C114.858 122.425 114.748 122.332 114.617 122.279C114.487 122.226 114.344 122.216 114.207 122.249C114.071 122.283 113.948 122.359 113.858 122.466C109.154 128.439 105.211 134.973 102.12 141.918C97.2367 152.765 92.3157 169.439 96.6074 187.281C96.6276 187.367 96.6645 187.447 96.7158 187.518C96.7671 187.589 96.8319 187.649 96.9065 187.695C96.9811 187.74 97.064 187.771 97.1504 187.785C97.2369 187.799 97.3252 187.795 97.4103 187.775C97.4954 187.754 97.5756 187.717 97.6464 187.666C97.7171 187.614 97.777 187.549 97.8226 187.474C97.8682 187.4 97.8986 187.317 97.9121 187.23C97.9256 187.144 97.9219 187.055 97.9011 186.97C93.6978 169.494 98.5354 153.122 103.334 142.464C106.372 135.63 110.249 129.201 114.875 123.324C114.966 123.217 115.02 123.084 115.03 122.944Z" fill="#3F3D56"/>
</g>
<defs>
<clipPath id="clip0_7_104">
<rect width="460" height="364" fill="white"/>
</clipPath>
</defs>
</svg>
