<svg width="75" height="75" viewBox="0 0 75 75" fill="none" xmlns="http://www.w3.org/2000/svg">
<g clip-path="url(#clip0_105_64)">
<circle cx="37.5" cy="37.5" r="33.5" fill="#76D7FF" stroke="#2CABE0" stroke-width="8"/>
<path d="M32 20C32 16.6863 34.6863 14 38 14V14C41.3137 14 44 16.6863 44 20V54C44 57.3137 41.3137 60 38 60V60C34.6863 60 32 57.3137 32 54V20Z" fill="#2CABE0"/>
<path d="M55 31C58.3137 31 61 33.6863 61 37V37C61 40.3137 58.3137 43 55 43L21 43C17.6863 43 15 40.3137 15 37V37C15 33.6863 17.6863 31 21 31L55 31Z" fill="#2CABE0"/>
</g>
<defs>
<clipPath id="clip0_105_64">
<rect width="75" height="75" fill="white"/>
</clipPath>
</defs>
</svg>
