<?xml version="1.0" encoding="UTF-8"?>
<svg width="700pt" height="700pt" version="1.1" viewBox="0 0 700 700" xmlns="http://www.w3.org/2000/svg" xmlns:xlink="http://www.w3.org/1999/xlink">
 <defs>
  <symbol id="w" overflow="visible">
   <path d="m8.375-0.5c-0.42969 0.21875-0.875 0.38672-1.3438 0.5s-0.96094 0.17188-1.4688 0.17188c-1.5234 0-2.7266-0.42188-3.6094-1.2656-0.88672-0.85156-1.3281-2.0039-1.3281-3.4531 0-1.457 0.44141-2.6094 1.3281-3.4531 0.88281-0.85156 2.0859-1.2812 3.6094-1.2812 0.50781 0 1 0.058594 1.4688 0.17188 0.46875 0.11719 0.91406 0.28906 1.3438 0.51562v1.875c-0.4375-0.28906-0.87109-0.50391-1.2969-0.64062-0.41797-0.14453-0.85938-0.21875-1.3281-0.21875-0.83594 0-1.4961 0.27344-1.9844 0.8125-0.48047 0.53125-0.71875 1.2734-0.71875 2.2188 0 0.9375 0.23828 1.6797 0.71875 2.2188 0.48828 0.53125 1.1484 0.79688 1.9844 0.79688 0.46875 0 0.91016-0.066406 1.3281-0.20312 0.42578-0.13281 0.85938-0.35156 1.2969-0.65625z"/>
  </symbol>
  <symbol id="b" overflow="visible">
   <path d="m6.125-4.9688c-0.1875-0.09375-0.375-0.16016-0.5625-0.20312-0.1875-0.039063-0.38281-0.0625-0.57812-0.0625-0.5625 0-0.99609 0.18359-1.2969 0.54688-0.30469 0.35547-0.45312 0.86719-0.45312 1.5312v3.1562h-2.1875v-6.8438h2.1875v1.125c0.28125-0.44531 0.60156-0.76953 0.96875-0.96875 0.36328-0.20703 0.80078-0.3125 1.3125-0.3125 0.070313 0 0.14844 0.007812 0.23438 0.015625 0.082031 0 0.20703 0.011719 0.375 0.03125z"/>
  </symbol>
  <symbol id="a" overflow="visible">
   <path d="m7.875-3.4375v0.625h-5.1094c0.050781 0.51172 0.23438 0.89844 0.54688 1.1562 0.32031 0.25 0.76953 0.375 1.3438 0.375 0.45703 0 0.92578-0.066406 1.4062-0.20312 0.47656-0.13281 0.97266-0.33594 1.4844-0.60938v1.6719c-0.51172 0.19922-1.0273 0.34375-1.5469 0.4375-0.52344 0.10156-1.0391 0.15625-1.5469 0.15625-1.2422 0-2.2031-0.3125-2.8906-0.9375s-1.0312-1.5039-1.0312-2.6406c0-1.1133 0.33594-1.9883 1.0156-2.625 0.67578-0.64453 1.6016-0.96875 2.7812-0.96875 1.0703 0 1.9297 0.32422 2.5781 0.96875 0.64453 0.64844 0.96875 1.5117 0.96875 2.5938zm-2.25-0.71875c0-0.41406-0.12109-0.75-0.35938-1-0.24219-0.25781-0.55859-0.39062-0.95312-0.39062-0.41797 0-0.76172 0.12109-1.0312 0.35938-0.26172 0.24219-0.42188 0.58594-0.48438 1.0312z"/>
  </symbol>
  <symbol id="f" overflow="visible">
   <path d="m4.1094-3.0781c-0.44922 0-0.79297 0.078125-1.0312 0.23438-0.23047 0.15625-0.34375 0.38672-0.34375 0.6875 0 0.27344 0.09375 0.48438 0.28125 0.64062s0.44531 0.23438 0.78125 0.23438c0.40625 0 0.75-0.14453 1.0312-0.4375 0.28125-0.28906 0.42188-0.66016 0.42188-1.1094v-0.25zm3.3438-0.82812v3.9062h-2.2031v-1.0156c-0.29297 0.41797-0.62109 0.71875-0.98438 0.90625-0.36719 0.1875-0.8125 0.28125-1.3438 0.28125-0.71094 0-1.2891-0.20312-1.7344-0.60938-0.4375-0.41406-0.65625-0.95312-0.65625-1.6094 0-0.80078 0.27344-1.3906 0.82812-1.7656 0.55078-0.375 1.4219-0.5625 2.6094-0.5625h1.2812v-0.17188c0-0.34375-0.13672-0.59375-0.40625-0.75-0.27344-0.16406-0.69922-0.25-1.2812-0.25-0.46875 0-0.90625 0.046875-1.3125 0.14062-0.39844 0.09375-0.76562 0.23438-1.1094 0.42188v-1.6719c0.46875-0.11328 0.9375-0.19531 1.4062-0.25 0.46875-0.0625 0.94141-0.09375 1.4219-0.09375 1.2266 0 2.1133 0.24609 2.6562 0.73438 0.55078 0.48047 0.82812 1.2656 0.82812 2.3594z"/>
  </symbol>
  <symbol id="d" overflow="visible">
   <path d="m3.4375-8.7812v1.9375h2.25v1.5625h-2.25v2.9062c0 0.32422 0.0625 0.54297 0.1875 0.65625 0.125 0.10547 0.375 0.15625 0.75 0.15625h1.125v1.5625h-1.875c-0.86719 0-1.4805-0.17578-1.8438-0.53125-0.35547-0.36328-0.53125-0.97656-0.53125-1.8438v-2.9062h-1.0781v-1.5625h1.0781v-1.9375z"/>
  </symbol>
  <symbol id="l" overflow="visible">
   <path d="m5.7031-5.8281v-3.6719h2.1875v9.5h-2.1875v-0.98438c-0.30469 0.39844-0.63672 0.6875-1 0.875-0.36719 0.1875-0.78125 0.28125-1.25 0.28125-0.84375 0-1.5391-0.33203-2.0781-1-0.54297-0.66406-0.8125-1.5234-0.8125-2.5781 0-1.0625 0.26953-1.9258 0.8125-2.5938 0.53906-0.66406 1.2344-1 2.0781-1 0.46875 0 0.88281 0.09375 1.25 0.28125 0.36328 0.1875 0.69531 0.48438 1 0.89062zm-1.4375 4.4219c0.46875 0 0.82031-0.17188 1.0625-0.51562 0.25-0.34375 0.375-0.83594 0.375-1.4844 0-0.65625-0.125-1.1484-0.375-1.4844-0.24219-0.34375-0.59375-0.51562-1.0625-0.51562s-0.82812 0.17188-1.0781 0.51562c-0.24219 0.33594-0.35938 0.82812-0.35938 1.4844 0 0.64844 0.11719 1.1406 0.35938 1.4844 0.25 0.34375 0.60938 0.51562 1.0781 0.51562z"/>
  </symbol>
  <symbol id="k" overflow="visible">
   <path d="m4.6875-1.4062c0.46875 0 0.82031-0.17188 1.0625-0.51562 0.25-0.34375 0.375-0.83594 0.375-1.4844 0-0.65625-0.125-1.1484-0.375-1.4844-0.24219-0.34375-0.59375-0.51562-1.0625-0.51562s-0.82812 0.17188-1.0781 0.51562-0.375 0.83984-0.375 1.4844c0 0.64844 0.125 1.1406 0.375 1.4844s0.60938 0.51562 1.0781 0.51562zm-1.4531-4.4219c0.30078-0.40625 0.63281-0.70312 1-0.89062 0.36328-0.1875 0.78516-0.28125 1.2656-0.28125 0.84375 0 1.5352 0.33594 2.0781 1 0.53906 0.66797 0.8125 1.5312 0.8125 2.5938 0 1.0547-0.27344 1.9141-0.8125 2.5781-0.54297 0.66797-1.2344 1-2.0781 1-0.48047 0-0.90234-0.09375-1.2656-0.28125-0.36719-0.1875-0.69922-0.47656-1-0.875v0.98438h-2.1875v-9.5h2.1875z"/>
  </symbol>
  <symbol id="j" overflow="visible">
   <path d="m0.15625-6.8438h2.1875l1.8281 4.6406 1.5625-4.6406h2.1875l-2.875 7.4844c-0.29297 0.75781-0.63281 1.2891-1.0156 1.5938-0.38672 0.3125-0.89062 0.46875-1.5156 0.46875h-1.2656v-1.4375h0.6875c0.36328 0 0.62891-0.0625 0.79688-0.1875 0.17578-0.11719 0.3125-0.32422 0.40625-0.625l0.0625-0.1875z"/>
  </symbol>
  <symbol id="i" overflow="visible">
   <path d="m1.0469-9.5h2.1875v5.1719l2.5156-2.5156h2.5312l-3.3281 3.1406 3.5938 3.7031h-2.6406l-2.6719-2.8438v2.8438h-2.1875z"/>
  </symbol>
  <symbol id="h" overflow="visible">
   <path d="m7.3906-5.7031c0.26953-0.41406 0.59375-0.73438 0.96875-0.95312 0.38281-0.22656 0.80469-0.34375 1.2656-0.34375 0.78125 0 1.375 0.24609 1.7812 0.73438 0.41406 0.48047 0.625 1.1836 0.625 2.1094v4.1562h-2.1875v-3.5625-0.15625-0.25c0-0.48828-0.074219-0.84375-0.21875-1.0625-0.13672-0.21875-0.35938-0.32812-0.67188-0.32812-0.41797 0-0.74219 0.17188-0.96875 0.51562-0.23047 0.34375-0.34375 0.83984-0.34375 1.4844v3.3594h-2.2031v-3.5625c0-0.75781-0.070312-1.25-0.20312-1.4688-0.125-0.21875-0.35547-0.32812-0.6875-0.32812-0.41797 0-0.74219 0.17188-0.96875 0.51562-0.23047 0.34375-0.34375 0.83984-0.34375 1.4844v3.3594h-2.2031v-6.8438h2.2031v1.0156c0.26953-0.39453 0.57812-0.6875 0.92188-0.875 0.35156-0.19531 0.73828-0.29688 1.1562-0.29688 0.46875 0 0.88281 0.11719 1.25 0.34375 0.36328 0.23047 0.64062 0.54688 0.82812 0.95312z"/>
  </symbol>
  <symbol id="c" overflow="visible">
   <path d="m4.2969-5.4375c-0.48047 0-0.85156 0.17969-1.1094 0.53125-0.25 0.34375-0.375 0.84375-0.375 1.5s0.125 1.1562 0.375 1.5c0.25781 0.34375 0.62891 0.51562 1.1094 0.51562 0.47656 0 0.84375-0.17188 1.0938-0.51562 0.25781-0.34375 0.39062-0.84375 0.39062-1.5s-0.13281-1.1562-0.39062-1.5c-0.25-0.35156-0.61719-0.53125-1.0938-0.53125zm0-1.5625c1.1758 0 2.0938 0.32031 2.75 0.95312 0.66406 0.63672 1 1.5156 1 2.6406 0 1.1172-0.33594 1.9922-1 2.625-0.65625 0.63672-1.5742 0.95312-2.75 0.95312-1.1797 0-2.1016-0.31641-2.7656-0.95312-0.66797-0.63281-1-1.5078-1-2.625 0-1.125 0.33203-2.0039 1-2.6406 0.66406-0.63281 1.5859-0.95312 2.7656-0.95312z"/>
  </symbol>
  <symbol id="v" overflow="visible">
   <path d="m0.1875-6.8438h2.1875l1.7031 4.7344 1.7031-4.7344h2.1875l-2.6875 6.8438h-2.4062z"/>
  </symbol>
  <symbol id="u" overflow="visible">
   <path d="m1.0469-6.8438h2.1875v6.8438h-2.1875zm0-2.6562h2.1875v1.7812h-2.1875z"/>
  </symbol>
  <symbol id="g" overflow="visible">
   <path d="m6.5781-6.625v1.7812c-0.30469-0.19531-0.60547-0.34375-0.90625-0.4375-0.29297-0.10156-0.60156-0.15625-0.92188-0.15625-0.61719 0-1.0938 0.17969-1.4375 0.53125-0.33594 0.35547-0.5 0.85547-0.5 1.5 0 0.63672 0.16406 1.1328 0.5 1.4844 0.34375 0.35547 0.82031 0.53125 1.4375 0.53125 0.34375 0 0.66406-0.046875 0.96875-0.14062 0.3125-0.10156 0.59766-0.25391 0.85938-0.45312v1.7812c-0.34375 0.125-0.69531 0.21875-1.0469 0.28125-0.35547 0.0625-0.71094 0.09375-1.0625 0.09375-1.2305 0-2.1953-0.3125-2.8906-0.9375-0.69922-0.63281-1.0469-1.5156-1.0469-2.6406 0-1.1328 0.34766-2.0156 1.0469-2.6406 0.69531-0.63281 1.6602-0.95312 2.8906-0.95312 0.36328 0 0.71875 0.03125 1.0625 0.09375 0.35156 0.0625 0.70312 0.15625 1.0469 0.28125z"/>
  </symbol>
  <symbol id="t" overflow="visible">
   <path d="m1.4688-1.625h2.0781v-5.8906l-2.1406 0.4375v-1.5938l2.125-0.4375h2.2344v7.4844h2.0781v1.625h-6.375z"/>
  </symbol>
  <symbol id="e" overflow="visible">
   <path d="m5.75-4.5625c0-1.1445-0.10938-1.9453-0.32812-2.4062-0.21094-0.46875-0.5625-0.70312-1.0625-0.70312-0.51172 0-0.875 0.23438-1.0938 0.70312-0.21094 0.46094-0.3125 1.2617-0.3125 2.4062 0 1.1484 0.10156 1.9609 0.3125 2.4375 0.21875 0.46875 0.58203 0.70312 1.0938 0.70312 0.5 0 0.85156-0.23438 1.0625-0.70312 0.21875-0.47656 0.32812-1.2891 0.32812-2.4375zm2.3438 0.015625c0 1.5117-0.32812 2.6797-0.98438 3.5-0.64844 0.8125-1.5625 1.2188-2.75 1.2188-1.2109 0-2.1406-0.40625-2.7969-1.2188-0.64844-0.82031-0.96875-1.9883-0.96875-3.5 0-1.5078 0.32031-2.6758 0.96875-3.5 0.65625-0.82031 1.5859-1.2344 2.7969-1.2344 1.1875 0 2.1016 0.41406 2.75 1.2344 0.65625 0.82422 0.98438 1.9922 0.98438 3.5z"/>
  </symbol>
  <symbol id="s" overflow="visible">
   <path d="m5.5469-9.5v1.4375h-1.2031c-0.3125 0-0.53125 0.058594-0.65625 0.17188-0.11719 0.10547-0.17188 0.29688-0.17188 0.57812v0.46875h1.8594v1.5625h-1.8594v5.2812h-2.1875v-5.2812h-1.0938v-1.5625h1.0938v-0.46875c0-0.73828 0.20312-1.2852 0.60938-1.6406 0.41406-0.36328 1.0625-0.54688 1.9375-0.54688z"/>
  </symbol>
  <symbol id="r" overflow="visible">
   <path d="m7.9219-4.1562v4.1562h-2.2031v-3.1719c0-0.60156-0.015625-1.0156-0.046875-1.2344-0.023437-0.22656-0.0625-0.39453-0.125-0.5-0.085937-0.13281-0.19922-0.24219-0.34375-0.32812-0.14844-0.082031-0.3125-0.125-0.5-0.125-0.46094 0-0.82031 0.17969-1.0781 0.53125-0.26172 0.35547-0.39062 0.84375-0.39062 1.4688v3.3594h-2.1875v-9.5h2.1875v3.6719c0.33203-0.40625 0.67969-0.70312 1.0469-0.89062 0.375-0.1875 0.78516-0.28125 1.2344-0.28125 0.78906 0 1.3906 0.24609 1.7969 0.73438 0.40625 0.48047 0.60938 1.1836 0.60938 2.1094z"/>
  </symbol>
  <symbol id="q" overflow="visible">
   <path d="m1.1406-9.1094h2.625l3.3281 6.25v-6.25h2.2188v9.1094h-2.625l-3.3125-6.25v6.25h-2.2344z"/>
  </symbol>
  <symbol id="p" overflow="visible">
   <path d="m0.98438-2.6562v-4.1875h2.1875v0.6875c0 0.375-0.007813 0.84375-0.015625 1.4062v1.1094c0 0.55469 0.015625 0.94922 0.046875 1.1875 0.03125 0.24219 0.078125 0.41797 0.14062 0.53125 0.09375 0.14844 0.21094 0.25781 0.35938 0.32812 0.14453 0.074219 0.3125 0.10938 0.5 0.10938 0.45703 0 0.81641-0.17188 1.0781-0.51562 0.25781-0.35156 0.39062-0.83594 0.39062-1.4531v-3.3906h2.1719v6.8438h-2.1719v-0.98438c-0.33594 0.39844-0.6875 0.6875-1.0625 0.875-0.36719 0.1875-0.76562 0.28125-1.2031 0.28125-0.79297 0-1.3984-0.23828-1.8125-0.71875-0.40625-0.48828-0.60938-1.1914-0.60938-2.1094z"/>
  </symbol>
  <symbol id="o" overflow="visible">
   <path d="m7.9219-4.1562v4.1562h-2.2031v-3.1875c0-0.59375-0.015625-1-0.046875-1.2188-0.023437-0.22656-0.0625-0.39453-0.125-0.5-0.085937-0.13281-0.19922-0.24219-0.34375-0.32812-0.14844-0.082031-0.3125-0.125-0.5-0.125-0.46094 0-0.82031 0.17969-1.0781 0.53125-0.26172 0.35547-0.39062 0.84375-0.39062 1.4688v3.3594h-2.1875v-6.8438h2.1875v1.0156c0.33203-0.40625 0.67969-0.70312 1.0469-0.89062 0.375-0.1875 0.78516-0.28125 1.2344-0.28125 0.78906 0 1.3906 0.24609 1.7969 0.73438 0.40625 0.48047 0.60938 1.1836 0.60938 2.1094z"/>
  </symbol>
  <symbol id="n" overflow="visible">
   <path d="m1.1406-9.1094h3.9062c1.1562 0 2.0469 0.26172 2.6719 0.78125 0.625 0.51172 0.9375 1.2422 0.9375 2.1875 0 0.96094-0.3125 1.6992-0.9375 2.2188-0.625 0.51172-1.5156 0.76562-2.6719 0.76562h-1.5469v3.1562h-2.3594zm2.3594 1.7031v2.5469h1.2969c0.45703 0 0.80469-0.10938 1.0469-0.32812 0.25-0.22656 0.375-0.54688 0.375-0.95312s-0.125-0.71875-0.375-0.9375c-0.24219-0.21875-0.58984-0.32812-1.0469-0.32812z"/>
  </symbol>
  <symbol id="m" overflow="visible">
   <path d="m1.0469-6.8438h2.1875v6.7188c0 0.91406-0.21875 1.6133-0.65625 2.0938-0.4375 0.48828-1.0742 0.73438-1.9062 0.73438h-1.0938v-1.4375h0.39062c0.41406 0 0.69531-0.09375 0.84375-0.28125 0.15625-0.1875 0.23438-0.55859 0.23438-1.1094zm0-2.6562h2.1875v1.7812h-2.1875z"/>
  </symbol>
 </defs>
 <g>
  <path d="m280 280c-130 155-167.5 210-255 250 117.5 92.5 220-52.5 325-180h2.5c102.5 127.5 205 272.5 322.5 180-87.5-40-125-95-255-250 130-157.5 167.5-212.5 255-250-117.5-92.5-220 50-322.5 180l-2.5-2.5v2.5c-105-130-207.5-272.5-325-180 87.5 37.5 125 92.5 255 250z" fill-rule="evenodd"/>
 </g>
</svg>
