<svg viewBox="0 0 209 236" fill="none" xmlns="http://www.w3.org/2000/svg">
<g id="azure_branco_animation" clip-path="url(#clip0_48_101)">
<g id="letra">
<path id="path21" d="M110.836 235.86C103.182 235.36 98.7309 230.917 97.5513 222.602C97.2375 220.39 97.2363 220.333 97.2042 205.973L97.1731 192.075H100.56H103.948L103.975 205.518C103.999 217.634 104.014 219.054 104.127 219.907C104.589 223.366 105.507 225.692 107.07 227.361C108.321 228.698 109.785 229.48 111.813 229.895C112.769 230.091 115.49 230.092 116.362 229.896C118.417 229.435 120.065 228.523 121.518 227.043C123.174 225.355 124.4 222.961 124.993 220.253L125.192 219.34L125.215 205.784L125.237 192.227H128.695H132.153V213.538V234.85H128.731H125.308V231.469C125.308 229.171 125.283 228.096 125.231 228.114C125.189 228.128 125.013 228.402 124.84 228.723C123.661 230.915 121.696 232.92 119.543 234.128C116.961 235.576 114.373 236.091 110.836 235.86ZM188.523 235.826C185.821 235.619 182.976 234.672 180.651 233.206C175.75 230.116 172.85 225.022 172.001 218.013C171.707 215.587 171.672 212.329 171.917 210.268C172.465 205.663 174.241 201.142 176.769 197.915C177.417 197.087 178.887 195.589 179.699 194.928C181.891 193.144 184.454 191.897 187.176 191.29C188.762 190.936 191.555 190.77 193.241 190.93C197.474 191.329 201.353 193.361 203.99 196.558C206.669 199.807 208.141 204.346 208.329 209.936C208.359 210.812 208.366 212.348 208.345 213.349L208.308 215.169L193.482 215.188L178.657 215.207V215.882C178.657 217.934 179.147 220.273 179.993 222.262C180.723 223.977 181.98 225.851 183.008 226.757C185.118 228.616 187.7 229.729 190.525 229.996C191.572 230.096 194.242 229.991 195.436 229.804C198.841 229.271 202.079 227.909 204.694 225.911C205.002 225.676 205.296 225.456 205.348 225.423C205.425 225.374 205.443 225.988 205.441 228.57L205.438 231.778L204.738 232.22C201.78 234.085 198.391 235.282 194.803 235.73C193.732 235.864 189.803 235.924 188.523 235.826ZM201.425 208.768C201.425 205.33 200.003 201.51 197.992 199.543C196.556 198.139 194.82 197.281 192.757 196.955C191.781 196.801 189.723 196.86 188.694 197.072C186.518 197.521 184.719 198.495 183.149 200.076C181.497 201.74 180.259 203.761 179.48 206.063C179.2 206.891 178.872 208.251 178.771 209.007L178.722 209.367H190.074H201.425V208.768ZM0.322103 234.755C0.339469 234.703 5.3738 221.222 11.5095 204.798L22.6654 174.935L26.2498 174.935L29.8342 174.935L30.1317 175.712C31.0405 178.088 52.4649 234.785 52.4649 234.815C52.4649 234.834 50.7489 234.85 48.6516 234.849L44.8383 234.849L41.7504 226.469L38.6626 218.089L26.2296 218.089L13.7965 218.089L13.6884 218.373C13.629 218.529 12.3097 222.3 10.7567 226.752L7.93305 234.847L4.1118 234.848C1.08711 234.849 0.297117 234.83 0.322103 234.755ZM36.3933 211.694C36.3933 211.681 34.3152 205.938 31.7755 198.934C27.024 185.829 26.7582 185.04 26.3828 182.936C26.2067 181.95 26.1177 181.922 26.0132 182.822C25.9385 183.466 25.6147 184.906 25.365 185.704C25.2411 186.101 23.1014 192.087 20.6101 199.007C18.1188 205.927 16.0805 211.618 16.0805 211.653C16.0805 211.689 20.6509 211.718 26.2369 211.718C31.8229 211.718 36.3933 211.707 36.3933 211.694ZM54.7715 233.759V232.667L67.1586 215.31L79.5457 197.953L68.3305 197.915L57.1152 197.877L57.0958 194.976L57.0763 192.075H73.2976H89.5189V193.055V194.035L77.1304 211.486C70.3167 221.085 64.7418 228.954 64.7418 228.974C64.7418 228.994 70.2497 229.01 76.9816 229.01H89.2213V231.93V234.85H71.9964H54.7715V233.759ZM145.67 234.799C145.643 234.772 145.621 225.147 145.621 213.412V192.075H149.006H152.392V196.474C152.392 198.893 152.421 200.873 152.456 200.873C152.491 200.873 152.656 200.477 152.822 199.993C153.583 197.775 154.903 195.702 156.604 194.055C158.136 192.571 159.887 191.684 161.953 191.344C162.533 191.249 163.024 191.231 164.185 191.261C165.643 191.3 166.405 191.409 167.292 191.704L167.571 191.797V195.379V198.961L166.771 198.553C165.358 197.832 163.964 197.547 162.288 197.635C161.197 197.693 160.481 197.836 159.609 198.17C157.815 198.856 156.36 200.067 155.343 201.721C153.871 204.115 152.821 207.192 152.511 210.02C152.456 210.528 152.423 214.661 152.41 222.81L152.39 234.85H149.055C147.221 234.85 145.698 234.827 145.67 234.799Z" fill="white"/>
</g>
<g id="Group 3">
<mask id="mask0_48_101" style="mask-type:alpha" maskUnits="userSpaceOnUse" x="3" y="0" width="207" height="161">
<path id="path21_2" d="M98.5537 151.49C125.064 146.811 146.96 142.938 147.211 142.885L147.668 142.788L122.64 113.04C108.875 96.6788 97.6121 83.2288 97.6121 83.1513C97.6121 83.0045 123.456 11.8898 123.601 11.6368C123.65 11.5522 141.237 41.8937 166.234 85.1865C189.637 125.718 208.931 159.136 209.11 159.45L209.436 160.019L129.895 160.009L50.3537 159.998L98.5537 151.49ZM3.09521 142.418C3.09521 142.377 14.8883 121.92 29.3022 96.9592L55.5091 51.5761L86.0502 25.9651C102.848 11.879 116.637 0.336814 116.692 0.315764C116.747 0.294718 116.526 0.850455 116.201 1.55074C115.875 2.25103 100.952 34.2365 83.0375 72.6296L50.4656 142.435L26.7804 142.465C13.7536 142.481 3.09521 142.46 3.09521 142.418Z" fill="white"/>
</mask>
<g mask="url(#mask0_48_101)">
<path id="path21_3" d="M98.5537 151.49C125.064 146.811 146.96 142.938 147.211 142.885L147.668 142.788L122.64 113.04C108.875 96.6788 97.6121 83.2288 97.6121 83.1513C97.6121 83.0045 123.456 11.8898 123.601 11.6368C123.65 11.5522 141.237 41.8937 166.234 85.1865C189.637 125.718 208.931 159.136 209.11 159.45L209.436 160.019L129.895 160.009L50.3537 159.998L98.5537 151.49ZM3.09521 142.418C3.09521 142.377 14.8883 121.92 29.3022 96.9592L55.5091 51.5761L86.0502 25.9651C102.848 11.879 116.637 0.336814 116.692 0.315764C116.747 0.294718 116.526 0.850455 116.201 1.55074C115.875 2.25103 100.952 34.2365 83.0375 72.6296L50.4656 142.435L26.7804 142.465C13.7536 142.481 3.09521 142.46 3.09521 142.418Z" fill="white"/>
<ellipse id="Ellipse 3" cx="108" cy="106.5" rx="120" ry="111.5" fill="#0089D6"/>
</g>
</g>
</g>
<defs>
<clipPath id="clip0_48_101">
<rect width="209" height="236" fill="white"/>
</clipPath>
</defs>
</svg>
