<svg viewBox="0 0 323 195" fill="none" xmlns="http://www.w3.org/2000/svg">
<g id="Frame 2" clip-path="url(#clip0_50_140)">
<g id="Group 6">
<g id="Group 4">
<mask id="mask0_50_140" style="mask-type:alpha" maskUnits="userSpaceOnUse" x="106" y="0" width="101" height="45">
<path id="Vector" d="M187.406 34.6244L192.432 34.7117L206.086 21.1567L206.745 15.4129C195.894 5.83107 181.616 0 165.99 0C137.698 0 113.818 19.1113 106.745 45C108.238 43.9664 111.423 44.7383 111.423 44.7383L138.713 40.2811C138.713 40.2811 140.119 37.9696 140.822 38.1135C146.68 31.7515 154.762 27.8482 163.42 27.1998C172.077 26.5515 180.653 29.2069 187.406 34.6244Z" fill="white"/>
</mask>
<g mask="url(#mask0_50_140)">
<path id="Vector_2" d="M187.406 34.6244L192.432 34.7117L206.086 21.1567L206.745 15.4129C195.894 5.83107 181.616 0 165.99 0C137.698 0 113.818 19.1113 106.745 45C108.238 43.9664 111.423 44.7383 111.423 44.7383L138.713 40.2811C138.713 40.2811 140.119 37.9696 140.822 38.1135C146.68 31.7515 154.762 27.8482 163.42 27.1998C172.077 26.5515 180.653 29.2069 187.406 34.6244Z" fill="white"/>
<ellipse id="Ellipse 7" cx="154.5" cy="27.5" rx="66.5" ry="30.5" fill="#EA4335"/>
</g>
<mask id="mask1_50_140" style="mask-type:alpha" maskUnits="userSpaceOnUse" x="162" y="15" width="83" height="111">
<path id="Vector_3" d="M225.546 44.9478C222.401 33.3701 215.949 22.9621 206.981 15L187.597 34.3982C191.575 37.5978 194.786 41.6495 196.992 46.2551C199.198 50.8607 200.344 55.9028 200.345 61.0102V64.4342C209.777 64.4342 217.43 72.1151 217.43 81.5321C217.43 90.9492 209.755 98.6301 200.345 98.6301H166.166L162.745 102.067V122.594L166.166 126H200.345C212.116 125.969 223.396 121.273 231.717 112.94C240.037 104.608 244.721 93.3165 244.745 81.5365C244.727 66.3952 237.1 52.9812 225.502 44.9478H225.546Z" fill="white"/>
</mask>
<g mask="url(#mask1_50_140)">
<path id="Vector_4" d="M225.546 44.9478C222.401 33.3701 215.949 22.9621 206.981 15L187.597 34.3982C191.575 37.5978 194.786 41.6495 196.992 46.2551C199.198 50.8607 200.344 55.9028 200.345 61.0102V64.4342C209.777 64.4342 217.43 72.1151 217.43 81.5321C217.43 90.9492 209.755 98.6301 200.345 98.6301H166.166L162.745 102.067V122.594L166.166 126H200.345C212.116 125.969 223.396 121.273 231.717 112.94C240.037 104.608 244.721 93.3165 244.745 81.5365C244.727 66.3952 237.1 52.9812 225.502 44.9478H225.546Z" fill="white" fill-opacity="0.5"/>
<ellipse id="Ellipse 6" cx="204.5" cy="79.5" rx="54.5" ry="68.5" fill="#4285F4"/>
</g>
<mask id="mask2_50_140" style="mask-type:alpha" maskUnits="userSpaceOnUse" x="105" y="97" width="62" height="29">
<path id="Vector_5" d="M132.584 125.991H166.745V98.5337H132.584C130.158 98.5349 127.761 98.0118 125.554 97L120.624 98.5161L106.942 112.254L105.745 116.895C113.442 122.829 122.884 126.031 132.589 126L132.584 125.991Z" fill="white"/>
</mask>
<g mask="url(#mask2_50_140)">
<path id="Vector_6" d="M132.584 125.991H166.745V98.5337H132.584C130.158 98.5349 127.761 98.0118 125.554 97L120.624 98.5161L106.942 112.254L105.745 116.895C113.442 122.829 122.884 126.031 132.589 126L132.584 125.991Z" fill="white"/>
<ellipse id="Ellipse 5" cx="137.5" cy="107" rx="38.5" ry="34" fill="#34A853"/>
</g>
<mask id="mask3_50_140" style="mask-type:alpha" maskUnits="userSpaceOnUse" x="87" y="37" width="81" height="80">
<path id="Vector_7" d="M132.285 37C120.478 37.0187 109.16 41.7163 100.811 50.0634C92.462 58.4105 87.7633 69.7262 87.7446 81.5307C87.7446 88.4045 89.3384 95.1848 92.4008 101.339C95.4633 107.493 99.9111 112.854 105.395 117L125.252 97.1478C122.244 95.7948 119.691 93.602 117.9 90.8331C116.109 88.0642 115.156 84.837 115.156 81.5395C115.156 72.0899 122.847 64.4225 132.276 64.4225C135.573 64.4283 138.799 65.3833 141.567 67.1732C144.336 68.9632 146.53 71.5125 147.888 74.5163L167.745 54.6641C159.599 43.9439 146.741 37.0176 132.268 37.0176L132.285 37Z" fill="white"/>
</mask>
<g mask="url(#mask3_50_140)">
<path id="Vector_8" d="M132.285 37C120.478 37.0187 109.16 41.7163 100.811 50.0634C92.462 58.4105 87.7633 69.7262 87.7446 81.5307C87.7446 88.4045 89.3384 95.1848 92.4008 101.339C95.4633 107.493 99.9111 112.854 105.395 117L125.252 97.1478C122.244 95.7948 119.691 93.602 117.9 90.8331C116.109 88.0642 115.156 84.837 115.156 81.5395C115.156 72.0899 122.847 64.4225 132.276 64.4225C135.573 64.4283 138.799 65.3833 141.567 67.1732C144.336 68.9632 146.53 71.5125 147.888 74.5163L167.745 54.6641C159.599 43.9439 146.741 37.0176 132.268 37.0176L132.285 37Z" fill="white" fill-opacity="0.5"/>
<ellipse id="Ellipse 4" cx="128" cy="77.5" rx="48" ry="46.5" fill="#FBBC05"/>
</g>
</g>
<path id="Vector_9" d="M22.5446 181.617C16.3966 181.617 11.1186 179.442 6.67 175.092C2.2214 170.742 0 165.511 0 159.409C0 153.308 2.2185 148.076 6.67 143.726C11.1215 139.376 16.4053 137.198 22.5446 137.198C25.3609 137.157 28.1573 137.677 30.7707 138.728C33.3841 139.778 35.7623 141.338 37.7667 143.317L33.4834 147.6C30.5523 144.766 26.6185 143.207 22.5417 143.265C18.1047 143.265 14.3347 144.831 11.2433 147.983C9.73939 149.477 8.55367 151.259 7.75769 153.223C6.9617 155.188 6.57197 157.293 6.612 159.412C6.612 163.895 8.149 167.697 11.2433 170.838C12.6974 172.364 14.4524 173.571 16.3973 174.383C18.3421 175.195 20.4344 175.595 22.5417 175.556C27.0599 175.556 30.7922 174.106 33.7647 171.108C35.5047 169.368 36.6647 166.758 37.0707 163.466H22.5533V157.399H42.9809C43.1984 158.478 43.2709 159.719 43.2709 161.169C43.2709 167.132 41.5222 171.859 38.0132 175.365C34.0344 179.526 28.8782 181.6 22.5127 181.6L22.5446 181.617ZM70.0176 177.557C67.2336 180.283 63.8406 181.617 59.8328 181.617C55.825 181.617 52.4262 180.254 49.648 177.557C46.8698 174.86 45.4778 171.43 45.4778 167.349C45.4778 163.269 46.8698 159.867 49.648 157.141C52.4262 154.415 55.825 153.081 59.8328 153.081C63.8406 153.081 67.2394 154.444 70.0176 157.141C72.7958 159.838 74.1878 163.278 74.1878 167.349C74.1878 171.421 72.7958 174.831 70.0176 177.557ZM54.143 173.555C54.8665 174.342 55.7471 174.967 56.7278 175.391C57.7084 175.815 58.7673 176.029 59.8357 176.017C62.0397 176.017 63.9363 175.2 65.5284 173.552C67.1205 171.905 67.9122 169.84 67.9122 167.346C67.9122 164.823 67.1292 162.741 65.5545 161.111C63.9798 159.482 62.0803 158.675 59.8357 158.675C58.7651 158.659 57.703 158.867 56.7179 159.287C55.7329 159.707 54.8468 160.328 54.1169 161.111C52.5422 162.735 51.7592 164.812 51.7592 167.346C51.7592 169.835 52.5509 171.908 54.143 173.552V173.555ZM101.335 177.557C98.5507 180.283 95.1577 181.617 91.1499 181.617C87.1421 181.617 83.7433 180.254 80.9651 177.557C78.1869 174.86 76.7949 171.43 76.7949 167.349C76.7949 163.269 78.1869 159.867 80.9651 157.141C83.7433 154.415 87.1421 153.081 91.1499 153.081C95.1577 153.081 98.5565 154.444 101.335 157.141C104.113 159.838 105.505 163.278 105.505 167.349C105.505 171.421 104.113 174.831 101.335 177.557ZM85.4601 173.555C86.1836 174.342 87.0642 174.967 88.0449 175.391C89.0256 175.815 90.0844 176.029 91.1528 176.017C93.3568 176.017 95.2534 175.2 96.8455 173.552C98.4376 171.905 99.2293 169.84 99.2293 167.346C99.2293 164.823 98.4463 162.741 96.8716 161.111C95.2969 159.482 93.3974 158.675 91.1528 158.675C90.0822 158.659 89.0201 158.867 88.035 159.287C87.05 159.707 86.1639 160.328 85.434 161.111C83.8593 162.735 83.0763 164.812 83.0763 167.346C83.0763 169.835 83.868 171.908 85.4601 173.552V173.555ZM121.922 194.493C118.746 194.493 116.072 193.641 113.906 191.941C111.74 190.242 110.188 188.276 109.249 186.031L114.724 183.76C115.298 185.135 116.174 186.327 117.43 187.339C118.685 188.351 120.156 188.853 121.93 188.853C124.314 188.853 126.188 188.128 127.536 186.687C128.885 185.245 129.566 183.16 129.566 180.452V178.422H129.349C127.609 180.588 125.065 181.675 121.82 181.675C118.172 181.675 114.976 180.283 112.23 177.505C110.896 176.192 109.843 174.621 109.135 172.888C108.427 171.155 108.079 169.296 108.112 167.425C108.078 165.541 108.426 163.671 109.134 161.925C109.841 160.179 110.895 158.594 112.23 157.266C114.97 154.473 118.175 153.07 121.82 153.07C123.444 153.07 124.917 153.374 126.234 153.992C127.551 154.61 128.592 155.367 129.349 156.263H129.566V153.96H135.529V179.645C135.529 184.633 134.258 188.357 131.706 190.839C129.154 193.304 125.901 194.551 121.925 194.551L121.922 194.493ZM122.357 176.015C123.391 176.033 124.416 175.821 125.358 175.396C126.3 174.97 127.136 174.34 127.806 173.552C129.267 171.908 129.998 169.861 129.998 167.399C129.998 164.91 129.267 162.828 127.806 161.164C127.14 160.369 126.305 159.734 125.363 159.303C124.42 158.873 123.393 158.658 122.357 158.675C120.153 158.675 118.274 159.511 116.725 161.164C115.176 162.817 114.393 164.899 114.393 167.399C114.393 169.852 115.168 171.908 116.725 173.552C118.282 175.197 120.156 176.015 122.357 176.015ZM146.143 138.706V180.756H139.858V138.706H146.143ZM163.369 181.614C159.32 181.614 155.945 180.24 153.236 177.496C150.527 174.753 149.17 171.36 149.17 167.312C149.17 163.124 150.475 159.685 153.097 157.017C154.327 155.722 155.812 154.698 157.458 154.007C159.104 153.316 160.876 152.974 162.661 153.003C164.392 153.003 166.005 153.316 167.484 153.951C168.859 154.515 170.11 155.342 171.167 156.387C172.048 157.265 172.83 158.236 173.498 159.284C174.051 160.18 174.522 161.124 174.908 162.103L175.56 163.727L156.438 171.65C157.888 174.538 160.208 175.986 163.374 175.986C166.263 175.986 168.615 174.672 170.416 172.033L175.288 175.287C174.2 176.911 172.669 178.375 170.682 179.674C168.696 180.974 166.251 181.617 163.363 181.617L163.369 181.614ZM155.405 166.882L168.165 161.575C167.8 160.671 167.139 159.94 166.135 159.383C165.126 158.818 163.986 158.53 162.829 158.548C160.985 158.548 159.262 159.302 157.658 160.819C156.055 162.335 155.28 164.362 155.353 166.885L155.405 166.882ZM208.562 181.614C202.849 181.614 198.064 179.683 194.201 175.814C190.339 171.946 188.401 167.129 188.401 161.349C188.401 155.57 190.333 150.747 194.201 146.884C198.07 143.021 202.852 141.084 208.562 141.084C214.411 141.084 219.165 143.201 222.81 147.421L219.344 150.785C216.734 147.496 213.109 145.855 208.556 145.855C204.322 145.855 200.767 147.281 197.826 150.138C194.886 152.994 193.465 156.727 193.465 161.349C193.465 165.972 194.915 169.713 197.826 172.572C200.738 175.432 204.302 176.856 208.556 176.856C213.214 176.856 217.19 174.976 220.446 171.224L223.912 174.689C222.096 176.856 219.817 178.588 217.242 179.756C214.511 181.012 211.536 181.647 208.53 181.617L208.562 181.614ZM233.375 180.756H228.387V141.963H233.375V180.756ZM241.503 157.382C244.07 154.694 247.303 153.342 251.311 153.342C255.319 153.342 258.552 154.691 261.119 157.382C263.685 160.073 264.967 163.472 264.967 167.489C264.967 171.505 263.691 174.904 261.119 177.595C258.547 180.286 255.319 181.635 251.311 181.635C247.303 181.635 244.07 180.286 241.503 177.595C238.937 174.904 237.655 171.505 237.655 167.489C237.655 163.472 238.931 160.073 241.503 157.382ZM245.215 174.443C246.955 176.191 248.968 177.07 251.305 177.07C253.643 177.07 255.655 176.191 257.395 174.443C259.135 172.694 259.97 170.368 259.97 167.483C259.97 164.597 259.109 162.269 257.395 160.523C255.681 158.777 253.643 157.895 251.305 157.895C248.968 157.895 246.955 158.774 245.215 160.523C243.475 162.271 242.64 164.597 242.64 167.483C242.64 170.368 243.501 172.697 245.215 174.443ZM292.543 180.756H287.773V177.073H287.555C286.801 178.335 285.641 179.413 284.09 180.263C282.538 181.113 280.9 181.597 279.16 181.597C275.833 181.597 273.319 180.588 271.605 178.561C269.891 176.534 269.03 173.825 269.03 170.432V154.175H274.018V169.614C274.018 174.567 276.202 177.038 280.572 177.038C281.55 177.059 282.519 176.844 283.396 176.41C284.274 175.977 285.034 175.339 285.612 174.55C286.902 172.915 287.59 170.887 287.561 168.805V154.175H292.549V180.73L292.543 180.756ZM309.444 181.617C306.014 181.617 303.047 180.26 300.559 177.552C298.071 174.843 296.824 171.485 296.824 167.471C296.824 163.458 298.071 160.099 300.559 157.391C303.047 154.682 306.017 153.325 309.444 153.325C311.463 153.325 313.284 153.76 314.896 154.621C316.509 155.483 317.71 156.57 318.501 157.875H318.719L318.501 154.192V141.954H323.489V180.756H318.719V177.073H318.501C317.71 178.369 316.509 179.457 314.896 180.327C313.287 181.179 311.466 181.617 309.444 181.617ZM310.257 177.064C311.382 177.08 312.498 176.856 313.53 176.407C314.563 175.959 315.488 175.296 316.245 174.463C317.889 172.732 318.71 170.397 318.71 167.503C318.71 164.609 317.892 162.245 316.245 160.543C315.488 159.71 314.563 159.047 313.53 158.599C312.498 158.15 311.382 157.926 310.257 157.942C307.942 157.942 305.956 158.82 304.294 160.569C302.632 162.318 301.806 164.644 301.806 167.529C301.806 170.415 302.632 172.743 304.294 174.489C305.045 175.325 305.964 175.992 306.992 176.445C308.021 176.898 309.133 177.127 310.257 177.117V177.064Z" fill="white"/>
</g>
</g>
<defs>
<clipPath id="clip0_50_140">
<rect width="323" height="195" fill="white"/>
</clipPath>
</defs>
</svg>
