<svg width="316" height="69" viewBox="0 0 316 69" fill="none" xmlns="http://www.w3.org/2000/svg">
<g clip-path="url(#clip0_1_6)">
<path d="M134.486 50.5932H122.103V7.20415C127.376 6.94748 131.178 6.81915 133.508 6.81915C137.793 6.81915 141.111 7.74248 143.461 9.58914C144.636 10.5343 145.569 11.7461 146.182 13.1241C146.795 14.502 147.071 16.0064 146.986 17.5121C146.969 19.5691 146.163 21.5411 144.735 23.0211C143.441 24.5521 141.7 25.6396 139.757 26.1311C143.194 26.9605 145.697 28.3328 147.266 30.2482C148.943 32.4979 149.777 35.2653 149.622 38.0672C149.685 39.8096 149.339 41.5425 148.611 43.1269C147.883 44.7112 146.794 46.1029 145.431 47.1902C142.636 49.4595 138.988 50.5938 134.486 50.5932ZM128.029 11.9431V24.4122C129.272 24.5315 130.813 24.5908 132.65 24.5901C138.258 24.5901 141.062 22.3095 141.063 17.7482C141.063 13.7402 138.486 11.7361 133.331 11.7361C131.356 11.7361 129.588 11.8068 128.029 11.9482V11.9431ZM128.029 29.0031V45.5591C130.062 45.7591 131.621 45.8591 132.708 45.8591C136.421 45.8591 139.132 45.1631 140.84 43.7711C142.548 42.3791 143.402 40.1628 143.402 37.1221C143.402 34.2988 142.587 32.2158 140.958 30.8732C139.329 29.5305 136.608 28.8591 132.797 28.8591L128.029 29.0031Z" fill="White"/>
<path d="M150.675 41.6201V5.87213H156.303V40.6721C156.263 41.4054 156.372 42.1393 156.624 42.8291C156.876 43.5189 157.266 44.1504 157.769 44.6851C158.275 45.1775 158.876 45.5614 159.536 45.8135C160.195 46.0656 160.899 46.1805 161.605 46.1511V51.1851C154.318 51.1858 150.674 47.9975 150.675 41.6201Z" fill="White"/>
<path d="M168.15 18.8741V39.1021C168.15 43.9995 170.273 46.4478 174.519 46.4471C176.344 46.458 178.127 45.8986 179.619 44.8471C181.006 43.9717 182.075 42.675 182.671 41.1471V18.8741H188.291V50.5931H182.662V46.2101C181.762 47.7041 180.436 48.8953 178.855 49.6311C177.154 50.6117 175.234 51.1466 173.271 51.1861C169.796 51.1861 167.135 50.1891 165.288 48.1951C163.441 46.2011 162.518 43.3678 162.518 39.6951V18.8741H168.15Z" fill="White"/>
<path d="M217.686 35.2841H194.817C194.817 38.9975 195.834 41.8508 197.867 43.8441C198.791 44.7176 199.88 45.398 201.07 45.8455C202.261 46.2929 203.528 46.4985 204.799 46.4501C207.742 46.5479 210.615 45.5445 212.857 43.6361L215.227 47.6941C214.074 48.7276 212.709 49.4959 211.227 49.9451C208.812 50.8024 206.264 51.2237 203.702 51.1891C201.823 51.2274 199.956 50.8879 198.21 50.1909C196.465 49.4938 194.878 48.4533 193.542 47.1311C190.441 44.1498 188.89 40.1418 188.89 35.1071C188.89 29.8751 190.48 25.6795 193.66 22.5201C194.967 21.165 196.537 20.0905 198.274 19.3624C200.01 18.6343 201.877 18.2677 203.76 18.2851C208.282 18.2851 211.827 19.5588 214.394 22.1061C215.653 23.3861 216.634 24.9122 217.277 26.5888C217.919 28.2654 218.208 30.0565 218.127 31.8501C218.139 33.0096 217.991 34.1653 217.686 35.2841ZM204.029 23.0231C201.761 22.9721 199.558 23.7901 197.873 25.3097C196.188 26.8293 195.148 28.9355 194.965 31.1971H212.531C212.595 29.095 211.829 27.0521 210.399 25.5101C209.574 24.6678 208.579 24.0103 207.481 23.5812C206.383 23.1521 205.206 22.9612 204.028 23.0211L204.029 23.0231Z" fill="White"/>
<path d="M216.629 48.6112L218.793 43.1612C220.056 44.0496 221.45 44.7342 222.925 45.1901C224.349 45.6933 225.843 45.9684 227.353 46.0051C229.383 46.1023 231.375 45.423 232.922 44.1052C233.604 43.5034 234.146 42.759 234.509 41.9247C234.872 41.0904 235.047 40.1866 235.022 39.2772C235.028 37.8358 234.622 36.4228 233.852 35.2042C233.071 33.9515 231.111 32.5848 227.971 31.1042L224.471 29.4752C221.971 28.4702 219.815 26.7628 218.265 24.5592C217.043 22.4906 216.432 20.1185 216.502 17.7172C216.464 16.2065 216.751 14.7054 217.344 13.3154C217.937 11.9255 218.821 10.6792 219.938 9.66116C222.35 7.4822 225.518 6.33362 228.766 6.46116C233.566 6.46116 236.904 7.24116 238.779 8.80116L237.031 13.9552C235.914 13.2292 234.697 12.6706 233.418 12.2972C231.97 11.7941 230.451 11.5241 228.918 11.4972C228.051 11.4491 227.182 11.5765 226.365 11.8717C225.548 12.1668 224.799 12.6238 224.163 13.2152C223.587 13.7925 223.136 14.4822 222.837 15.2414C222.539 16.0006 222.401 16.813 222.43 17.6282C222.416 18.6684 222.629 19.6992 223.053 20.6491C223.448 21.5321 224.041 22.3125 224.785 22.9302C226.21 23.9404 227.734 24.8035 229.333 25.5062L232.888 27.1942C235.408 28.2306 237.573 29.9741 239.124 32.2142C240.398 34.4729 241.019 37.0418 240.916 39.6332C240.926 41.2215 240.578 42.7917 239.899 44.2273C239.219 45.6629 238.225 46.9271 236.99 47.9262C234.373 50.1975 230.873 51.3328 226.49 51.3322C223.005 51.4347 219.569 50.4867 216.629 48.6112Z" fill="White"/>
<path d="M261.11 50.5941V30.6571C261.225 28.6401 260.604 26.6499 259.361 25.0571C258.749 24.3679 257.988 23.826 257.137 23.472C256.285 23.1181 255.365 22.9612 254.444 23.0131C252.995 23.039 251.579 23.4535 250.344 24.2131C249.097 24.9 248.019 25.8566 247.189 27.0131V50.5881H241.561V5.87213H247.189V22.3721C248.099 21.0764 249.357 20.0651 250.818 19.4551C252.434 18.6872 254.199 18.2876 255.988 18.2851C257.468 18.2098 258.947 18.4689 260.313 19.0431C261.68 19.6174 262.9 20.492 263.882 21.6021C265.787 23.8135 266.74 26.8345 266.74 30.6651V50.5971L261.11 50.5941Z" fill="White"/>
<path d="M271.67 50.5931V23.6141H267.314V18.8742H277.297V50.5931H271.67ZM274.751 6.87914C275.211 6.87165 275.668 6.95846 276.094 7.13422C276.519 7.30998 276.904 7.57098 277.225 7.90114C277.553 8.21711 277.813 8.59687 277.988 9.01702C278.164 9.43717 278.252 9.8888 278.246 10.3441C278.247 10.8038 278.157 11.2592 277.982 11.684C277.806 12.1089 277.548 12.4948 277.223 12.8196C276.898 13.1444 276.511 13.4017 276.086 13.5767C275.661 13.7517 275.206 13.8409 274.746 13.8391C273.823 13.8391 272.938 13.4725 272.285 12.8199C271.633 12.1672 271.266 11.2821 271.266 10.3592C271.266 9.4362 271.633 8.55104 272.285 7.89841C272.938 7.24578 273.823 6.87914 274.746 6.87914H274.751Z" fill="White"/>
<path d="M297.261 10.9072C296.235 10.5335 295.153 10.3331 294.061 10.3141C293.251 10.2969 292.447 10.4639 291.711 10.8026C290.974 11.1412 290.324 11.6427 289.81 12.2692C288.664 13.6568 288.069 15.417 288.136 17.2151C288.138 17.7714 288.187 18.3264 288.284 18.8741H294.742V23.6131H288.284V50.5941H282.655V23.6131H278.034V18.8741H282.655C282.655 14.8268 283.652 11.6478 285.646 9.33714C286.619 8.20145 287.835 7.29995 289.205 6.69983C290.574 6.09971 292.062 5.81645 293.556 5.87116C295.349 5.89629 297.128 6.19574 298.83 6.75914L297.261 10.9072Z" fill="White"/>
<path d="M299.378 23.3172H295.704V18.8752H299.378V12.2402L305.006 10.0782V18.8782H313.716V23.3202H305.006V39.0762C305.006 41.7428 305.455 43.6385 306.354 44.7632C306.898 45.3609 307.572 45.8244 308.325 46.1173C309.078 46.4102 309.889 46.5244 310.693 46.4512C312.248 46.4231 313.777 46.0472 315.168 45.3512L315.997 50.2971C313.487 50.9108 310.909 51.2091 308.325 51.1852C307.127 51.2033 305.938 50.9626 304.842 50.4794C303.745 49.9961 302.765 49.2818 301.97 48.3852C300.219 46.4585 299.289 43.9242 299.379 41.3222L299.378 23.3172Z" fill="White"/>
<path d="M176.227 62.4091C176.25 62.466 176.265 62.526 176.27 62.5871C176.272 62.6055 176.269 62.624 176.263 62.6414C176.257 62.6587 176.246 62.6743 176.233 62.6871C176.194 62.7149 176.148 62.7306 176.1 62.7321C176.018 62.7397 175.935 62.743 175.852 62.7421C175.749 62.7421 175.666 62.7395 175.604 62.7341C175.557 62.7319 175.509 62.7235 175.464 62.7091C175.437 62.7005 175.412 62.6842 175.394 62.6621C175.377 62.6387 175.363 62.6136 175.351 62.5871L174.795 61.0101H172.1L171.569 62.5681C171.56 62.5962 171.547 62.6225 171.529 62.6461C171.509 62.6698 171.484 62.6887 171.456 62.7011C171.413 62.7191 171.368 62.7303 171.321 62.7341C171.245 62.7416 171.169 62.7449 171.093 62.7441C171.014 62.7453 170.934 62.7413 170.855 62.7321C170.808 62.7295 170.763 62.7127 170.725 62.6841C170.712 62.671 170.703 62.6552 170.697 62.638C170.691 62.6207 170.688 62.6023 170.69 62.5841C170.696 62.523 170.71 62.463 170.733 62.4061L172.907 56.3861C172.918 56.353 172.936 56.3224 172.959 56.2961C172.987 56.2691 173.021 56.2501 173.059 56.2411C173.111 56.2257 173.165 56.2163 173.219 56.2131C173.286 56.2078 173.368 56.2051 173.467 56.2051C173.566 56.2051 173.654 56.2078 173.733 56.2131C173.791 56.2162 173.848 56.2256 173.903 56.2411C173.941 56.2513 173.975 56.2713 174.003 56.2991C174.027 56.3261 174.046 56.3578 174.058 56.3921L176.227 62.4091ZM173.437 57.0951H173.432L172.315 60.3251H174.569L173.437 57.0951Z" fill="white"/>
<path d="M183.899 60.8561C183.901 61.0466 183.875 61.2363 183.821 61.4192C183.773 61.5839 183.699 61.74 183.603 61.8821C183.51 62.0192 183.396 62.141 183.265 62.2432C183.129 62.3492 182.979 62.4366 182.82 62.5031C182.649 62.575 182.471 62.628 182.289 62.6612C182.075 62.6986 181.858 62.7163 181.641 62.7141H179.948C179.869 62.7133 179.792 62.6858 179.73 62.6361C179.693 62.6017 179.665 62.559 179.647 62.5116C179.63 62.4641 179.624 62.4133 179.63 62.3632V56.5832C179.624 56.533 179.63 56.4822 179.647 56.4347C179.665 56.3873 179.693 56.3446 179.73 56.3102C179.792 56.2605 179.869 56.2331 179.948 56.2322H181.42C181.741 56.224 182.061 56.261 182.372 56.3422C182.598 56.4048 182.809 56.5141 182.991 56.6632C183.155 56.8023 183.283 56.9794 183.364 57.1791C183.451 57.399 183.494 57.6338 183.49 57.8702C183.491 58.0189 183.472 58.1671 183.435 58.3112C183.4 58.4477 183.345 58.5784 183.272 58.6992C183.2 58.8189 183.108 58.9262 183.002 59.0172C182.89 59.1125 182.764 59.1901 182.629 59.2472C182.805 59.2792 182.974 59.3411 183.129 59.4302C183.281 59.5185 183.417 59.6329 183.529 59.7682C183.648 59.9112 183.74 60.074 183.802 60.2492C183.87 60.4443 183.902 60.6497 183.899 60.8561ZM182.599 57.9562C182.601 57.8115 182.579 57.6676 182.534 57.5302C182.495 57.4078 182.426 57.2969 182.334 57.2072C182.229 57.1135 182.104 57.0451 181.969 57.0071C181.775 56.955 181.575 56.9314 181.374 56.9372H180.485V59.0371H181.464C181.648 59.0438 181.832 59.0139 182.004 58.9492C182.133 58.8961 182.249 58.8159 182.344 58.7141C182.435 58.6149 182.504 58.4968 182.544 58.3682C182.584 58.2346 182.604 58.0957 182.602 57.9562H182.599ZM182.99 60.9062C182.993 60.7313 182.962 60.5576 182.897 60.3951C182.838 60.2516 182.746 60.1243 182.627 60.0241C182.496 59.9177 182.345 59.8401 182.182 59.7961C181.963 59.7393 181.737 59.713 181.51 59.7181H180.48V62.0022H181.73C181.904 62.0054 182.078 61.9818 182.245 61.9322C182.386 61.8883 182.518 61.8177 182.632 61.7242C182.744 61.6313 182.834 61.514 182.894 61.3812C182.961 61.2319 182.995 61.0698 182.993 60.9062H182.99Z" fill="white"/>
<path d="M186.067 62.5841C186.067 62.6089 186.061 62.6333 186.047 62.6541C186.029 62.677 186.005 62.6935 185.977 62.7011C185.934 62.7152 185.889 62.7252 185.844 62.7311C185.775 62.7402 185.706 62.7442 185.636 62.7431C185.568 62.744 185.499 62.74 185.431 62.7311C185.385 62.7254 185.34 62.7153 185.296 62.7011C185.268 62.6935 185.244 62.677 185.226 62.6541C185.213 62.6333 185.206 62.6089 185.206 62.5841V56.3641C185.206 56.3389 185.214 56.3142 185.229 56.2941C185.249 56.2712 185.275 56.2548 185.304 56.2471C185.348 56.2333 185.393 56.2233 185.439 56.2171C185.505 56.2082 185.572 56.2042 185.639 56.2051C185.709 56.2041 185.778 56.2081 185.847 56.2171C185.892 56.2231 185.937 56.2331 185.98 56.2471C186.008 56.2548 186.032 56.2713 186.05 56.2941C186.064 56.315 186.071 56.3393 186.07 56.3641L186.067 62.5841Z" fill="white"/>
<path d="M192.659 57.1152C192.659 57.1713 192.656 57.2274 192.649 57.2832C192.644 57.3242 192.634 57.3645 192.619 57.4031C192.609 57.4302 192.592 57.4539 192.569 57.4712C192.55 57.4842 192.527 57.4911 192.504 57.4912C192.43 57.4751 192.361 57.4407 192.304 57.3912C192.184 57.3129 192.059 57.2427 191.929 57.1812C191.747 57.0953 191.559 57.025 191.365 56.9712C191.111 56.9015 190.849 56.8679 190.586 56.8712C190.255 56.8671 189.927 56.9354 189.625 57.0711C189.348 57.1963 189.102 57.3811 188.904 57.6122C188.701 57.8536 188.547 58.1325 188.451 58.4331C188.235 59.129 188.241 59.8744 188.466 60.5671C188.569 60.8671 188.732 61.143 188.945 61.3782C189.147 61.5974 189.397 61.7683 189.674 61.8782C189.97 61.9942 190.285 62.0519 190.603 62.0482C190.808 62.0476 191.013 62.0231 191.212 61.9752C191.412 61.9289 191.605 61.8555 191.786 61.7572V59.8692H190.286C190.259 59.8694 190.232 59.8614 190.209 59.8463C190.186 59.8311 190.168 59.8095 190.158 59.7842C190.125 59.6996 190.111 59.6088 190.116 59.5182C190.116 59.4637 190.119 59.4092 190.126 59.3552C190.131 59.317 190.142 59.2798 190.159 59.2452C190.171 59.2201 190.189 59.1984 190.212 59.1822C190.234 59.1681 190.261 59.1611 190.287 59.1622H192.346C192.384 59.1623 192.421 59.1691 192.456 59.1822C192.493 59.1956 192.527 59.2159 192.556 59.2422C192.588 59.2723 192.612 59.3102 192.626 59.3522C192.644 59.404 192.652 59.4585 192.651 59.5132V61.9902C192.653 62.0676 192.638 62.1444 192.606 62.2152C192.563 62.2907 192.496 62.3498 192.416 62.3832C192.294 62.4425 192.168 62.4952 192.04 62.5411C191.884 62.5985 191.725 62.647 191.564 62.6862C191.24 62.7654 190.907 62.8057 190.573 62.8062C190.115 62.8136 189.66 62.7346 189.231 62.5732C188.853 62.4286 188.511 62.2018 188.231 61.9092C187.953 61.6127 187.74 61.2611 187.607 60.8771C187.314 59.9866 187.321 59.0248 187.625 58.1382C187.768 57.741 187.991 57.3777 188.281 57.0711C188.568 56.774 188.915 56.541 189.298 56.3872C189.716 56.2209 190.163 56.1383 190.613 56.1441C190.848 56.1425 191.082 56.1643 191.313 56.2091C191.509 56.2471 191.703 56.2982 191.892 56.3622C192.04 56.4114 192.182 56.4754 192.317 56.5532C192.402 56.6001 192.482 56.6564 192.555 56.7212C192.597 56.7629 192.628 56.8145 192.645 56.8712C192.661 56.9515 192.665 57.0336 192.659 57.1152Z" fill="white"/>
<path d="M201.565 59.3781C201.574 59.8767 201.501 60.3734 201.349 60.8481C201.222 61.2391 201.007 61.5956 200.721 61.8902C200.435 62.172 200.088 62.3838 199.707 62.5092C199.244 62.6552 198.76 62.7244 198.275 62.7141H196.903C196.824 62.7134 196.747 62.6859 196.685 62.6361C196.648 62.6017 196.62 62.5591 196.602 62.5116C196.585 62.4642 196.579 62.4133 196.585 62.3632V56.5832C196.579 56.533 196.585 56.4821 196.602 56.4347C196.62 56.3873 196.648 56.3446 196.685 56.3102C196.747 56.2605 196.824 56.233 196.903 56.2321H198.371C198.854 56.2199 199.336 56.2937 199.793 56.4502C200.161 56.583 200.493 56.7969 200.767 57.0761C201.037 57.3581 201.241 57.6957 201.367 58.0652C201.506 58.4886 201.573 58.9325 201.565 59.3781ZM200.658 59.4131C200.661 59.0823 200.617 58.7528 200.528 58.4341C200.449 58.1468 200.31 57.8796 200.12 57.6501C199.93 57.426 199.69 57.2493 199.42 57.1342C199.07 56.9986 198.695 56.9356 198.32 56.9492H197.444V61.9922H198.33C198.685 62.0013 199.04 61.9489 199.377 61.8372C199.65 61.7407 199.895 61.577 200.088 61.3611C200.288 61.1295 200.434 60.8562 200.516 60.5612C200.618 60.1872 200.666 59.8006 200.658 59.4131Z" fill="white"/>
<path d="M207.594 62.4091C207.617 62.466 207.632 62.526 207.637 62.5871C207.639 62.6056 207.636 62.6242 207.629 62.6415C207.623 62.6588 207.613 62.6744 207.599 62.6871C207.56 62.7148 207.514 62.7305 207.466 62.7321C207.384 62.7397 207.301 62.743 207.218 62.7421C207.118 62.7421 207.032 62.7421 206.97 62.7341C206.922 62.732 206.875 62.7236 206.829 62.7091C206.802 62.7005 206.777 62.6842 206.759 62.6621C206.742 62.6388 206.728 62.6136 206.717 62.5871L206.161 61.0101H203.467L202.936 62.5681C202.927 62.5961 202.913 62.6224 202.896 62.6461C202.876 62.6698 202.851 62.6887 202.823 62.7011C202.78 62.7191 202.734 62.7302 202.687 62.7341C202.611 62.7416 202.535 62.7449 202.459 62.7441C202.38 62.7453 202.3 62.7413 202.221 62.7321C202.174 62.7295 202.129 62.7128 202.091 62.6841C202.078 62.671 202.069 62.6553 202.063 62.638C202.057 62.6207 202.054 62.6023 202.056 62.5841C202.061 62.523 202.076 62.463 202.099 62.4061L204.273 56.3861C204.284 56.3528 204.302 56.3222 204.325 56.2961C204.351 56.2699 204.384 56.251 204.42 56.2411C204.472 56.2257 204.526 56.2163 204.58 56.2131C204.645 56.2081 204.728 56.2051 204.828 56.2051C204.928 56.2051 205.028 56.2051 205.094 56.2131C205.152 56.2162 205.209 56.2256 205.264 56.2411C205.302 56.2515 205.336 56.2715 205.364 56.2991C205.388 56.3261 205.407 56.3577 205.419 56.3921L207.594 62.4091ZM204.804 57.0951H204.799L203.682 60.3251H205.936L204.804 57.0951Z" fill="white"/>
<path d="M211.936 56.6042C211.936 56.6593 211.933 56.7145 211.926 56.7692C211.922 56.8084 211.91 56.8466 211.893 56.8822C211.881 56.9078 211.862 56.9296 211.838 56.9452C211.816 56.9586 211.791 56.9655 211.766 56.9652H209.946V62.5841C209.947 62.6089 209.94 62.6333 209.926 62.6542C209.909 62.6775 209.884 62.6944 209.856 62.7022C209.813 62.7162 209.768 62.7262 209.723 62.7322C209.654 62.7412 209.585 62.7452 209.516 62.7442C209.447 62.7451 209.378 62.7411 209.31 62.7322C209.264 62.7263 209.219 62.7163 209.175 62.7022C209.147 62.6942 209.123 62.6774 209.105 62.6542C209.091 62.6334 209.084 62.609 209.085 62.5841V56.9652H207.262C207.236 56.9656 207.211 56.9587 207.189 56.9452C207.166 56.9299 207.148 56.9084 207.137 56.8832C207.122 56.847 207.111 56.809 207.105 56.7702C207.096 56.7156 207.092 56.6604 207.093 56.6052C207.092 56.5489 207.096 56.4927 207.105 56.4372C207.111 56.3967 207.122 56.3571 207.137 56.3192C207.148 56.2929 207.166 56.2703 207.189 56.2542C207.211 56.2408 207.236 56.2339 207.262 56.2342H211.77C211.795 56.2339 211.82 56.2409 211.842 56.2542C211.866 56.2703 211.885 56.2928 211.897 56.3192C211.914 56.3565 211.925 56.3963 211.93 56.4372C211.936 56.4927 211.938 56.5484 211.936 56.6042Z" fill="white"/>
<path d="M216.924 62.4091C216.947 62.466 216.962 62.526 216.967 62.5871C216.969 62.6055 216.966 62.624 216.96 62.6414C216.954 62.6587 216.943 62.6743 216.93 62.6871C216.891 62.7148 216.845 62.7304 216.797 62.7321C216.715 62.7397 216.632 62.743 216.549 62.7421C216.449 62.7421 216.363 62.7421 216.301 62.7341C216.253 62.732 216.206 62.7236 216.161 62.7091C216.134 62.7005 216.109 62.6842 216.091 62.6621C216.074 62.6388 216.06 62.6136 216.048 62.5871L215.492 61.0101H212.798L212.267 62.5681C212.258 62.5961 212.244 62.6224 212.227 62.6461C212.207 62.6698 212.182 62.6887 212.154 62.7011C212.111 62.7191 212.065 62.7302 212.019 62.7341C211.943 62.7416 211.867 62.7449 211.791 62.7441C211.711 62.7453 211.632 62.7413 211.553 62.7321C211.506 62.7295 211.461 62.7127 211.423 62.6841C211.41 62.671 211.401 62.6552 211.394 62.638C211.388 62.6207 211.386 62.6023 211.388 62.5841C211.393 62.523 211.408 62.463 211.431 62.4061L213.605 56.3861C213.616 56.3528 213.634 56.3221 213.658 56.2961C213.686 56.2692 213.72 56.2502 213.758 56.2411C213.81 56.2257 213.864 56.2163 213.918 56.2131C213.983 56.2081 214.065 56.2051 214.166 56.2051C214.267 56.2051 214.366 56.2051 214.432 56.2131C214.489 56.2162 214.547 56.2255 214.602 56.2411C214.64 56.2514 214.674 56.2714 214.702 56.2991C214.726 56.3261 214.745 56.3577 214.757 56.3921L216.924 62.4091ZM214.134 57.0951L213.017 60.3251H215.271L214.134 57.0951Z" fill="white"/>
<path d="M224.653 61.7982C224.653 61.8522 224.653 61.8981 224.653 61.9381C224.651 61.9736 224.645 62.0088 224.636 62.0432C224.629 62.0711 224.617 62.098 224.603 62.1231C224.583 62.1544 224.56 62.183 224.533 62.2082C224.468 62.2653 224.398 62.3165 224.323 62.3611C224.196 62.4395 224.062 62.5065 223.923 62.5612C223.746 62.6317 223.563 62.6869 223.377 62.7261C223.156 62.7731 222.93 62.7959 222.703 62.7942C222.313 62.8 221.926 62.7286 221.564 62.5841C221.231 62.4478 220.934 62.2351 220.698 61.9631C220.447 61.6666 220.259 61.3214 220.147 60.9492C219.885 60.0243 219.891 59.0442 220.162 58.1222C220.285 57.7311 220.483 57.3679 220.745 57.0532C220.991 56.7649 221.298 56.5361 221.645 56.3842C222.184 56.159 222.777 56.0971 223.35 56.2061C223.517 56.2384 223.681 56.2828 223.841 56.3391C223.98 56.3872 224.114 56.4491 224.241 56.5241C224.328 56.5728 224.41 56.6308 224.484 56.6971C224.517 56.7271 224.546 56.7607 224.572 56.7972C224.586 56.8234 224.597 56.8513 224.604 56.8802C224.613 56.917 224.62 56.9544 224.624 56.9922C224.629 57.044 224.632 57.096 224.631 57.1481C224.632 57.205 224.629 57.2618 224.621 57.3181C224.616 57.3586 224.606 57.3983 224.591 57.4362C224.581 57.463 224.564 57.487 224.543 57.5061C224.524 57.5216 224.5 57.5294 224.475 57.5281C224.4 57.5159 224.33 57.481 224.275 57.4282C224.171 57.3495 224.063 57.2773 223.95 57.2122C223.797 57.1246 223.635 57.0526 223.467 56.9972C223.247 56.9268 223.016 56.893 222.785 56.8972C222.513 56.8936 222.243 56.9528 221.997 57.0702C221.757 57.188 221.548 57.3623 221.39 57.5782C221.211 57.8249 221.079 58.1025 221 58.3972C220.817 59.1169 220.816 59.8706 220.995 60.5912C221.07 60.8774 221.2 61.1461 221.378 61.3821C221.539 61.5904 221.75 61.7557 221.99 61.8632C222.249 61.9753 222.529 62.0309 222.811 62.0262C223.041 62.0288 223.269 61.9951 223.488 61.9262C223.659 61.8723 223.825 61.8009 223.981 61.7131C224.096 61.6481 224.208 61.577 224.316 61.5002C224.374 61.4491 224.446 61.4161 224.523 61.4052C224.544 61.4046 224.565 61.4098 224.583 61.4201C224.603 61.4338 224.618 61.4545 224.624 61.4782C224.636 61.5165 224.644 61.5561 224.647 61.5962C224.65 61.6572 224.653 61.7212 224.653 61.7982Z" fill="white"/>
<path d="M231.134 59.3992C231.14 59.8779 231.077 60.3551 230.948 60.8161C230.839 61.2082 230.651 61.5738 230.395 61.8902C230.146 62.1881 229.829 62.4216 229.471 62.5712C229.058 62.7378 228.616 62.8188 228.171 62.8092C227.739 62.819 227.31 62.7449 226.906 62.5911C226.564 62.4559 226.262 62.238 226.025 61.9571C225.78 61.6548 225.603 61.3031 225.507 60.9262C225.387 60.4633 225.33 59.9863 225.337 59.5082C225.332 59.0376 225.394 58.5688 225.523 58.1162C225.632 57.7265 225.821 57.364 226.079 57.0521C226.331 56.757 226.648 56.5254 227.006 56.3761C227.824 56.0668 228.726 56.0587 229.55 56.3532C229.891 56.4879 230.195 56.7038 230.434 56.9822C230.681 57.2807 230.861 57.6294 230.96 58.0042C231.082 58.4589 231.14 58.9284 231.134 59.3992ZM230.222 59.4592C230.223 59.1153 230.19 58.7722 230.122 58.4352C230.067 58.1431 229.956 57.8641 229.797 57.6131C229.646 57.3815 229.436 57.1938 229.189 57.0692C228.896 56.9305 228.573 56.8636 228.249 56.8742C227.923 56.8632 227.599 56.9354 227.309 57.0842C227.061 57.2193 226.849 57.4116 226.691 57.6452C226.527 57.894 226.411 58.172 226.351 58.4642C226.282 58.7876 226.249 59.1175 226.251 59.4482C226.249 59.8011 226.28 60.1534 226.346 60.5002C226.399 60.7944 226.508 61.0757 226.666 61.3291C226.814 61.5599 227.021 61.7468 227.266 61.8702C227.562 62.0084 227.887 62.0745 228.214 62.0632C228.543 62.0738 228.87 62.0012 229.164 61.8522C229.415 61.7173 229.628 61.5221 229.784 61.2842C229.947 61.0312 230.06 60.75 230.119 60.4552C230.188 60.1276 230.222 59.7938 230.222 59.4592Z" fill="white"/>
<path d="M239.543 62.5841C239.543 62.6091 239.536 62.6336 239.522 62.6542C239.504 62.6776 239.479 62.6945 239.45 62.7022C239.407 62.7159 239.363 62.7259 239.318 62.7322C239.249 62.7413 239.179 62.7453 239.11 62.7442C239.043 62.7448 238.976 62.7408 238.91 62.7322C238.864 62.7265 238.82 62.7164 238.776 62.7022C238.748 62.6941 238.724 62.6773 238.706 62.6542C238.692 62.6335 238.685 62.6091 238.685 62.5841V56.9372H238.675L236.391 62.6072C236.381 62.6299 236.367 62.6504 236.349 62.6672C236.325 62.6869 236.298 62.7016 236.268 62.7102C236.227 62.7232 236.186 62.7316 236.143 62.7351C236.086 62.7408 236.028 62.7435 235.97 62.7432C235.91 62.7437 235.85 62.7404 235.79 62.7332C235.748 62.7282 235.706 62.7192 235.665 62.7062C235.636 62.6971 235.61 62.6825 235.587 62.6632C235.57 62.6483 235.557 62.6294 235.549 62.6082L233.366 56.9382H233.361V62.5832C233.361 62.608 233.355 62.6323 233.341 62.6531C233.322 62.6766 233.297 62.6934 233.268 62.7012C233.224 62.715 233.179 62.725 233.134 62.7311C233.064 62.7403 232.993 62.7443 232.922 62.7432C232.853 62.7442 232.784 62.7402 232.716 62.7311C232.672 62.7252 232.628 62.7152 232.585 62.7012C232.558 62.6933 232.534 62.6764 232.518 62.6531C232.506 62.6319 232.499 62.6077 232.5 62.5832V56.6231C232.494 56.5679 232.502 56.5122 232.521 56.4602C232.541 56.4081 232.572 56.3613 232.612 56.3232C232.682 56.2648 232.77 56.233 232.861 56.2332H233.39C233.486 56.2317 233.582 56.2418 233.675 56.2632C233.752 56.2825 233.825 56.3164 233.889 56.3632C233.95 56.4071 234.002 56.4633 234.041 56.5281C234.085 56.6024 234.121 56.6812 234.148 56.7632L236.001 61.4562H236.026L237.954 56.7781C237.986 56.6892 238.027 56.6038 238.076 56.5232C238.115 56.4594 238.164 56.4026 238.221 56.3552C238.273 56.3138 238.333 56.2832 238.397 56.2652C238.47 56.246 238.545 56.2369 238.621 56.2382H239.176C239.225 56.2377 239.274 56.2451 239.321 56.2602C239.365 56.2742 239.405 56.2981 239.438 56.3301C239.472 56.3646 239.499 56.4054 239.517 56.4502C239.539 56.5069 239.549 56.5674 239.547 56.6282L239.543 62.5841Z" fill="white"/>
<path d="M245.248 58.1312C245.252 58.4311 245.198 58.729 245.088 59.0081C244.986 59.2612 244.83 59.4886 244.63 59.6742C244.419 59.8654 244.17 60.0105 243.899 60.1002C243.565 60.2071 243.216 60.2577 242.865 60.2502H242.129V62.5841C242.129 62.6094 242.121 62.634 242.106 62.6541C242.088 62.6766 242.064 62.6933 242.036 62.7021C241.994 62.7163 241.95 62.7264 241.906 62.7321C241.768 62.7486 241.628 62.7486 241.49 62.7321C241.445 62.7262 241.401 62.7161 241.358 62.7021C241.33 62.6941 241.306 62.6773 241.288 62.6541C241.275 62.6333 241.268 62.6089 241.268 62.5841V56.6042C241.263 56.5516 241.269 56.4986 241.287 56.4491C241.306 56.3995 241.335 56.3547 241.373 56.3181C241.439 56.263 241.522 56.233 241.608 56.2332H242.995C243.135 56.2332 243.27 56.2392 243.395 56.2502C243.548 56.266 243.701 56.2911 243.851 56.3252C244.04 56.3691 244.221 56.4419 244.387 56.5411C244.563 56.6417 244.72 56.7731 244.85 56.9291C244.979 57.0874 245.079 57.268 245.143 57.4622C245.215 57.6779 245.25 57.9039 245.248 58.1312ZM244.341 58.2011C244.349 57.9719 244.298 57.7444 244.194 57.5402C244.11 57.3767 243.983 57.2386 243.828 57.1402C243.69 57.0562 243.537 57.0001 243.377 56.9752C243.227 56.9522 243.076 56.9405 242.924 56.9402H242.124V59.5402H242.9C243.121 59.5468 243.341 59.5129 243.549 59.4402C243.711 59.3794 243.859 59.2846 243.982 59.1621C244.101 59.0411 244.191 58.8958 244.248 58.7361C244.31 58.5646 244.341 58.3835 244.341 58.2011Z" fill="white"/>
<path d="M250.667 62.4091C250.69 62.4661 250.704 62.526 250.71 62.5871C250.712 62.6056 250.709 62.6241 250.702 62.6414C250.696 62.6588 250.685 62.6744 250.672 62.6871C250.633 62.7148 250.587 62.7305 250.539 62.7321C250.457 62.7396 250.374 62.743 250.291 62.7421C250.191 62.7421 250.105 62.7421 250.043 62.7341C249.995 62.732 249.948 62.7236 249.903 62.7091C249.876 62.7005 249.851 62.6842 249.833 62.6621C249.817 62.6386 249.803 62.6135 249.791 62.5871L249.235 61.0101H246.54L246.009 62.5681C246 62.5961 245.987 62.6224 245.969 62.6461C245.949 62.6698 245.924 62.6887 245.896 62.7011C245.853 62.7191 245.808 62.7302 245.761 62.7341C245.685 62.7416 245.609 62.7449 245.533 62.7441C245.454 62.7453 245.374 62.7413 245.295 62.7321C245.248 62.7295 245.203 62.7127 245.165 62.6841C245.152 62.6711 245.142 62.6553 245.136 62.638C245.13 62.6208 245.128 62.6024 245.13 62.5841C245.135 62.523 245.149 62.463 245.172 62.4061L247.345 56.3861C247.357 56.3529 247.375 56.3223 247.398 56.2961C247.424 56.27 247.457 56.251 247.493 56.2411C247.545 56.2256 247.599 56.2163 247.654 56.2131C247.721 56.2078 247.803 56.2051 247.902 56.2051C248.001 56.2051 248.089 56.2078 248.167 56.2131C248.225 56.2161 248.282 56.2255 248.337 56.2411C248.375 56.2514 248.409 56.2714 248.437 56.2991C248.462 56.326 248.48 56.3576 248.492 56.3921L250.667 62.4091ZM247.877 57.0951H247.872L246.755 60.3251H249.009L247.877 57.0951Z" fill="white"/>
<path d="M256.641 62.3591C256.643 62.4176 256.632 62.4757 256.608 62.5291C256.588 62.5724 256.559 62.6109 256.523 62.6419C256.486 62.673 256.444 62.6959 256.398 62.7091C256.354 62.7224 256.309 62.7291 256.263 62.7292H255.978C255.899 62.7303 255.819 62.7209 255.742 62.7011C255.672 62.6813 255.606 62.6473 255.55 62.6011C255.481 62.543 255.42 62.4757 255.369 62.4012C255.297 62.2992 255.233 62.1923 255.177 62.0811L253.2 58.3951C253.096 58.2045 252.992 58.0045 252.888 57.7951C252.784 57.5858 252.686 57.3831 252.595 57.1871H252.585C252.592 57.4278 252.597 57.6732 252.6 57.9232C252.603 58.1732 252.603 58.4218 252.6 58.6691V62.5811C252.6 62.6054 252.593 62.6291 252.579 62.6491C252.562 62.6733 252.537 62.691 252.508 62.6992C252.465 62.7131 252.421 62.7231 252.376 62.7292C252.237 62.7457 252.097 62.7457 251.958 62.7292C251.914 62.7234 251.871 62.7133 251.829 62.6992C251.801 62.6904 251.777 62.6729 251.76 62.6491C251.747 62.629 251.739 62.6054 251.739 62.5811V56.6011C251.734 56.548 251.742 56.4944 251.761 56.4448C251.781 56.3952 251.813 56.3511 251.853 56.3161C251.924 56.2607 252.011 56.2308 252.101 56.2311H252.525C252.609 56.2295 252.694 56.2379 252.776 56.2561C252.841 56.2717 252.903 56.2995 252.957 56.3381C253.017 56.3835 253.069 56.4378 253.112 56.4991C253.171 56.5814 253.223 56.6676 253.27 56.7571L254.79 59.6021C254.884 59.7755 254.974 59.9448 255.061 60.1101C255.148 60.2755 255.231 60.4381 255.312 60.5981C255.393 60.7581 255.473 60.9161 255.552 61.0711C255.631 61.2261 255.71 61.3832 255.787 61.5392C255.78 61.2725 255.776 60.9978 255.775 60.7152C255.774 60.4325 255.774 60.1578 255.775 59.8911V56.3752C255.775 56.3518 255.782 56.329 255.796 56.3102C255.815 56.2866 255.839 56.2683 255.867 56.2571C255.909 56.2399 255.954 56.2288 255.999 56.2242C256.07 56.2168 256.142 56.2134 256.213 56.2141C256.28 56.2137 256.347 56.2171 256.413 56.2242C256.458 56.2283 256.503 56.2394 256.545 56.2571C256.572 56.2684 256.596 56.2867 256.614 56.3102C256.628 56.3291 256.635 56.3518 256.635 56.3752L256.641 62.3591Z" fill="white"/>
<path d="M260.428 60.1951V62.5841C260.428 62.609 260.421 62.6334 260.408 62.6542C260.39 62.677 260.366 62.6936 260.338 62.7011C260.294 62.7153 260.249 62.7253 260.204 62.7311C260.067 62.7478 259.929 62.7478 259.793 62.7311C259.747 62.725 259.703 62.715 259.659 62.7011C259.63 62.6939 259.605 62.6774 259.587 62.6542C259.573 62.6333 259.566 62.609 259.567 62.5841V60.1951L257.734 56.5391C257.705 56.482 257.682 56.4215 257.667 56.3591C257.662 56.3418 257.661 56.3233 257.666 56.3057C257.67 56.2881 257.679 56.272 257.692 56.2591C257.731 56.2306 257.778 56.2149 257.827 56.2141C257.894 56.2075 257.981 56.2041 258.09 56.2041C258.171 56.2033 258.252 56.2066 258.333 56.2141C258.383 56.2187 258.432 56.2277 258.48 56.2411C258.512 56.2496 258.541 56.267 258.563 56.2911C258.584 56.3166 258.602 56.3445 258.616 56.3742L259.516 58.2371C259.599 58.4138 259.682 58.5991 259.765 58.7931C259.848 58.9871 259.932 59.1825 260.019 59.3791H260.028C260.105 59.1891 260.184 58.9995 260.265 58.8101C260.346 58.6208 260.429 58.4348 260.512 58.2521L261.412 56.3791C261.421 56.3485 261.435 56.3197 261.454 56.2941C261.474 56.2699 261.5 56.2516 261.529 56.2411C261.572 56.2274 261.617 56.2184 261.662 56.2141C261.733 56.2068 261.805 56.2034 261.877 56.2041C261.972 56.2028 262.066 56.2068 262.16 56.2161C262.211 56.2183 262.26 56.235 262.302 56.2641C262.315 56.2766 262.325 56.2926 262.33 56.3102C262.335 56.3279 262.335 56.3465 262.33 56.3641C262.315 56.4251 262.292 56.4839 262.262 56.5391L260.428 60.1951Z" fill="white"/>
<path d="M21.21 49.7921H27.11V61.2621C27.11 61.2621 26.883 63.1931 29.041 62.9621L82.415 62.9801C82.415 62.9801 84.346 63.4161 84.232 61.4851V35.9341H90.019V66.8232C90.0595 67.086 90.0375 67.3547 89.9547 67.6075C89.872 67.8602 89.7309 68.09 89.5428 68.278C89.3548 68.4661 89.1251 68.6072 88.8723 68.6899C88.6195 68.7726 88.3508 68.7946 88.088 68.7542H23.357C23.08 68.8195 22.7912 68.8169 22.5154 68.7466C22.2396 68.6762 21.9849 68.5402 21.773 68.3502C21.5611 68.1601 21.3983 67.9216 21.2986 67.655C21.1988 67.3884 21.165 67.1016 21.2 66.8192L21.21 49.7921Z" fill="White"/>
<path d="M90.032 17.4801H84.127V7.53513C84.127 7.53513 84.354 5.60414 82.196 5.83514L28.822 5.81614C28.822 5.81614 26.891 5.38114 27.005 7.31614L26.923 31.2101H21.21L21.217 1.97813C21.1765 1.71528 21.1985 1.44657 21.2812 1.19381C21.364 0.941044 21.5051 0.711329 21.6931 0.523269C21.8812 0.335209 22.1109 0.194096 22.3637 0.111373C22.6164 0.0286509 22.8851 0.00664622 23.148 0.047134H87.878C88.1551 -0.0181958 88.4439 -0.0155788 88.7197 0.054771C88.9956 0.125121 89.2503 0.261116 89.4622 0.451164C89.6742 0.641212 89.8371 0.879684 89.937 1.14626C90.0369 1.41283 90.0708 1.69959 90.036 1.98213L90.032 17.4801Z" fill="White"/>
<path fill-rule="evenodd" clip-rule="evenodd" d="M1.347 33.0752C15.588 38.1362 29.705 36.5531 43.812 32.3921C53.739 29.4651 63.458 25.8121 73.654 23.8151C87.586 21.0871 100.904 23.1301 114.029 30.7981L115.482 31.6981L113.09 31.3371C96.328 28.0471 80.314 31.7021 64.404 36.5111C55.438 39.2221 46.53 42.1652 37.247 43.6962C23.581 45.9502 11.188 43.6331 0.881996 33.7291L0 32.6381L1.347 33.0752Z" fill="white"/>
</g>
<defs>
<clipPath id="clip0_1_6">
<rect width="316" height="68.773" fill="white"/>
</clipPath>
</defs>
</svg>
